<svg xmlns="http://www.w3.org/2000/svg" width="50" height="50" fill="none"><path fill-rule="evenodd" clip-rule="evenodd" d="M25 50c13.807 0 25-11.193 25-25S38.807 0 25 0 0 11.193 0 25s11.193 25 25 25zM13.475 31.709l-1.803 6.624 6.621-1.807A13.272 13.272 0 0025 38.333c7.364 0 13.333-5.97 13.333-13.334S32.363 11.666 25 11.666c-7.364 0-13.334 5.97-13.334 13.333a13.273 13.273 0 001.809 6.71zm6.218-12.832c.154-.078.323-.123.495-.134v-.001c.179-.012.358-.014.537-.005.072.005.144.013.216.021.212.025.446.153.524.332.398.901.784 1.81 1.157 2.721.083.202.034.462-.123.715a5.818 5.818 0 01-.351.497c-.15.192-.475.547-.475.547s-.132.157-.081.353c.034.097.08.189.136.274l.078.126c.379.62.836 1.189 1.36 1.691l.13.126a8.012 8.012 0 002.449 1.669l.005.002.089.04.248.106c.082.035.167.064.254.088a.467.467 0 00.49-.174c.965-1.168 1.054-1.244 1.06-1.244v.003a.643.643 0 01.505-.17.663.663 0 01.236.055c.708.323 1.868.828 1.868.828l.776.348c.13.063.248.211.253.354v.015c.005.09.012.233-.018.482-.043.345-.147.76-.251.977-.074.154-.17.288-.28.403-.15.156-.26.25-.44.384-.11.083-.167.12-.167.12a6.473 6.473 0 01-.51.293 2.653 2.653 0 01-1.111.308l-.13.007a5.71 5.71 0 01-.611.01l-.76-.115a12.596 12.596 0 01-5.12-2.728c-.25-.223-.487-.459-.725-.697l-.138-.138c-1.186-1.18-2.083-2.453-2.628-3.656-.267-.595-.438-1.23-.44-1.884a3.638 3.638 0 01.797-2.295 2.56 2.56 0 01.304-.35c.116-.12.248-.222.392-.304z" fill="#000"/></svg>