<svg xmlns="http://www.w3.org/2000/svg" width="203" height="116" fill="none"><path d="M49.15 2c9.92 0 18.507 1.653 25.76 4.96 7.36 3.307 13.014 8 16.96 14.08 3.947 6.08 5.92 13.28 5.92 21.6 0 8.213-1.973 15.413-5.92 21.6-3.946 6.08-9.6 10.773-16.96 14.08-7.253 3.2-15.84 4.8-25.76 4.8H26.59V114H.67V2h48.48zm-1.44 60c7.787 0 13.707-1.653 17.76-4.96 4.054-3.413 6.08-8.213 6.08-14.4 0-6.293-2.026-11.093-6.08-14.4-4.053-3.413-9.973-5.12-17.76-5.12H26.59V62h21.12zm106.948 53.92c-8.853 0-17.44-1.173-25.76-3.52-8.213-2.453-14.827-5.6-19.84-9.44l8.8-19.52c4.8 3.52 10.507 6.347 17.12 8.48 6.613 2.133 13.227 3.2 19.84 3.2 7.36 0 12.8-1.067 16.32-3.2 3.52-2.24 5.28-5.173 5.28-8.8 0-2.667-1.067-4.853-3.2-6.56-2.027-1.813-4.693-3.253-8-4.32-3.2-1.067-7.573-2.24-13.12-3.52-8.533-2.027-15.52-4.053-20.96-6.08-5.44-2.027-10.133-5.28-14.08-9.76-3.84-4.48-5.76-10.453-5.76-17.92 0-6.507 1.76-12.373 5.28-17.6 3.52-5.333 8.8-9.547 15.84-12.64 7.147-3.093 15.84-4.64 26.08-4.64 7.147 0 14.133.853 20.96 2.56 6.827 1.707 12.8 4.16 17.92 7.36l-8 19.68c-10.347-5.867-20.693-8.8-31.04-8.8-7.253 0-12.64 1.173-16.16 3.52-3.413 2.347-5.12 5.44-5.12 9.28 0 3.84 1.973 6.72 5.92 8.64 4.053 1.813 10.187 3.627 18.4 5.44 8.533 2.027 15.52 4.053 20.96 6.08 5.44 2.027 10.08 5.227 13.92 9.6 3.947 4.373 5.92 10.293 5.92 17.76 0 6.4-1.813 12.267-5.44 17.6-3.52 5.227-8.853 9.387-16 12.48s-15.84 4.64-26.08 4.64z" fill="#333"/></svg>