<svg xmlns="http://www.w3.org/2000/svg" width="167" height="39" fill="none"><g clip-path="url(#clip0_123_2971)" fill="#51A0FF"><path d="M23.113 10.444c-1.628-3.917-6.51-4.08-10.092-2.611-3.418 1.632-6.836 4.242-8.3 7.832-1.628 3.754-.326 7.67 2.44 10.607 1.466 1.632 3.256 2.774 5.21 3.916.976.653 1.79 1.143 2.766 1.795.814.653 2.93 1.795 2.767 3.1-.813 2.775-6.348 1.143-8.138.817l-3.906-.98c-.651-.163-3.907-.652-3.744-1.631.163-1.142-1.79-1.306-1.953-.163-.489 1.795 1.14 2.774 2.604 3.263 2.442.816 4.883 1.306 7.325 1.795 2.116.327 4.557.98 6.836.327 1.627-.49 3.092-1.959 3.092-3.754 0-2.12-2.116-3.426-3.58-4.569-1.954-1.468-4.232-2.61-6.023-4.242-1.628-1.469-3.255-3.1-3.744-5.385-.65-2.122 0-4.243 1.465-6.038 2.442-3.263 10.743-8.812 13.673-3.263.325.816 1.79.163 1.302-.816zm6.185 15.828c4.558-.326 9.278-1.142 13.022-3.753 1.79-1.305 3.418-2.937 4.232-4.895.813-2.122-.163-4.243-2.442-5.06-2.441-.815-4.557.49-6.185 2.122-1.953 1.958-3.581 4.08-4.883 6.364a30.174 30.174 0 00-3.418 7.343c-.814 2.448-1.628 5.059 0 7.507 1.465 2.121 4.232 3.263 6.673 3.1 3.093-.163 6.023-1.958 8.464-3.753 1.79-1.469.163-4.57-1.953-3.264-2.604 1.795-6.348 4.733-9.603 2.611-1.628-1.142-1.302-2.937-.814-4.569.65-1.958 1.302-3.916 2.279-5.874.976-1.795 1.953-3.59 3.255-5.222 1.14-1.469 2.441-3.427 4.07-4.08.65-.326 1.627-.326 2.278.164.976.652.488 1.795 0 2.61-.814 1.47-2.116 2.775-3.418 3.59-3.256 2.285-7.325 3.264-11.231 3.917-1.14 0-1.14 1.142-.326 1.142zm94.406-.816c4.394-.163 9.115-.816 13.021-3.1 1.953-1.143 3.744-2.938 4.72-5.06.814-2.12-.162-4.242-2.278-5.058-2.442-.816-4.721.49-6.348 2.122-1.954 1.795-3.581 3.916-5.046 6.037a36.199 36.199 0 00-3.744 7.017c-.976 2.448-1.953 5.222-.488 7.833 1.302 2.121 4.069 3.426 6.511 3.426 3.092 0 6.022-1.631 8.626-3.426 1.954-1.469.163-4.406-1.953-3.264-2.767 1.632-6.673 4.57-9.766 2.121-1.628-1.142-1.139-3.1-.488-4.732.651-1.958 1.465-3.753 2.604-5.548.977-1.795 2.116-3.427 3.418-5.059 1.14-1.468 2.604-3.263 4.395-3.916.651-.163 1.628-.163 2.116.326.814.816.163 1.959-.326 2.611-.976 1.306-2.116 2.448-3.581 3.427-3.418 2.121-7.487 2.937-11.393 3.264-.814 0-.814.979 0 .979zM60.061 11.912c-.976 4.243-2.116 8.485-3.255 12.728-.488 2.121-1.14 4.243-1.79 6.2-.652 2.122-1.628 4.244-1.465 6.365.162 1.305 1.79 1.795 2.441.653.977-1.795.977-4.08 1.302-6.201.326-2.285.651-4.406 1.14-6.69.814-4.406 1.465-8.65 2.441-13.055.163-.326-.65-.49-.814 0zm8.627.49c-.977 4.079-1.953 8.322-3.255 12.238-1.303 4.08-2.767 7.996-3.907 12.075-.65 2.122 2.93 3.1 3.418.816.814-4.242 1.14-8.485 1.79-12.728.652-4.242 1.466-8.322 2.442-12.565-.162 0-.488 0-.488.164zm9.278 14.686c2.93.49 6.022.816 9.115.49 1.302-.164 1.14-1.96 0-1.96-2.93 0-5.697 0-8.627-.489-.488 0-1.14.164-1.14.653-.162.49.164 1.142.652 1.306zm77.152-14.85c-2.442 8.16-5.86 16.318-10.254 23.662.976.489 1.953 1.142 2.929 1.631 2.93-6.853 4.883-14.36 7.162-21.54-.976-.163-1.953-.163-3.092-.326.651 4.732.162 10.117 1.953 14.686.651 1.632 1.79 3.917 3.743 4.406 1.954.49 4.07-1.142 5.046-2.61 2.605-3.427 2.442-8.323 2.93-12.402.488-5.875.814-11.912 1.139-17.787.163-2.61-3.743-2.448-4.069.163-.325 4.406-.814 8.975-.976 13.381-.326 3.916 0 7.996-.814 11.749-.163 1.142-.651 2.937-1.791 3.753-1.465 1.142-2.441-1.958-2.767-3.1-1.139-3.753-1.302-8.16-1.465-12.076-.162-1.795-2.441-1.958-3.092-.326-2.605 6.854-5.534 13.87-7.325 21.05-.488 2.122 2.605 2.774 3.256.816 3.092-8.159 5.534-16.318 7.812-24.64.489-.816-.162-.98-.325-.49zm-38.739 5.222c0-1.958-1.302-3.427-2.93-4.406-1.953-.979-4.232-.49-6.185.49-2.116.979-3.906 2.61-5.534 4.242a24.75 24.75 0 00-4.232 5.712c-1.953 3.753-2.442 9.138 1.302 12.075 4.069 3.264 9.115 1.469 13.184-.49 1.14-.49 2.279-1.142 2.93-2.284.488-.98.651-2.121.326-3.1-.489-2.611-2.93-4.08-5.209-5.222-.163.979-.163 1.958-.325 3.1 2.767-.816 5.696-1.305 8.626-1.958 1.302-.326 1.14-2.121 0-2.448-3.255-.979-6.836 0-9.929 1.469-.976.49-1.139 2.448 0 2.774 1.303.49 3.093 1.142 3.907 2.448.814 1.632-.488 2.284-1.791 2.937-2.929 1.305-6.673 2.774-9.766.979-2.93-1.795-2.604-5.874-1.465-8.485 1.303-3.1 3.581-6.038 6.348-8.16 1.465-1.142 3.256-2.284 5.209-2.284 1.465 0 3.418.98 3.744 2.611.162 1.142 1.79 1.142 1.79 0z"/></g><defs><clipPath id="clip0_123_2971"><path fill="#fff" d="M0 0h167v39H0z"/></clipPath></defs></svg>