<svg xmlns="http://www.w3.org/2000/svg" width="535" height="281" fill="none"><path d="M357.241 99.742c-11.531 42.824-86.667 75.882-177.639 75.882-.786 0-1.571-.003-2.355-.007-15.506-10.633-25.535-23.977-28.259-39.495-3.613-20.582 6.158-41.947 25.734-61.46 17.821-3.51 36.889-5.412 56.707-5.412 49.03 0 93.461 11.637 125.812 30.492z" fill="#3D618D"/><path d="M203.702 125.218c-1.198 0-2.35-.192-3.456-.576-1.091-.384-1.935-.891-2.535-1.521l.669-1.313c.583.583 1.359 1.06 2.327 1.428.968.354 1.966.53 2.995.53 1.444 0 2.527-.261 3.249-.783.722-.538 1.083-1.229 1.083-2.074 0-.645-.199-1.16-.599-1.544a3.728 3.728 0 00-1.428-.875c-.569-.216-1.36-.446-2.374-.692-1.213-.307-2.181-.599-2.903-.875a4.972 4.972 0 01-1.866-1.314c-.507-.584-.761-1.375-.761-2.373 0-.814.215-1.552.645-2.212.43-.676 1.091-1.214 1.982-1.613.891-.4 1.997-.599 3.318-.599.922 0 1.82.13 2.696.391.891.246 1.659.592 2.304 1.037l-.576 1.36a7.662 7.662 0 00-2.166-.991 7.85 7.85 0 00-2.258-.346c-1.413 0-2.481.277-3.203.83-.706.538-1.06 1.237-1.06 2.097 0 .645.192 1.167.576 1.567.4.384.891.683 1.475.898.599.2 1.398.423 2.396.669 1.183.291 2.136.583 2.858.875a4.549 4.549 0 011.866 1.291c.507.568.761 1.344.761 2.327 0 .814-.223 1.559-.669 2.235-.43.66-1.098 1.19-2.004 1.59-.907.384-2.02.576-3.342.576zm19.938-5.692h-10.139c.092 1.26.576 2.282 1.452 3.065.875.768 1.981 1.152 3.318 1.152.752 0 1.444-.13 2.073-.392a4.629 4.629 0 001.636-1.198l.922 1.06a5.167 5.167 0 01-2.028 1.475c-.798.338-1.682.507-2.649.507-1.245 0-2.351-.261-3.319-.784a5.835 5.835 0 01-2.235-2.212c-.537-.937-.806-1.997-.806-3.18 0-1.182.253-2.242.76-3.179a5.7 5.7 0 012.12-2.189c.906-.523 1.92-.784 3.042-.784 1.121 0 2.127.261 3.018.784a5.533 5.533 0 012.097 2.189c.507.921.761 1.981.761 3.179l-.023.507zm-5.853-5.253c-1.168 0-2.151.376-2.95 1.129-.783.737-1.229 1.705-1.336 2.903h8.595c-.108-1.198-.561-2.166-1.36-2.903-.783-.753-1.766-1.129-2.949-1.129zm9.206-6.291h1.636v17.098h-1.636v-17.098zm6.188 0h1.636v17.098h-1.636v-17.098zm5.289 10.139h6.037v1.428h-6.037v-1.428zm21.583-1.106h1.636v6.152c-.753.661-1.644 1.168-2.673 1.521a9.943 9.943 0 01-3.249.53c-1.613 0-3.065-.353-4.355-1.06a7.86 7.86 0 01-3.042-2.926c-.737-1.26-1.106-2.666-1.106-4.217 0-1.552.369-2.95 1.106-4.194a7.798 7.798 0 013.042-2.949c1.29-.707 2.75-1.06 4.378-1.06 1.229 0 2.358.199 3.387.599a6.63 6.63 0 012.604 1.728l-1.06 1.083c-1.275-1.26-2.896-1.889-4.862-1.889-1.306 0-2.488.291-3.548.875a6.26 6.26 0 00-2.466 2.397c-.599 1.013-.899 2.15-.899 3.41 0 1.259.3 2.396.899 3.41a6.473 6.473 0 002.466 2.396c1.044.584 2.219.876 3.525.876 1.659 0 3.065-.415 4.217-1.244v-5.438zm16.67 2.511h-10.139c.092 1.26.576 2.282 1.452 3.065.875.768 1.981 1.152 3.318 1.152.752 0 1.444-.13 2.073-.392a4.641 4.641 0 001.637-1.198l.921 1.06a5.167 5.167 0 01-2.028 1.475c-.798.338-1.682.507-2.649.507-1.245 0-2.351-.261-3.319-.784a5.835 5.835 0 01-2.235-2.212c-.537-.937-.806-1.997-.806-3.18 0-1.182.253-2.242.76-3.179a5.7 5.7 0 012.12-2.189c.907-.523 1.92-.784 3.042-.784 1.121 0 2.127.261 3.018.784a5.533 5.533 0 012.097 2.189c.507.921.761 1.981.761 3.179l-.023.507zm-5.853-5.253c-1.168 0-2.151.376-2.95 1.129-.783.737-1.229 1.705-1.336 2.903h8.595c-.108-1.198-.561-2.166-1.36-2.903-.783-.753-1.766-1.129-2.949-1.129zm15.381-1.406c1.521 0 2.727.446 3.618 1.337.906.875 1.359 2.158 1.359 3.848v7.028h-1.636v-6.867c0-1.26-.315-2.22-.945-2.88-.629-.661-1.528-.991-2.696-.991-1.305 0-2.342.392-3.11 1.175-.753.768-1.129 1.836-1.129 3.203v6.36h-1.636v-12.121h1.566v2.235a4.498 4.498 0 011.844-1.705c.799-.414 1.72-.622 2.765-.622zm128.174-45.393c2.059 0 3.672.492 4.839 1.475 1.168.983 1.752 2.335 1.752 4.055 0 1.72-.584 3.072-1.752 4.055-1.167.968-2.78 1.452-4.839 1.452h-4.332v5.093h-1.705v-16.13h6.037zm-.046 9.54c1.598 0 2.819-.346 3.664-1.037.845-.707 1.267-1.698 1.267-2.973 0-1.306-.422-2.304-1.267-2.996-.845-.706-2.066-1.06-3.664-1.06h-4.286v8.065h4.286zm11.23-3.157c.384-.814.952-1.429 1.705-1.844.768-.415 1.713-.622 2.834-.622v1.59l-.392-.023c-1.275 0-2.273.392-2.995 1.175-.722.784-1.083 1.882-1.083 3.295v6.176h-1.636v-12.12h1.567v2.373zm7.501-2.374h1.636v12.12h-1.636v-12.12zm.83-2.65a1.16 1.16 0 01-.853-.345 1.133 1.133 0 01-.345-.83c0-.307.115-.576.345-.806a1.16 1.16 0 01.853-.346c.338 0 .622.115.852.346.231.215.346.476.346.783 0 .338-.115.622-.346.853-.23.23-.514.345-.852.345zm10.382 14.886c-1.199 0-2.274-.261-3.226-.784a5.71 5.71 0 01-2.212-2.189c-.538-.952-.807-2.02-.807-3.203 0-1.182.269-2.242.807-3.18a5.71 5.71 0 012.212-2.189c.952-.522 2.027-.783 3.226-.783 1.044 0 1.974.207 2.788.622.829.4 1.482.991 1.958 1.774l-1.221.83a3.729 3.729 0 00-1.521-1.336 4.414 4.414 0 00-2.004-.461c-.876 0-1.667.2-2.374.599a4.155 4.155 0 00-1.636 1.659c-.384.722-.576 1.544-.576 2.465 0 .938.192 1.767.576 2.489.4.707.945 1.26 1.636 1.659.707.384 1.498.576 2.374.576.722 0 1.39-.146 2.004-.438a3.73 3.73 0 001.521-1.336l1.221.83a4.71 4.71 0 01-1.958 1.797c-.83.4-1.759.599-2.788.599zm18.311-5.669h-10.138c.092 1.26.576 2.282 1.451 3.065.876.768 1.982 1.152 3.318 1.152.753 0 1.444-.13 2.074-.392a4.653 4.653 0 001.636-1.198l.922 1.06a5.177 5.177 0 01-2.028 1.475c-.799.338-1.682.507-2.65.507-1.244 0-2.35-.261-3.318-.784a5.84 5.84 0 01-2.235-2.212c-.538-.937-.806-1.997-.806-3.18 0-1.182.253-2.242.76-3.18a5.694 5.694 0 012.12-2.189c.906-.522 1.92-.783 3.041-.783 1.122 0 2.128.261 3.019.783a5.534 5.534 0 012.097 2.19c.507.921.76 1.981.76 3.18l-.023.506zm-5.853-5.253c-1.167 0-2.15.376-2.949 1.129-.783.737-1.229 1.705-1.336 2.903h8.594c-.107-1.198-.56-2.166-1.359-2.903-.784-.753-1.767-1.13-2.95-1.13zM164.532 235.822c-1.198 0-2.35-.192-3.456-.576-1.091-.384-1.936-.891-2.535-1.521l.668-1.314c.584.584 1.36 1.06 2.328 1.429.967.353 1.966.53 2.995.53 1.444 0 2.527-.261 3.249-.783.722-.538 1.083-1.229 1.083-2.074 0-.645-.2-1.16-.599-1.544a3.738 3.738 0 00-1.429-.876c-.568-.215-1.359-.445-2.373-.691-1.214-.307-2.181-.599-2.903-.876a4.962 4.962 0 01-1.867-1.313c-.507-.584-.76-1.375-.76-2.373 0-.815.215-1.552.645-2.212.43-.676 1.091-1.214 1.982-1.613.891-.4 1.997-.6 3.318-.6.921 0 1.82.131 2.696.392.891.246 1.659.592 2.304 1.037l-.576 1.36a7.662 7.662 0 00-2.166-.991 7.816 7.816 0 00-2.258-.346c-1.414 0-2.481.277-3.203.83-.707.537-1.06 1.236-1.06 2.097 0 .645.192 1.167.576 1.566.399.384.891.684 1.475.899.599.2 1.398.423 2.396.668 1.183.292 2.135.584 2.857.876.738.276 1.36.707 1.867 1.29.507.569.76 1.344.76 2.328a3.98 3.98 0 01-.668 2.235c-.43.66-1.098 1.19-2.005 1.59-.906.384-2.02.576-3.341.576zm15.766-.876a3.197 3.197 0 01-1.152.645 4.72 4.72 0 01-1.405.208c-1.137 0-2.013-.308-2.627-.922-.615-.615-.922-1.482-.922-2.604v-7.327h-2.166v-1.383h2.166v-2.65h1.636v2.65h3.687v1.383h-3.687v7.235c0 .722.177 1.275.53 1.659.369.369.891.553 1.567.553.338 0 .661-.054.968-.161.322-.108.599-.261.829-.461l.576 1.175zm7.218-11.475c1.583 0 2.796.399 3.641 1.198.845.784 1.268 1.951 1.268 3.503v7.511h-1.567v-1.889c-.369.63-.914 1.121-1.636 1.475-.707.353-1.552.53-2.535.53-1.352 0-2.427-.323-3.226-.968-.799-.645-1.198-1.498-1.198-2.558 0-1.029.368-1.859 1.106-2.488.753-.63 1.943-.945 3.571-.945h3.848v-.738c0-1.044-.291-1.835-.875-2.373-.584-.553-1.436-.829-2.558-.829-.768 0-1.505.13-2.212.391a5.426 5.426 0 00-1.82 1.037l-.738-1.221c.615-.522 1.352-.922 2.212-1.198a8.406 8.406 0 012.719-.438zm-.576 11.037c.922 0 1.713-.207 2.374-.622.66-.43 1.152-1.044 1.474-1.843v-1.982h-3.802c-2.073 0-3.11.722-3.11 2.166 0 .707.269 1.267.806 1.682.538.4 1.291.599 2.258.599zm16.173-11.037c1.136 0 2.166.261 3.087.783a5.44 5.44 0 012.166 2.166c.523.937.784 2.005.784 3.203s-.261 2.266-.784 3.203a5.594 5.594 0 01-2.166 2.189c-.921.522-1.951.784-3.087.784-1.014 0-1.928-.215-2.742-.646a5.014 5.014 0 01-1.936-1.866v2.396h-1.567v-17.097h1.636v7.281c.507-.783 1.152-1.375 1.936-1.774.798-.415 1.689-.622 2.673-.622zm-.116 10.876c.845 0 1.613-.192 2.305-.576.691-.4 1.229-.96 1.613-1.682.399-.722.599-1.544.599-2.466 0-.921-.2-1.743-.599-2.465a4.001 4.001 0 00-1.613-1.659 4.52 4.52 0 00-2.305-.599c-.86 0-1.636.199-2.327.599-.676.384-1.213.937-1.613 1.659-.384.722-.576 1.544-.576 2.465 0 .922.192 1.744.576 2.466.4.722.937 1.282 1.613 1.682.691.384 1.467.576 2.327.576zm9.488-10.784h1.636v12.12h-1.636v-12.12zm.829-2.65c-.338 0-.622-.115-.852-.345a1.13 1.13 0 01-.346-.83c0-.307.115-.576.346-.806.23-.231.514-.346.852-.346.338 0 .622.115.853.346.23.215.345.476.345.783 0 .338-.115.622-.345.853-.231.23-.515.345-.853.345zm5.359-2.327h1.636v17.097h-1.636v-17.097zm6.188 4.977h1.636v12.12h-1.636v-12.12zm.83-2.65a1.16 1.16 0 01-.853-.345 1.135 1.135 0 01-.346-.83c0-.307.116-.576.346-.806.23-.231.515-.346.853-.346.337 0 .622.115.852.346.231.215.346.476.346.783 0 .338-.115.622-.346.853a1.16 1.16 0 01-.852.345zm11.741 14.033a3.197 3.197 0 01-1.152.645 4.727 4.727 0 01-1.406.208c-1.137 0-2.012-.308-2.627-.922-.614-.615-.921-1.482-.921-2.604v-7.327h-2.166v-1.383h2.166v-2.65h1.636v2.65h3.686v1.383h-3.686v7.235c0 .722.176 1.275.53 1.659.368.369.891.553 1.567.553.337 0 .66-.054.967-.161.323-.108.599-.261.83-.461l.576 1.175zm12.938-11.383l-6.06 13.572c-.492 1.137-1.06 1.943-1.705 2.42-.646.476-1.421.714-2.328.714a4.739 4.739 0 01-1.636-.277 3.549 3.549 0 01-1.313-.829l.76-1.221a3.02 3.02 0 002.212.921c.553 0 1.022-.153 1.406-.461.399-.307.768-.829 1.106-1.566l.53-1.176-5.415-12.097h1.705l4.562 10.3 4.563-10.3h1.613zM83.555 59.793l-3.687-5.184c-.414.046-.844.069-1.29.069h-4.332v5.115h-1.705v-16.13h6.037c2.058 0 3.671.492 4.839 1.475 1.167.983 1.751 2.335 1.751 4.056 0 1.26-.323 2.327-.968 3.202-.63.86-1.536 1.483-2.719 1.867l3.94 5.53h-1.866zm-5.023-6.567c1.597 0 2.819-.353 3.664-1.06.844-.707 1.267-1.697 1.267-2.972 0-1.306-.422-2.305-1.267-2.996-.845-.707-2.067-1.06-3.664-1.06h-4.286v8.088h4.286zM99.4 54.24H89.262c.092 1.26.576 2.281 1.451 3.064.876.768 1.982 1.153 3.319 1.153a5.36 5.36 0 002.073-.392 4.653 4.653 0 001.636-1.198l.922 1.06a5.174 5.174 0 01-2.028 1.474c-.799.338-1.682.507-2.65.507-1.244 0-2.35-.26-3.318-.783a5.835 5.835 0 01-2.235-2.212c-.537-.937-.806-1.997-.806-3.18s.253-2.243.76-3.18a5.697 5.697 0 012.12-2.189c.906-.522 1.92-.783 3.042-.783 1.121 0 2.127.26 3.018.783a5.534 5.534 0 012.097 2.189c.507.922.76 1.982.76 3.18l-.023.507zm-5.852-5.254c-1.168 0-2.151.377-2.95 1.13-.783.737-1.229 1.704-1.336 2.903h8.595c-.108-1.199-.561-2.166-1.36-2.904-.783-.753-1.766-1.129-2.95-1.129zm12.454 10.922a9.661 9.661 0 01-2.834-.415c-.891-.291-1.59-.652-2.097-1.083l.738-1.29c.507.4 1.144.73 1.912.99a7.815 7.815 0 002.397.37c1.106 0 1.92-.17 2.442-.507.538-.354.807-.845.807-1.475 0-.445-.146-.791-.438-1.037-.292-.261-.661-.453-1.106-.576-.446-.138-1.037-.269-1.774-.392-.984-.184-1.775-.368-2.374-.553a3.664 3.664 0 01-1.544-.99c-.414-.461-.622-1.099-.622-1.913 0-1.014.423-1.843 1.267-2.489.845-.645 2.021-.968 3.526-.968.783 0 1.567.108 2.35.323.784.2 1.429.469 1.936.807l-.714 1.313c-.999-.691-2.189-1.037-3.572-1.037-1.045 0-1.836.184-2.373.553-.523.369-.784.853-.784 1.452 0 .46.146.83.438 1.106.307.276.684.484 1.129.622.446.123 1.06.253 1.843.392.968.184 1.744.368 2.328.553a3.416 3.416 0 011.497.944c.415.446.623 1.06.623 1.844 0 1.06-.446 1.905-1.337 2.535-.875.614-2.097.921-3.664.921zm18.947-12.235v12.12h-1.567v-2.212a4.564 4.564 0 01-1.774 1.728c-.753.4-1.613.6-2.581.6-1.582 0-2.834-.439-3.756-1.314-.906-.891-1.359-2.19-1.359-3.894v-7.028h1.636v6.866c0 1.275.315 2.243.945 2.904.629.66 1.528.99 2.696.99 1.275 0 2.281-.383 3.018-1.152.738-.783 1.106-1.866 1.106-3.249v-6.36h1.636zm4.582-4.977h1.636v17.097h-1.636V42.696zm12.616 16.36a3.213 3.213 0 01-1.152.645 4.712 4.712 0 01-1.406.207c-1.136 0-2.012-.307-2.626-.922-.615-.614-.922-1.482-.922-2.603v-7.328h-2.166v-1.382h2.166v-2.65h1.636v2.65h3.687v1.382h-3.687v7.236c0 .722.177 1.275.53 1.659.369.368.891.553 1.567.553.338 0 .66-.054.968-.162a2.4 2.4 0 00.829-.46l.576 1.175z" fill="#fff"/><path d="M358.193 88.212c0 23.882-19.842 45.644-52.248 61.466-32.374 15.805-77.132 25.595-126.598 25.595-49.466 0-94.225-9.79-126.598-25.595C20.342 133.856.5 112.094.5 88.212c0-23.882 19.842-45.644 52.249-61.466C85.122 10.941 129.88 1.151 179.347 1.151c49.466 0 94.224 9.79 126.598 25.595 32.406 15.822 52.248 37.584 52.248 61.466z" stroke="#fff"/><path d="M533.327 68.616c4.58 26.09-12.575 53.59-44.333 76.959-31.729 23.349-77.905 42.466-131.008 51.788-53.103 9.322-103.03 7.076-140.815-4.07-37.818-11.155-63.314-31.167-67.894-57.257-4.58-26.091 12.575-53.59 44.333-76.96 31.729-23.348 77.905-42.465 131.008-51.787 53.103-9.322 103.03-7.076 140.815 4.07 37.818 11.155 63.314 31.166 67.894 57.257z" stroke="#fff"/><path d="M409.655 175.005c0 29.021-19.907 55.384-52.284 74.519-32.366 19.129-77.111 30.976-126.563 30.976-49.451 0-94.197-11.847-126.563-30.976-32.377-19.135-52.283-45.498-52.283-74.519 0-29.021 19.906-55.384 52.283-74.519 32.366-19.129 77.112-30.976 126.563-30.976 49.452 0 94.197 11.847 126.563 30.976 32.377 19.135 52.284 45.498 52.284 74.519z" stroke="#fff"/></svg>