<svg xmlns="http://www.w3.org/2000/svg" width="178" height="179" fill="none"><path d="M176.398 95.288l-6.14-.642-.844 8.085-1.429-.149.844-8.085-6.631-.693.173-1.653L178 93.784l-1.12 10.721-1.429-.15.947-9.067zm-6.176 19.471c-.47 1.468-1.201 2.476-2.194 3.022-.978.552-2.186.597-3.626.135l-6.969-2.233.465-1.454 1.753.561c-.474-.529-.768-1.181-.882-1.956-.117-.761-.03-1.598.262-2.51.402-1.255 1.021-2.157 1.857-2.707.836-.549 1.746-.666 2.729-.351.955.306 1.615.895 1.98 1.766.361.886.299 2.085-.185 3.596l-1.144 3.571.684.219c.97.311 1.79.275 2.463-.106.686-.378 1.196-1.087 1.53-2.128a6.18 6.18 0 00.294-2.169 5.295 5.295 0 00-.421-1.998l1.352-.321c.302.726.453 1.529.454 2.409a8.202 8.202 0 01-.402 2.654zm-10.069-3.817c-.274.856-.317 1.652-.128 2.388.202.741.626 1.38 1.272 1.917l1.838.589 1.13-3.528c.617-1.925.255-3.102-1.085-3.531-.655-.211-1.255-.128-1.8.248-.53.38-.939 1.019-1.227 1.917zm-7.452 14.112c.564-1.022 1.292-1.817 2.186-2.384a5.578 5.578 0 012.909-.857c1.065-.01 2.102.263 3.111.82 1.009.556 1.787 1.285 2.333 2.185.547.899.822 1.872.827 2.918-.003 1.058-.286 2.099-.85 3.121-.491.892-1.106 1.587-1.843 2.086a4.441 4.441 0 01-2.435.837l-.133-1.433a3.64 3.64 0 001.856-.669 4.292 4.292 0 001.336-1.493c.412-.747.614-1.517.606-2.308a4.043 4.043 0 00-.645-2.177c-.435-.667-1.046-1.218-1.832-1.652-.8-.441-1.598-.667-2.394-.68a4.249 4.249 0 00-2.186.616c-.66.422-1.196 1.006-1.608 1.754a4.49 4.49 0 00-.57 1.916c-.04.662.102 1.304.425 1.927l-1.283.652a4.588 4.588 0 01-.611-2.518c.05-.895.317-1.782.801-2.661zm-7.493 19.338l6.405-7.522c-.993-.728-2.056-1.014-3.19-.86-1.123.165-2.107.743-2.951 1.734a5.237 5.237 0 00-1.019 1.786 4.537 4.537 0 00-.145 1.971l-1.368.014a5.037 5.037 0 01.187-2.436c.253-.806.686-1.568 1.297-2.286.786-.923 1.679-1.579 2.677-1.967a5.685 5.685 0 013.053-.261c1.035.193 1.991.664 2.868 1.411.877.747 1.503 1.605 1.878 2.573.365.98.46 1.965.285 2.956-.185 1.003-.632 1.92-1.34 2.752-.709.832-1.538 1.414-2.488 1.745a5.39 5.39 0 01-2.948.172c-1.004-.206-1.95-.687-2.839-1.445l-.362-.337zm7.594-1.023c.738-.866 1.08-1.833 1.026-2.902-.052-1.047-.489-1.989-1.31-2.826l-5.429 6.377c.957.678 1.961.953 3.013.826 1.053-.106 1.953-.597 2.7-1.475zm-13.185 14.176c-.884.668-1.837 1.07-2.86 1.205-1.015.148-2 .011-2.956-.411-.957-.422-1.787-1.098-2.491-2.03-.703-.932-1.127-1.915-1.272-2.951a5.458 5.458 0 01.398-2.974c.409-.948 1.056-1.756 1.94-2.423.788-.596 1.624-.966 2.51-1.11a4.885 4.885 0 012.601.314l-1.408-1.863 1.218-.921 10.043 13.293-1.272.962-4.277-5.662c.066.907-.088 1.746-.462 2.517-.377.792-.948 1.477-1.712 2.054zm-6.299-8.523a4.546 4.546 0 00-1.453 1.801 4.051 4.051 0 00-.266 2.256c.114.796.442 1.552.983 2.269.541.716 1.179 1.238 1.914 1.565.723.335 1.465.45 2.228.342a4.414 4.414 0 002.143-.888c.669-.506 1.154-1.117 1.457-1.833.3-.696.393-1.442.279-2.238-.125-.787-.459-1.539-1-2.255-.542-.717-1.174-1.243-1.896-1.579a4.241 4.241 0 00-2.242-.36c-.763.108-1.479.414-2.147.92zm-14.423 6.807c1.038-.466 2.077-.655 3.118-.565a5.729 5.729 0 012.85 1.082c.852.618 1.514 1.453 1.987 2.504.472 1.052.657 2.101.553 3.149a5.568 5.568 0 01-1.091 2.83c-.624.838-1.454 1.491-2.492 1.957-1.037.467-2.077.655-3.118.566a5.42 5.42 0 01-2.82-1.071c-.852-.618-1.514-1.453-1.986-2.504-.473-1.052-.658-2.101-.554-3.149a5.569 5.569 0 011.061-2.841c.624-.839 1.455-1.491 2.492-1.958zm.58 1.29c-.764.344-1.37.822-1.817 1.433a4.038 4.038 0 00-.761 2.14c-.053.795.104 1.602.473 2.422.368.819.867 1.473 1.497 1.961a3.894 3.894 0 002.096.83c.76.085 1.522-.045 2.286-.388.765-.344 1.374-.832 1.829-1.463a4.084 4.084 0 00.77-2.119c.053-.795-.104-1.603-.473-2.422-.368-.819-.867-1.473-1.497-1.961a4.248 4.248 0 00-2.105-.851c-.767-.065-1.533.075-2.298.418zm-15.25 3.496c1.112-.239 2.167-.205 3.167.101a5.736 5.736 0 012.559 1.656c.704.783 1.177 1.738 1.418 2.865.242 1.127.203 2.192-.118 3.194a5.578 5.578 0 01-1.66 2.539c-.785.689-1.734 1.153-2.847 1.392-1.112.238-2.167.205-3.167-.101a5.422 5.422 0 01-2.532-1.639c-.704-.783-1.177-1.738-1.419-2.865-.241-1.127-.202-2.192.119-3.195a5.573 5.573 0 011.633-2.555c.786-.689 1.734-1.153 2.847-1.392zm.296 1.383c-.819.176-1.512.516-2.077 1.02a4.04 4.04 0 00-1.192 1.933c-.219.766-.234 1.589-.045 2.467.188.878.539 1.622 1.052 2.232a3.907 3.907 0 001.876 1.251c.726.242 1.498.275 2.317.099.82-.176 1.518-.525 2.095-1.046a4.094 4.094 0 001.197-1.911c.218-.767.233-1.589.045-2.467-.188-.878-.539-1.622-1.053-2.232a4.257 4.257 0 00-1.88-1.273c-.737-.224-1.515-.249-2.335-.073zm-15.807 6.251l2.793-2.549.013-3.368 1.594.006L93.05 179l-1.594-.006.044-11.295-7.074 6.417-1.976-.007 5.07-4.809-5.495-7.005 1.953.008 4.736 5.946zm-28.452-11.72l1.378 2.808c1.706-.941 3.59-1.077 5.655-.407.968.314 1.785.753 2.453 1.316.648.572 1.093 1.212 1.335 1.921a3.447 3.447 0 01-.004 2.194 3.954 3.954 0 01-1.637 2.136c-.8.527-2.01.961-3.631 1.3.471.972.759 1.758.863 2.358.1.615.055 1.214-.135 1.798-.31.954-.9 1.612-1.773 1.974-.873.362-1.886.356-3.039-.019-1.067-.346-1.829-.885-2.284-1.615-.456-.73-.533-1.558-.233-2.483.24-.741.707-1.329 1.399-1.766.688-.422 1.759-.79 3.214-1.104l-2.727-5.561c-.72.664-1.366 1.517-1.94 2.558l-1.113-.786c.704-1.251 1.518-2.254 2.44-3.009l-1.422-2.894 1.2-.719zm1.833 16.247c.74.241 1.383.245 1.93.013.534-.236.9-.66 1.098-1.272.143-.442.166-.899.067-1.371-.098-.473-.371-1.16-.818-2.06-1.285.275-2.206.566-2.762.874-.556.307-.92.724-1.09 1.251-.185.57-.139 1.081.14 1.533.273.466.751.811 1.435 1.032zm4.706-12.614c-1.652-.536-3.172-.408-4.562.385l3.002 6.097c1.398-.285 2.413-.625 3.044-1.018.617-.398 1.034-.932 1.251-1.601.263-.811.149-1.573-.344-2.284-.512-.701-1.31-1.227-2.391-1.579zm-25.745 3.902l-1.392-.908 8.581-13.168 1.392.907-8.581 13.169zM29.16 144.127l-1.151-1.103 4.145-4.331c.975.043 1.943.286 2.905.731a9.665 9.665 0 012.644 1.817c1.135 1.087 1.919 2.314 2.35 3.681a7.648 7.648 0 01.17 4.109c-.33 1.384-1.017 2.622-2.063 3.714-1.045 1.093-2.246 1.828-3.604 2.207a7.595 7.595 0 01-4.127.027c-1.384-.372-2.65-1.107-3.795-2.205-.865-.828-1.525-1.729-1.98-2.704a6.458 6.458 0 01-.669-2.971l1.476-.048c.049 1.746.765 3.281 2.149 4.606.919.88 1.948 1.472 3.087 1.775a6.101 6.101 0 003.35-.025c1.104-.31 2.08-.909 2.93-1.795.848-.887 1.403-1.889 1.665-3.007a6.317 6.317 0 00-.121-3.348c-.342-1.115-.972-2.113-1.891-2.992-1.168-1.119-2.436-1.774-3.806-1.966l-3.664 3.828zm-11.57-24.509l3.913 7.835 4.598-.19.773 1.547-17.269.598-.732-1.466 10.846-13.455.783 1.567-2.913 3.564zm-.935 1.145l-5.865 7.149 9.237-.4-3.372-6.749zM0 103.628l16.245-3.682.338 1.489-2.277.516c.88.292 1.61.779 2.195 1.46.58.667.98 1.482 1.198 2.445.245 1.081.218 2.115-.08 3.104a5.458 5.458 0 01-1.613 2.53c-.778.698-1.736 1.176-2.875 1.434-1.138.258-2.209.24-3.212-.055a5.296 5.296 0 01-2.524-1.592c-.695-.763-1.164-1.685-1.41-2.766-.21-.934-.204-1.818.022-2.652a4.808 4.808 0 011.264-2.244l-6.919 1.568L0 103.628zm16.29 2.41c-.182-.803-.528-1.485-1.038-2.045a4.04 4.04 0 00-1.946-1.17c-.772-.224-1.596-.237-2.471-.039-.876.199-1.614.566-2.214 1.101a3.894 3.894 0 00-1.23 1.89c-.233.728-.26 1.494-.077 2.297.185.818.542 1.512 1.07 2.083a4.08 4.08 0 001.923 1.176c.77.209 1.591.215 2.467.016.876-.198 1.616-.558 2.219-1.078a4.25 4.25 0 001.25-1.895c.217-.74.232-1.519.047-2.336zM3.76 83.904l11.868 5.118.019 1.639L3.9 96.029l-.02-1.661 10.006-4.54-10.108-4.352-.019-1.572zm9.01-15.689l-1.888 9.698c1.221.146 2.288-.126 3.2-.818.898-.694 1.471-1.68 1.72-2.96.14-.72.144-1.405.012-2.056a4.535 4.535 0 00-.841-1.788l1.185-.684a5.042 5.042 0 011.032 2.214c.175.827.172 1.703-.008 2.63-.232 1.19-.688 2.199-1.367 3.027a5.684 5.684 0 01-2.532 1.726c-.996.34-2.06.4-3.19.18-1.132-.22-2.098-.66-2.9-1.32a5.552 5.552 0 01-1.699-2.436c-.33-.964-.391-1.982-.183-3.055.21-1.073.646-1.987 1.312-2.742a5.391 5.391 0 012.483-1.598c.976-.313 2.037-.358 3.183-.135l.48.117zm-6.114 4.62c-.218 1.117-.04 2.127.53 3.031.56.887 1.402 1.493 2.528 1.82l1.6-8.222c-1.166-.12-2.176.133-3.03.76-.865.609-1.408 1.48-1.628 2.61zm4.784-13.103c-.605-.636-.962-1.369-1.074-2.2-.106-.843.039-1.775.434-2.793l1.444.56-.159.348c-.45 1.158-.445 2.204.012 3.136.457.932 1.327 1.647 2.61 2.146l5.61 2.177-.577 1.486L8.732 60.32l.552-1.424 2.155.837zm14.93-10.547c.088.393.086.822-.005 1.287a4.597 4.597 0 01-.499 1.291c-.546.964-1.226 1.56-2.042 1.785-.816.227-1.7.07-2.65-.468l-6.212-3.518-1.04 1.837-1.172-.664 1.04-1.837-2.247-1.272.785-1.388 2.247 1.273 1.77-3.127 1.172.664-1.77 3.126 6.134 3.474c.612.347 1.166.463 1.661.347.49-.135.896-.49 1.22-1.063a2.84 2.84 0 00.329-.898c.063-.325.066-.634.007-.925l1.273.076zm-6.456-10.06l.947-1.283 9.498 7.018-.947 1.282-9.498-7.017zm-1.597-2.185c-.195.265-.45.421-.764.468a1.102 1.102 0 01-.85-.21 1.077 1.077 0 01-.432-.737 1.13 1.13 0 01.223-.868 1.13 1.13 0 01.764-.469c.302-.056.573.005.814.183.265.196.42.45.468.765a1.13 1.13 0 01-.223.868zm18.033 1.09a9.408 9.408 0 01-2.214 1.7c-.81.424-1.536.667-2.18.73l-.402-1.392c.623-.083 1.287-.305 1.99-.664a7.614 7.614 0 001.885-1.425c.751-.773 1.185-1.457 1.304-2.052.118-.615-.043-1.137-.483-1.565-.312-.302-.652-.435-1.022-.398-.38.027-.765.154-1.153.382-.4.218-.892.542-1.479.974-.796.563-1.462.99-1.997 1.284a3.569 3.569 0 01-1.74.406c-.604-.023-1.19-.31-1.76-.863-.708-.689-1-1.547-.878-2.576.122-1.029.695-2.07 1.717-3.122a8.62 8.62 0 011.82-1.424c.672-.412 1.298-.68 1.878-.805l.433 1.391c-1.16.229-2.21.826-3.15 1.793-.708.73-1.116 1.408-1.224 2.034-.097.616.064 1.127.483 1.534.322.313.679.461 1.07.445a2.91 2.91 0 001.201-.367 20.52 20.52 0 001.525-1.023c.786-.551 1.442-.968 1.967-1.251a3.33 3.33 0 011.677-.406c.592.013 1.163.285 1.71.817.74.72 1.029 1.605.864 2.656-.165 1.029-.779 2.091-1.843 3.186zm-.87-15.339l1.25-.989 7.324 9.266-1.25.988-7.324-9.265zm-.967-2.527a1.129 1.129 0 01-.86.251 1.102 1.102 0 01-.766-.425 1.078 1.078 0 01-.223-.826 1.13 1.13 0 01.443-.78c.258-.204.545-.287.86-.25.306.025.552.155.738.39.204.258.288.545.25.86a1.13 1.13 0 01-.442.78zm13.704-6.097c1.297-.716 2.536-.903 3.715-.562 1.185.32 2.175 1.201 2.97 2.643l3.308 5.997-1.396.77-3.231-5.859c-.593-1.075-1.313-1.746-2.162-2.013-.848-.267-1.77-.126-2.766.424-1.114.614-1.814 1.437-2.1 2.467-.281 1.01-.1 2.098.544 3.264l2.993 5.427-1.396.77-5.704-10.342 1.337-.738 1.052 1.907c.033-.838.29-1.613.77-2.322.486-.73 1.175-1.341 2.066-1.833zM71.434 5.44l2.75 10.004c.532 1.934.45 3.494-.25 4.68-.679 1.196-1.971 2.056-3.876 2.58-1.054.29-2.1.408-3.14.352-1.021-.045-1.903-.26-2.645-.646l.457-1.384c.684.34 1.453.54 2.307.6a7.848 7.848 0 002.602-.274c1.444-.397 2.41-1.028 2.903-1.893.495-.85.548-1.983.16-3.397l-.4-1.451a4.788 4.788 0 01-1.43 2.164c-.662.585-1.462 1.007-2.4 1.265-1.067.294-2.105.331-3.112.111a5.594 5.594 0 01-2.598-1.404c-.725-.717-1.234-1.61-1.528-2.677-.294-1.068-.31-2.088-.05-3.06a5.433 5.433 0 011.52-2.515c.74-.7 1.65-1.2 2.732-1.497.967-.266 1.893-.311 2.78-.136a4.895 4.895 0 012.347 1.17l-.6-2.186 1.471-.405zm-3.185 11.195c.823-.227 1.518-.605 2.087-1.134a3.974 3.974 0 001.126-1.916c.2-.739.19-1.512-.033-2.32-.222-.809-.606-1.472-1.152-1.989a3.825 3.825 0 00-1.942-1.05c-.748-.182-1.541-.158-2.378.073-.823.226-1.518.604-2.087 1.133a4.011 4.011 0 00-1.132 1.895c-.186.734-.168 1.506.054 2.314.223.808.602 1.48 1.137 2.016.55.532 1.2.89 1.948 1.071.759.164 1.55.133 2.372-.093zm29.738-4.817l-8.738-.54-2.141 4.074-1.725-.106L93.523 0l1.635.101 6.2 16.133-1.747-.109-1.624-4.307zm-.521-1.382l-3.244-8.66-4.285 8.194 7.529.466zm22.008-1.184l-3.09 9.903c-.598 1.915-1.51 3.183-2.739 3.803-1.218.64-2.77.665-4.656.076a9.804 9.804 0 01-2.832-1.402c-.835-.59-1.46-1.248-1.877-1.974l1.133-.916c.391.655.93 1.239 1.617 1.751a7.85 7.85 0 002.337 1.177c1.429.446 2.584.438 3.465-.024.877-.448 1.533-1.372 1.97-2.773l.448-1.436a4.784 4.784 0 01-2.372 1.047c-.874.135-1.774.058-2.703-.232-1.057-.33-1.95-.86-2.679-1.589a5.593 5.593 0 01-1.427-2.586c-.223-.995-.169-2.02.161-3.078.329-1.058.867-1.925 1.611-2.603a5.432 5.432 0 012.638-1.293c.999-.19 2.035-.118 3.107.217.957.299 1.761.761 2.412 1.388a4.898 4.898 0 011.343 2.254l.675-2.165 1.458.455zm-8.728 7.697c.815.254 1.604.312 2.368.174a3.969 3.969 0 001.983-1.004c.568-.513.976-1.17 1.226-1.97s.285-1.565.105-2.296a3.83 3.83 0 00-1.067-1.932c-.531-.558-1.211-.967-2.04-1.225-.814-.255-1.604-.313-2.368-.175a4.01 4.01 0 00-1.976.983c-.553.517-.955 1.176-1.204 1.976-.25.8-.295 1.57-.134 2.311a4.176 4.176 0 001.061 1.954c.55.548 1.232.95 2.046 1.204zm22.616 6.708l-8.541-4.962c-.539 1.106-.631 2.204-.277 3.293.362 1.076 1.106 1.94 2.232 2.595.634.368 1.28.597 1.939.685a4.53 4.53 0 001.964-.21l.258 1.345a5.04 5.04 0 01-2.43.25c-.838-.106-1.665-.396-2.48-.87-1.049-.609-1.853-1.37-2.412-2.284a5.686 5.686 0 01-.801-2.958c.006-1.053.298-2.078.877-3.074.579-.997 1.311-1.766 2.196-2.308a5.55 5.55 0 012.857-.807c1.02.004 2.001.28 2.946.829.945.549 1.665 1.261 2.16 2.137a5.39 5.39 0 01.695 2.871c-.024 1.025-.329 2.043-.915 3.052l-.268.416zm-2.36-7.292c-.983-.571-1.996-.735-3.037-.492-1.021.238-1.87.835-2.546 1.792l7.24 4.207c.496-1.062.588-2.1.276-3.112-.292-1.018-.936-1.816-1.933-2.395zm16.108 10.261c1.089 1.005 1.658 2.121 1.707 3.348.07 1.226-.453 2.444-1.57 3.654l-4.644 5.033-1.171-1.081 4.537-4.918c.833-.902 1.242-1.797 1.227-2.687-.014-.889-.439-1.72-1.275-2.491-.935-.863-1.936-1.268-3.003-1.215-1.047.052-2.022.568-2.925 1.547l-4.203 4.554-1.171-1.081 8.009-8.68 1.122 1.036-1.477 1.6a4.373 4.373 0 012.446-.002c.846.231 1.643.692 2.391 1.383zm2.132 20.74c-.673-.954-1.069-1.957-1.188-3.01a5.576 5.576 0 01.501-2.99c.456-.964 1.155-1.777 2.097-2.442.942-.664 1.937-1.045 2.985-1.144a5.566 5.566 0 012.985.532c.95.466 1.762 1.175 2.435 2.13.586.831.943 1.688 1.07 2.57a4.437 4.437 0 01-.313 2.556l-1.346-.507a3.634 3.634 0 00.21-1.962 4.295 4.295 0 00-.759-1.855c-.491-.697-1.095-1.215-1.809-1.554a4.042 4.042 0 00-2.24-.37c-.79.1-1.552.408-2.286.925-.746.527-1.299 1.146-1.658 1.857a4.247 4.247 0 00-.402 2.235c.091.778.382 1.516.874 2.213a4.493 4.493 0 001.474 1.351 3.637 3.637 0 001.918.46l.025 1.44a4.585 4.585 0 01-2.53-.551c-.784-.436-1.465-1.064-2.043-1.884zm19.745 11.849l-14.481.09c-1.206.023-2.151-.157-2.833-.537-.682-.381-1.206-.973-1.571-1.778a4.642 4.642 0 01-.414-1.563 3.474 3.474 0 01.207-1.5l1.39.183a2.941 2.941 0 00.073 2.334c.223.491.548.845.975 1.062.434.23 1.045.347 1.836.35l1.256-.003 8.55-9.68.686 1.514-7.299 8.198 10.975-.102.65 1.432zm.728 15.903a1.871 1.871 0 11-3.743 0 1.871 1.871 0 013.743 0z" fill="#000"/></svg>