<svg width="420" height="350" fill="none" xmlns="http://www.w3.org/2000/svg"><g clip-path="url(#clip0_1002_134)"><rect y="346" width="420" height="4" rx="2" fill="#000"/><path stroke="#EBEBEB" stroke-linecap="round" d="M10.5 39.5h399m-399 240h399m-399 40l399 1m-399-81h399m-399-120h399m-399-40h399m-399 80h399m-399 40h399"/><path d="M.483 14.177c16.427 32.599 32.079 65.894 49.282 97.621a758.07 758.07 0 0014.745 26.148c1.294 2.092 4.269 2.964 5.303-.174 6.856-23.185 13.84-46.544 20.696-69.903-1.811.348-3.493.697-5.303 1.046 15.392 24.23 30.784 48.461 46.306 72.518 1.552 2.266 4.139 1.046 5.174-1.046 3.363-6.973 7.502-13.074 12.417-17.955a308.244 308.244 0 00-4.01-.523c8.408 12.725 16.686 25.625 25.223 38.351 1.552 2.266 4.268 1.22 5.303-1.046 14.228-32.25 30.785-62.757 49.281-90.648 5.433-8.193 10.995-15.864 16.686-23.534-1.811-.174-3.622-.523-5.562-.697 16.944 36.608 35.312 71.821 54.714 105.988 19.66 34.69 40.356 68.16 62.086 100.41 6.079 8.891 12.159 17.781 18.367 26.497 6.338 9.065 12.676 18.13 19.661 26.149 4.01 4.706 9.054-2.79 5.691-8.019-5.432-8.193-11.124-15.864-16.815-23.883-5.562-7.67-11.124-15.514-16.556-23.533a1837.425 1837.425 0 01-32.078-48.462A1542.46 1542.46 0 01272.5 98.898c-10.219-19.524-20.308-39.397-30.138-59.618-1.294-2.615-3.88-2.964-5.562-.698-19.79 27.718-38.028 57.527-54.067 89.254-4.398 8.89-8.796 17.78-12.805 27.02 1.811-.349 3.492-.698 5.303-1.046-8.408-12.726-16.944-25.451-25.352-38.003-.905-1.394-2.846-1.743-4.01-.523-5.82 5.927-10.865 12.9-14.875 21.093 1.682-.348 3.493-.697 5.174-1.046a6373.614 6373.614 0 00-46.306-72.866c-1.81-2.964-4.786-.698-5.562 2.091-6.726 23.534-13.452 46.893-20.178 70.427 1.682-.698 3.363-1.395 5.045-1.918-18.497-30.158-34.407-62.93-50.575-95.354-4.527-9.065-9.054-18.13-13.71-27.195-1.941-3.66-6.339 0-4.399 3.661z" fill="#51A0FF"/><path d="M402 329c9.941 0 18-8.059 18-18s-8.059-18-18-18-18 8.059-18 18 8.059 18 18 18z" fill="#fff"/><path fill-rule="evenodd" clip-rule="evenodd" d="M383.967 311.048c0 8.949 6.5 16.391 15 17.9v-13.001h-4.5v-4.999h4.5v-4.001c0-4.5 2.9-6.999 7.001-6.999 1.299 0 2.7.2 3.999.399v4.601h-2.3c-2.2 0-2.7 1.099-2.7 2.5v3.5h4.8l-.799 4.999h-4.001v13.001c8.501-1.509 15-8.949 15-17.9 0-9.955-8.1-18.1-18-18.1s-18 8.145-18 18.1z" fill="#51A0FF"/></g><defs><clipPath id="clip0_1002_134"><path fill="#fff" d="M0 0h420v350H0z"/></clipPath></defs></svg>