<svg xmlns="http://www.w3.org/2000/svg" width="961" height="320" fill="none"><rect x=".5" y=".5" width="960" height="319" rx="29.5" fill="#fff" stroke="#000"/><mask id="a" fill="#fff"><path d="M0 30C0 13.431 13.431 0 30 0h901c16.569 0 30 13.431 30 30v38H0V30z"/></mask><path d="M0 30C0 13.431 13.431 0 30 0h901c16.569 0 30 13.431 30 30v38H0V30z" fill="#000"/><path d="M-1 30C-1 12.88 12.88-1 30-1h901c17.121 0 31 13.88 31 31h-2c0-16.016-12.984-29-29-29H30C13.984 1 1 13.984 1 30h-2zm962 38H0h961zM-1 68V30C-1 12.88 12.88-1 30-1v2C13.984 1 1 13.984 1 30v38h-2zM931-1c17.121 0 31 13.88 31 31v38h-2V30c0-16.016-12.984-29-29-29v-2z" fill="#000" mask="url(#a)"/><circle cx="45" cy="34" r="10" fill="#fff"/><circle cx="80" cy="34" r="10" fill="#fff"/><circle cx="115" cy="34" r="10" fill="#fff"/></svg>