<svg xmlns="http://www.w3.org/2000/svg" width="79" height="59" fill="none"><path d="M69.99 0H8.137C3.657 0 0 3.703 0 8.241v30.32c0 4.537 3.656 8.24 8.137 8.24h15.12c.907 0 1.814.334 2.501.947L36.59 57.13a3.754 3.754 0 004.92 0l10.832-9.383a3.787 3.787 0 012.501-.947h15.12c4.48 0 8.137-3.703 8.137-8.24V8.24C78.127 3.703 74.499 0 69.99 0z" fill="#fff"/><path d="M39.137 34.996L28.64 27.09c-1.169-.863-2.088-2.032-2.56-3.396-1.922-5.624 3.758-12.111 10.05-9.3.14.056.278.14.445.224l2.562 1.336 2.561-1.336c.14-.084.279-.14.446-.223 6.292-2.84 11.971 3.647 10.05 9.299-.473 1.364-1.392 2.533-2.561 3.396l-10.496 7.907z" fill="#3D618D"/></svg>