<svg xmlns="http://www.w3.org/2000/svg" width="192" height="115" fill="none"><path d="M111.5 0l4.727 12.773L129 17.5l-12.773 4.727L111.5 35l-4.727-12.773L94 17.5l12.773-4.727L111.5 0z" fill="#fff"/><path d="M11.5 49.44l2.637 7.128.08.215.215.08L21.56 59.5l-7.127 2.637-.215.08-.08.215L11.5 69.56l-2.637-7.127-.08-.215-.216-.08L1.441 59.5l7.126-2.637.216-.08.08-.215L11.5 49.44z" fill="#fff" stroke="#fff"/><path d="M183.5 98l2.296 6.204L192 106.5l-6.204 2.296L183.5 115l-2.296-6.204L175 106.5l6.204-2.296L183.5 98z" fill="#fff"/></svg>