<svg width="355" height="465" fill="none" xmlns="http://www.w3.org/2000/svg"><g clip-path="url(#clip0_1008_140)"><path d="M8 460h329" stroke="#fff" stroke-width="5" stroke-linecap="round"/><path d="M89.5 383h-74a9.5 9.5 0 00-9.5 9.5v40a9.5 9.5 0 009.5 9.5h74a9.5 9.5 0 009.5-9.5v-40a9.5 9.5 0 00-9.5-9.5zm80-63h-40a9.5 9.5 0 00-9.5 9.5v103a9.5 9.5 0 009.5 9.5h40a9.5 9.5 0 009.5-9.5v-103a9.5 9.5 0 00-9.5-9.5zm80-83h-40a9.5 9.5 0 00-9.5 9.5v186a9.5 9.5 0 009.5 9.5h40a9.5 9.5 0 009.5-9.5v-186a9.5 9.5 0 00-9.5-9.5z" stroke="#fff"/><path opacity=".8" d="M329.5 143h-40a9.5 9.5 0 00-9.5 9.5v280a9.5 9.5 0 009.5 9.5h40a9.5 9.5 0 009.5-9.5v-280a9.5 9.5 0 00-9.5-9.5z" stroke="#fff"/><path d="M15.82 331.584c14.877-15.187 30.065-30.069 45.374-44.974 15.333-14.788 30.808-29.484 46.452-43.969 15.739-14.624 31.67-28.923 47.625-43.105 15.954-14.181 32.1-28.037 48.509-41.822a2133.611 2133.611 0 0149.514-40.562c2.045-1.601 4.186-3.341 6.231-4.942-.455-.397-1.03-.771-1.508-1.284a6550.801 6550.801 0 00-19.699 38.732c.718.468 1.414.819 2.133 1.287 6.446-13.09 13.445-25.922 19.747-39.105.363-.675-.355-1.747-1.218-1.703-8.042.328-15.919 2.076-23.653 3.918-3.796.967-7.711 1.958-11.53 2.809-3.578.805-7.182 2.099-10.951 2.578-1.441.276-.992 2.489.449 2.213 3.506-.549 7.035-.982 10.614-1.787 3.795-.968 7.71-1.959 11.506-2.926 7.709-1.959 15.42-3.917 23.437-4.361-.358-.536-.837-1.05-1.219-1.703-6.206 13.044-13.348 25.783-19.411 38.92-.628 1.209 1.577 2.239 2.205 1.03l19.412-38.92c.434-.93-.643-1.934-1.509-1.284-16.791 13.132-33.512 26.613-49.969 40.165-16.432 13.668-32.722 27.43-48.82 41.519a2084.585 2084.585 0 00-47.723 43.244c-15.619 14.602-30.975 29.273-46.14 44.272-15.165 14.999-29.875 30.395-44.585 45.791-1.854 1.926-3.707 3.854-5.441 5.758-.096.14.071.35.167.211z" fill="#fff"/><path d="M12.63 330.621c-1.37.019-2.595.738-3.366 1.853-.892 1.139-.945 2.721-.444 3.957.5 1.235 1.841 2.309 3.136 2.545 1.56.307 3.12.009 4.396-1.082 2.238-1.88 3.522-5.997 1.297-8.354-1.89-1.938-5.346-2.365-7.487-.625-2.67 2.204-2.49 6.162-.265 8.52.813.933 2.592-.134 1.852-1.323-.167-.209-.215-.442-.382-.652l-.024-.117s.047.233 0 0l-.07-.35-.143-.698c-.023-.116-.094-.466-.023-.116-.024-.117-.048-.234.049-.373-.048-.233.025-.489.098-.745.073-.255-.073.256-.024-.116-.023-.117.073-.256.05-.372.072-.257.145-.512.241-.652.097-.139.193-.279 0 0 .097-.139.193-.279.17-.395l.192-.279c.193-.279-.096.14 0 0 .097-.139.217-.163.313-.301 0 0 .12-.024.097-.14.216-.163 0 0-.12.023.096-.14.456-.208.553-.348l.12-.023.24-.046.36-.069s.36-.069.12-.022c-.24.045.12-.024.24-.047.12-.022.24-.046.384.048 0 0 .384.048.12-.023-.12.023.144.093.264.071.12-.023.144.093.264.07 0 0 .407.164.264.071-.144-.093.143.093.263.071l.288.186c.143.093-.024-.116.024.117.143.093.167.209.31.304.168.209-.023-.117.024.115.024.117.048.233.168.211.167.21 0 0 0 0l.047.232.095.466c.069.955-.295 2.235-.873 3.071-.29.419-.579.837-1.012 1.161-.313.302-.673.371-1.153.463l-.12.023c-.12.023-.24.046-.384-.047-.12.022-.144-.094-.528-.142-.407-.163-.815-.327-1.126-.631-.766-.701-1.075-1.61-.784-2.633.267-1.14 1.086-2.022 2.263-2.368.36-.069.385-.558.025-.489zm-.655-56.099c-2.846-2.064-6.377-.2-8.426 2.14-2.009 2.608-3.464 6.096-2.984 9.313.479 3.218 3.09 5.589 6.19 6.522 1.916.552 3.752.568 5.608.718 1.422.074 5.883-.277 6.143 1.465.32 2.145-4.18 3.187-5.66 3.668-.67.231-6.294 2.251-6.69 1.485-.396-.765-1.896-.418-1.618.501.358 1.455 1.661 1.682 3.023 1.355a49.424 49.424 0 006.097-1.676c2.545-.904 8.208-2.657 6.386-6.37-.793-1.531-2.649-1.681-4.09-1.889-2.153-.246-4.403-.204-6.575-.584-3.89-.549-7.211-2.956-6.844-7.114.37-3.198 4.147-10.981 8.633-8.326.75.305 1.578-.769.807-1.208zm9.031 4.755c3.155-2.496 6.11-5.374 7.388-9.111.589-1.724.96-3.966.148-5.631-.674-1.684-2.729-2.217-4.307-1.448-1.854.807-2.541 2.819-2.834 4.639a29.773 29.773 0 00-.205 7.145 30.7 30.7 0 001.473 7.046c.714 1.953 1.96 3.694 4.133 4.073 5.076.93 8.167-3.882 9.404-7.887.569-1.859-2.276-2.966-2.983-1.087-.924 2.319-1.965 5.749-4.846 6.29-1.382.194-2.449-.341-3.063-1.623-.812-1.665-1.21-3.388-1.47-5.131-.28-1.876-.539-3.619-.542-5.534.036-1.648.033-3.563.662-5.02.67-1.188 2.524-1.996 3.08-.158.357 1.455.025 3.007-.328 4.425-1.06 3.296-3.603 6.116-6.224 8.399-.651.366.021 1.092.514.613zm57.668-55.028c3.155-2.495 6.112-5.373 7.388-9.11.59-1.724.96-3.966.148-5.631-.674-1.685-2.728-2.217-4.306-1.449-1.854.807-2.542 2.82-2.834 4.64a29.787 29.787 0 00-.206 7.145 30.72 30.72 0 001.473 7.046c.715 1.952 1.961 3.693 4.134 4.072 5.075.931 8.166-3.882 9.403-7.887.57-1.859-2.276-2.965-2.983-1.087-.924 2.319-1.964 5.75-4.846 6.29-1.382.194-2.448-.34-3.062-1.622-.813-1.665-1.21-3.389-1.47-5.131-.28-1.877-.54-3.619-.543-5.535.037-1.647.033-3.563.662-5.019.67-1.189 2.524-1.996 3.08-.158.358 1.455.025 3.007-.328 4.424-1.06 3.297-3.602 6.117-6.224 8.4-.532.212.002.958.514.612zm-44.765 28.038c1.23 3.522 2.322 7.063 3.434 10.739.536 1.704 1.072 3.407 1.628 5.245.536 1.704.657 3.466 1.864 4.939.713.995 1.994.131 1.993-.827-.122-1.762-1.21-3.388-1.885-5.072-.812-1.666-1.486-3.35-2.16-5.034-1.349-3.369-2.835-6.719-4.183-10.087-.1-.67-.771-.439-.691.097zm6.391-3.497a139.128 139.128 0 013.217 10.223c.914 3.293 1.551 6.624 2.465 9.918.576 1.971 3.556 1.143 2.841-.81-1.328-3.235-2.933-6.431-4.4-9.646-1.466-3.216-2.656-6.47-3.866-9.858-.02-.134-.296-.095-.256.173zm12.582 3.983c.985-.96 1.833-1.899 2.68-2.839.355-.461.847-.941 1.202-1.401.354-.46.689-1.054 1.023-1.649.217-.44.157-.842-.16-1.072-.316-.229-.868-.151-1.105.156a45.456 45.456 0 01-4.669 5.581c-.374.326-.453.747-.116 1.11.178.25.77.44 1.145.114zm40.438-54.252c2.42 6.777 3.913 13.957 4.538 20.986.967-.136 1.933-.272 2.881-.542-1.333-6.107-3.634-12.08-5.776-17.937-.77.519-1.42.883-2.19 1.402 2.69 2.907 4.908 6.427 8.209 8.701 1.265.918 3.26 2.006 4.878 1.506 1.619-.501 2.465-2.399 2.521-3.912.269-3.87-2.521-7.446-4.401-10.604-2.456-4.171-5.167-8.17-7.898-12.303-1.09-1.626-3.93.141-2.84 1.767 1.86 3.023 3.742 6.18 5.74 9.184 1.842 2.89 4.077 5.587 5.524 8.668.416.899 1.248 2.698.697 3.734-.808 1.207-3.061-.666-3.851-1.239-2.412-1.988-4.648-4.685-6.706-7.134-.85-.975-2.704-.167-2.249 1.001 1.61 6.068 3.102 12.291 5.52 18.109.634 1.417 3.199.647 2.703-.789-1.907-7.122-4.19-13.918-6.905-20.79.077-.421-.455-.21-.395.192zM70.8 224.397a4.103 4.103 0 00-3.99-1.22c-1.658.232-3.018 1.518-3.786 2.994-.885 1.63-1.316 3.469-1.471 5.27a23.123 23.123 0 00.09 6.282c.657 3.466 2.914 7.254 6.923 7.65 4.443.471 7.1-3.459 8.852-6.852.55-1.035 1.122-1.937.962-3.009-.002-.958-.556-1.837-1.346-2.411-1.8-1.664-4.287-1.315-6.596-.717.535.746.91 1.378 1.445 2.123 1.379-2.109 3.093-3.854 4.63-5.849.709-.92-.438-1.991-1.365-1.587-2.644 1.191-4.535 3.646-5.716 6.138-.53 1.17.873 2.067 1.959 1.778 1.203-.443 4.044-1.252 4.6.586.258.785-.569 1.859-.904 2.454a13.62 13.62 0 01-1.476 2.397c-1.064 1.38-2.561 2.685-4.358 2.936-1.678.099-3.22-.78-4.13-2.157-2.275-2.964-2.422-7.734-1.658-11.126.333-1.551.923-3.276 2.322-4.293 1.144-.845 2.802-1.078 3.949-.007.75.306 1.716-.788 1.063-1.38z" fill="#fff"/><g clip-path="url(#clip1_1008_140)" fill="#fff"><path d="M340.58 2.2l-1.712 12.704 8.576 9.621-12.765-1.781-9.609 8.483 1.712-12.703-8.576-9.621 12.765 1.781 9.609-8.483z"/><path d="M246.296 11.469l-.955 7.087-.029.215.144.162 4.785 5.368-7.122-.994-.215-.03-.162.143-5.361 4.733.955-7.087.029-.214-.145-.163-4.785-5.368 7.122.994.215.03.163-.143 5.361-4.733z" stroke="#fff"/><path d="M343.253 94.322l-.831 6.17 4.165 4.674-6.2-.865-4.667 4.12.831-6.17-4.165-4.673 6.2.865 4.667-4.12z"/></g></g><defs><clipPath id="clip0_1008_140"><path fill="#fff" d="M0 0h355v465H0z"/></clipPath><clipPath id="clip1_1008_140"><path fill="#fff" transform="rotate(36.237 213.446 374.942)" d="M0 0h181.85v108.134H0z"/></clipPath></defs></svg>