<?xml version="1.0" encoding="UTF-8"?> <svg xmlns="http://www.w3.org/2000/svg" width="50" height="50" viewBox="0 0 50 50" fill="none"> <path fill-rule="evenodd" clip-rule="evenodd" d="M25 50C38.8071 50 50 38.8071 50 25C50 11.1929 38.8071 0 25 0C11.1929 0 0 11.1929 0 25C0 38.8071 11.1929 50 25 50ZM12.818 15.0681C13.662 14.2241 14.8065 13.75 16 13.75H34C35.1935 13.75 36.338 14.2241 37.182 15.0681C38.0259 15.9119 38.5 17.0566 38.5 18.25V18.7046L25 25.9719L11.5 18.7021V18.25C11.5 17.0566 11.9741 15.9119 12.818 15.0681ZM25.5332 28.24L38.5 21.2583V31.75C38.5 32.9434 38.0259 34.0881 37.182 34.9319C36.338 35.7759 35.1935 36.25 34 36.25H16C14.8065 36.25 13.662 35.7759 12.818 34.9319C11.9741 34.0881 11.5 32.9434 11.5 31.75V21.2583L24.4668 28.24C24.5525 28.2861 24.6434 28.3208 24.7373 28.3435C24.823 28.364 24.9111 28.3745 25 28.3745C25.1862 28.3745 25.3694 28.3281 25.5332 28.24Z" fill="black"></path> </svg> 