<?xml version="1.0" encoding="UTF-8"?> <svg xmlns="http://www.w3.org/2000/svg" width="167" height="39" viewBox="0 0 167 39" fill="none"> <g clip-path="url(#clip0_191_904)"> <path d="M23.1131 10.4434C21.4855 6.5271 16.6024 6.36392 13.0215 7.83254C9.6034 9.46434 6.18527 12.0752 4.72036 15.6652C3.09268 19.4183 4.39482 23.3346 7.16188 26.2719C8.62679 27.9037 10.4172 29.0459 12.3705 30.1882C13.3471 30.8409 14.1609 31.3304 15.1375 31.9832C15.9514 32.6359 18.0673 33.7781 17.9046 35.0836C17.0907 37.8576 11.5566 36.2258 9.76617 35.8995C8.46402 35.5731 7.16188 35.2468 5.85973 34.9204C5.20866 34.7572 1.9533 34.2677 2.11607 33.2886C2.27884 32.1463 0.325619 31.9832 0.162851 33.1254C-0.325453 34.9204 1.30223 35.8995 2.76714 36.389C5.20866 37.2049 7.65018 37.6945 10.0917 38.184C12.2077 38.5104 14.6492 39.1631 16.928 38.5104C18.5556 38.0208 20.0206 36.5522 20.0206 34.7572C20.0206 32.6359 17.9046 31.3304 16.4397 30.1882C14.4864 28.7196 12.2077 27.5773 10.4172 25.9455C8.78956 24.4769 7.16188 22.8451 6.67357 20.5606C6.0225 18.4392 6.67357 16.3179 8.13848 14.5229C10.58 11.2593 18.8812 5.7112 21.811 11.2593C22.1365 12.0752 23.6014 11.4225 23.1131 10.4434Z" fill="black"></path> <path d="M29.2983 26.2718C33.8558 25.9454 38.5761 25.1295 42.3197 22.5187C44.1102 21.2132 45.7379 19.5814 46.5517 17.6233C47.3655 15.5019 46.3889 13.3806 44.1102 12.5647C41.6687 11.7488 39.5527 13.0542 37.925 14.686C35.9718 16.6442 34.3441 18.7655 33.042 21.05C31.577 23.3346 30.4377 25.7823 29.6238 28.3931C28.81 30.8408 27.9961 33.4517 29.6238 35.8994C31.0887 38.0208 33.8558 39.163 36.2973 38.9998C39.3899 38.8367 42.3197 37.0417 44.7613 35.2467C46.5517 33.7781 44.924 30.6777 42.808 31.9831C40.2037 33.7781 36.4601 36.7153 33.2047 34.594C31.577 33.4517 31.9026 31.6567 32.3909 30.0249C33.042 28.0668 33.693 26.1086 34.6696 24.1505C35.6462 22.3555 36.6228 20.5605 37.925 18.9287C39.0644 17.4601 40.3665 15.5019 41.9942 14.8492C42.6453 14.5229 43.6219 14.5229 44.2729 15.0124C45.2496 15.6651 44.7613 16.8074 44.2729 17.6233C43.4591 19.0919 42.157 20.3973 40.8548 21.2132C37.5995 23.4977 33.5303 24.4768 29.6238 25.1295C28.4844 25.1295 28.4844 26.2718 29.2983 26.2718Z" fill="black"></path> <path d="M123.704 25.4561C128.098 25.2929 132.819 24.6402 136.725 22.3557C138.678 21.2134 140.469 19.4184 141.445 17.2971C142.259 15.1758 141.283 13.0544 139.167 12.2385C136.725 11.4226 134.446 12.7281 132.819 14.3599C130.866 16.1548 129.238 18.2762 127.773 20.3975C126.308 22.5189 125.006 24.9666 124.029 27.4142C123.053 29.8619 122.076 32.636 123.541 35.2469C124.843 37.3682 127.61 38.6737 130.052 38.6737C133.144 38.6737 136.074 37.0419 138.678 35.2469C140.632 33.7783 138.841 30.841 136.725 31.9833C133.958 33.6151 130.052 36.5523 126.959 34.1046C125.331 32.9624 125.82 31.0042 126.471 29.3724C127.122 27.4143 127.936 25.6193 129.075 23.8243C130.052 22.0293 131.191 20.3975 132.493 18.7657C133.633 17.2971 135.097 15.5021 136.888 14.8494C137.539 14.6862 138.516 14.6862 139.004 15.1758C139.818 15.9917 139.167 17.1339 138.678 17.7866C137.702 19.0921 136.562 20.2343 135.097 21.2134C131.679 23.3348 127.61 24.1507 123.704 24.477C122.89 24.477 122.89 25.4561 123.704 25.4561Z" fill="black"></path> <path d="M60.0615 11.912C59.0848 16.1547 57.9455 20.3973 56.8061 24.64C56.3178 26.7614 55.6667 28.8827 55.0156 30.8409C54.3646 32.9622 53.388 35.0835 53.5507 37.2049C53.7135 38.5103 55.3412 38.9999 55.9922 37.8576C56.9689 36.0626 56.9689 33.7781 57.2944 31.6568C57.6199 29.3722 57.9455 27.2509 58.4338 24.9664C59.2476 20.5605 59.8987 16.3178 60.8753 11.912C61.0381 11.5856 60.2242 11.4225 60.0615 11.912Z" fill="black"></path> <path d="M68.6881 12.4017C67.7115 16.4812 66.7349 20.7239 65.4328 24.6402C64.1306 28.7197 62.6657 32.636 61.5264 36.7155C60.8753 38.8369 64.4562 39.8159 64.9445 37.5314C65.7583 33.2887 66.0839 29.0461 66.7349 24.8034C67.386 20.5607 68.1998 16.4812 69.1765 12.2385C69.0137 12.2385 68.6881 12.2385 68.6881 12.4017Z" fill="black"></path> <path d="M77.9659 27.0878C80.8957 27.5773 83.9883 27.9037 87.0809 27.5773C88.383 27.4142 88.2203 25.6192 87.0809 25.6192C84.1511 25.6192 81.384 25.6192 78.4542 25.1296C77.9659 25.1296 77.3148 25.2928 77.3148 25.7824C77.152 26.2719 77.4776 26.9246 77.9659 27.0878Z" fill="black"></path> <path d="M155.118 12.2384C152.676 20.3974 149.258 28.5564 144.864 35.8995C145.84 36.389 146.817 37.0418 147.793 37.5313C150.723 30.6777 152.676 23.1715 154.955 15.9915C153.979 15.8284 153.002 15.8284 151.863 15.6652C152.514 20.3974 152.025 25.7823 153.816 30.3514C154.467 31.9832 155.606 34.2677 157.559 34.7572C159.513 35.2468 161.629 33.615 162.605 32.1464C165.21 28.7196 165.047 23.8242 165.535 19.7447C166.023 13.8702 166.349 7.83255 166.675 1.95807C166.837 -0.652809 162.931 -0.489629 162.605 2.12125C162.28 6.52711 161.791 11.0961 161.629 15.502C161.303 19.4183 161.629 23.4978 160.815 27.251C160.652 28.3932 160.164 30.1882 159.024 31.0041C157.559 32.1464 156.583 29.0459 156.257 27.9037C155.118 24.1505 154.955 19.7447 154.792 15.8284C154.63 14.0334 152.351 13.8702 151.7 15.502C149.096 22.3556 146.166 29.3723 144.375 36.5522C143.887 38.6736 146.98 39.3263 147.631 37.3681C150.723 29.2091 153.165 21.0501 155.444 12.7279C155.932 11.912 155.281 11.7489 155.118 12.2384Z" fill="black"></path> <path d="M116.379 17.46C116.379 15.5019 115.077 14.0333 113.45 13.0542C111.496 12.0751 109.218 12.5646 107.264 13.5437C105.148 14.5228 103.358 16.1546 101.73 17.7864C100.103 19.4182 98.6376 21.3764 97.4982 23.4977C95.545 27.2508 95.0567 32.6358 98.8004 35.573C102.87 38.8366 107.915 37.0416 111.985 35.0835C113.124 34.5939 114.263 33.9412 114.914 32.799C115.403 31.8199 115.565 30.6776 115.24 29.6985C114.752 27.0877 112.31 25.619 110.031 24.4768C109.869 25.4559 109.869 26.4349 109.706 27.5772C112.473 26.7613 115.403 26.2718 118.333 25.619C119.635 25.2927 119.472 23.4977 118.333 23.1713C115.077 22.1923 111.496 23.1713 108.404 24.64C107.427 25.1295 107.264 27.0877 108.404 27.414C109.706 27.9036 111.496 28.5563 112.31 29.8617C113.124 31.4935 111.822 32.1462 110.52 32.799C107.59 34.1044 103.846 35.573 100.754 33.778C97.8238 31.9831 98.1493 27.9036 99.2887 25.2927C100.591 22.1923 102.87 19.255 105.637 17.1337C107.102 15.9914 108.892 14.8492 110.845 14.8492C112.31 14.8492 114.263 15.8282 114.589 17.46C114.752 18.6023 116.379 18.6023 116.379 17.46Z" fill="black"></path> </g> <defs> <clipPath id="clip0_191_904"> <rect width="167" height="39" fill="white"></rect> </clipPath> </defs> </svg> 