<?xml version="1.0" encoding="UTF-8"?> <svg xmlns="http://www.w3.org/2000/svg" width="50" height="50" viewBox="0 0 50 50" fill="none"> <path fill-rule="evenodd" clip-rule="evenodd" d="M25 50C38.8071 50 50 38.8071 50 25C50 11.1929 38.8071 0 25 0C11.1929 0 0 11.1929 0 25C0 38.8071 11.1929 50 25 50ZM13.4745 31.7087L11.6719 38.3327L18.2932 36.526C20.3287 37.7129 22.6436 38.3365 24.9999 38.3327C32.3639 38.3327 38.3332 32.3633 38.3332 24.9993C38.3332 17.6353 32.3639 11.666 24.9999 11.666C17.6359 11.666 11.6665 17.6353 11.6665 24.9993C11.6627 27.3567 12.2867 29.6725 13.4745 31.7087ZM19.6932 18.8767C19.8474 18.7994 20.0157 18.754 20.1879 18.7433V18.742C20.3667 18.7296 20.5461 18.7278 20.7252 18.7367C20.7972 18.742 20.8692 18.75 20.9412 18.758C21.1532 18.7833 21.3865 18.9113 21.4652 19.09C21.8625 19.9913 22.2492 20.8993 22.6225 21.8113C22.7052 22.0127 22.6559 22.2727 22.4985 22.526C22.3904 22.6978 22.2733 22.8638 22.1479 23.0233C21.9972 23.2153 21.6732 23.57 21.6732 23.57C21.6732 23.57 21.5412 23.7273 21.5919 23.9233C21.6257 24.0198 21.6714 24.1116 21.7279 24.1967L21.8065 24.3233C22.1848 24.9434 22.642 25.5117 23.1665 26.014C23.2096 26.0557 23.2524 26.0977 23.2953 26.1398C23.4114 26.2539 23.5278 26.3682 23.6505 26.4753C24.2748 27.0258 24.9811 27.4757 25.7439 27.8087L25.7505 27.8113C25.7833 27.8256 25.8115 27.838 25.8389 27.8501C25.9061 27.8797 25.9691 27.9074 26.0865 27.9567C26.1692 27.992 26.2543 28.0215 26.3412 28.0447C26.4309 28.0678 26.5255 28.0636 26.6129 28.0328C26.7003 28.0019 26.7765 27.9457 26.8319 27.8713C27.7959 26.7034 27.8852 26.6273 27.8919 26.6273V26.63C27.9589 26.5675 28.0386 26.52 28.1255 26.4908C28.2125 26.4616 28.3046 26.4513 28.3959 26.4607C28.4772 26.4643 28.5572 26.4828 28.6319 26.5154C29.3399 26.838 30.4999 27.3433 30.4999 27.3433L31.2759 27.6913C31.4052 27.754 31.5239 27.902 31.5292 28.0447C31.5294 28.0497 31.5297 28.0549 31.5299 28.0603C31.5341 28.1506 31.5407 28.2928 31.5105 28.542C31.4679 28.8873 31.3639 29.302 31.2599 29.5194C31.1865 29.6727 31.0905 29.8074 30.9799 29.922C30.8305 30.078 30.7199 30.1727 30.5399 30.306C30.4305 30.3887 30.3732 30.426 30.3732 30.426C30.2075 30.5315 30.0371 30.6294 29.8625 30.7194C29.5193 30.9022 29.1402 31.0073 28.7519 31.0273C28.7087 31.0294 28.6656 31.0317 28.6225 31.034C28.418 31.0449 28.2143 31.0557 28.0105 31.0447L27.2519 30.9287C25.3562 30.4301 23.603 29.496 22.1319 28.2007C21.8805 27.9784 21.6442 27.7421 21.4063 27.5042C21.3602 27.4582 21.3141 27.4121 21.2679 27.366C20.0825 26.186 19.1852 24.9127 18.6399 23.71C18.3732 23.1153 18.2025 22.4793 18.1999 21.826C18.1953 21.0172 18.4604 20.23 18.9532 19.5887C18.968 19.5695 18.9826 19.5502 18.9973 19.5307C19.0796 19.4219 19.1655 19.3085 19.3012 19.1807C19.4165 19.061 19.5486 18.9586 19.6932 18.8767Z" fill="black"></path> </svg> 