<?xml version="1.0" encoding="UTF-8"?> <svg xmlns="http://www.w3.org/2000/svg" width="50" height="50" viewBox="0 0 50 50" fill="none"> <path d="M25 0C11.1667 0 0 11.1667 0 25C0 38.8333 11.1667 50 25 50C38.8333 50 50 38.8333 50 25C50 11.1667 38.8333 0 25 0ZM39.0833 11.5833L33.5 37.8333C33.4167 38.3333 32.8333 38.5833 32.3333 38.3333L23.75 32.5833L19.1667 36.9167C18.75 37.25 18.1667 37.0833 18 36.5833L15 27.25L7.08333 24C6.5 23.75 6.5 22.75 7.08333 22.5L38 10.75C38.5833 10.5833 39.1667 11 39.0833 11.5833V11.5833Z" fill="black"></path> <path d="M18.9163 33.8337L19.4163 29.0003L33.4163 15.417L16.583 26.5003" fill="black"></path> </svg> 