<?xml version="1.0" encoding="UTF-8"?> <svg xmlns="http://www.w3.org/2000/svg" width="192" height="115" viewBox="0 0 192 115" fill="none"> <path d="M111.5 0L116.227 12.7734L129 17.5L116.227 22.2266L111.5 35L106.773 22.2266L94 17.5L106.773 12.7734L111.5 0Z" fill="white"></path> <path d="M11.5 49.4408L14.1371 56.5675L14.2169 56.7831L14.4325 56.8629L21.5592 59.5L14.4325 62.1371L14.2169 62.2169L14.1371 62.4325L11.5 69.5592L8.86288 62.4325L8.7831 62.2169L8.56747 62.1371L1.44077 59.5L8.56747 56.8629L8.7831 56.7831L8.86288 56.5675L11.5 49.4408Z" fill="white" stroke="white"></path> <path d="M183.5 98L185.796 104.204L192 106.5L185.796 108.796L183.5 115L181.204 108.796L175 106.5L181.204 104.204L183.5 98Z" fill="white"></path> </svg> 