<?xml version="1.0" encoding="UTF-8"?> <svg xmlns="http://www.w3.org/2000/svg" width="535" height="281" viewBox="0 0 535 281" fill="none"> <path d="M357.241 99.7423C345.71 142.566 270.574 175.624 179.602 175.624C178.816 175.624 178.031 175.621 177.247 175.617C161.741 164.984 151.712 151.64 148.988 136.122C145.375 115.54 155.146 94.1749 174.722 74.6623C192.543 71.1514 211.611 69.25 231.429 69.25C280.459 69.25 324.89 80.8872 357.241 99.7423Z" fill="#3D618D"></path> <path d="M203.702 125.218C202.504 125.218 201.352 125.026 200.246 124.642C199.155 124.258 198.311 123.751 197.711 123.121L198.38 121.808C198.963 122.391 199.739 122.868 200.707 123.236C201.675 123.59 202.673 123.766 203.702 123.766C205.146 123.766 206.229 123.505 206.951 122.983C207.673 122.445 208.034 121.754 208.034 120.909C208.034 120.264 207.835 119.749 207.435 119.365C207.051 118.981 206.575 118.689 206.007 118.49C205.438 118.274 204.647 118.044 203.633 117.798C202.42 117.491 201.452 117.199 200.73 116.923C200.008 116.631 199.386 116.193 198.864 115.609C198.357 115.025 198.103 114.234 198.103 113.236C198.103 112.422 198.318 111.684 198.748 111.024C199.178 110.348 199.839 109.81 200.73 109.411C201.621 109.011 202.727 108.812 204.048 108.812C204.97 108.812 205.868 108.942 206.744 109.203C207.635 109.449 208.403 109.795 209.048 110.24L208.472 111.6C207.796 111.154 207.074 110.824 206.306 110.609C205.538 110.379 204.785 110.263 204.048 110.263C202.635 110.263 201.567 110.54 200.845 111.093C200.139 111.631 199.785 112.33 199.785 113.19C199.785 113.835 199.977 114.357 200.361 114.757C200.761 115.141 201.252 115.44 201.836 115.655C202.435 115.855 203.234 116.078 204.232 116.324C205.415 116.615 206.368 116.907 207.09 117.199C207.827 117.476 208.449 117.906 208.956 118.49C209.463 119.058 209.717 119.834 209.717 120.817C209.717 121.631 209.494 122.376 209.048 123.052C208.618 123.712 207.95 124.242 207.044 124.642C206.137 125.026 205.024 125.218 203.702 125.218Z" fill="white"></path> <path d="M223.64 119.526H213.501C213.593 120.786 214.077 121.808 214.953 122.591C215.828 123.359 216.934 123.743 218.271 123.743C219.023 123.743 219.715 123.613 220.344 123.351C220.974 123.075 221.52 122.676 221.98 122.153L222.902 123.213C222.365 123.858 221.689 124.35 220.874 124.688C220.076 125.026 219.192 125.195 218.225 125.195C216.98 125.195 215.874 124.934 214.906 124.411C213.954 123.874 213.209 123.136 212.671 122.199C212.134 121.262 211.865 120.202 211.865 119.019C211.865 117.837 212.118 116.777 212.625 115.84C213.148 114.903 213.854 114.173 214.745 113.651C215.651 113.128 216.665 112.867 217.787 112.867C218.908 112.867 219.914 113.128 220.805 113.651C221.696 114.173 222.395 114.903 222.902 115.84C223.409 116.761 223.663 117.821 223.663 119.019L223.64 119.526ZM217.787 114.273C216.619 114.273 215.636 114.649 214.837 115.402C214.054 116.139 213.608 117.107 213.501 118.305H222.096C221.988 117.107 221.535 116.139 220.736 115.402C219.953 114.649 218.97 114.273 217.787 114.273Z" fill="white"></path> <path d="M226.993 107.982H228.629V125.08H226.993V107.982Z" fill="white"></path> <path d="M233.181 107.982H234.817V125.08H233.181V107.982Z" fill="white"></path> <path d="M238.47 118.121H244.507V119.549H238.47V118.121Z" fill="white"></path> <path d="M260.053 117.015H261.689V123.167C260.936 123.828 260.045 124.335 259.016 124.688C257.987 125.041 256.904 125.218 255.767 125.218C254.154 125.218 252.702 124.865 251.412 124.158C250.122 123.451 249.108 122.476 248.37 121.232C247.633 119.972 247.264 118.566 247.264 117.015C247.264 115.463 247.633 114.065 248.37 112.821C249.108 111.561 250.122 110.578 251.412 109.872C252.702 109.165 254.162 108.812 255.79 108.812C257.019 108.812 258.148 109.011 259.177 109.411C260.206 109.795 261.074 110.371 261.781 111.139L260.721 112.222C259.446 110.962 257.825 110.333 255.859 110.333C254.553 110.333 253.371 110.624 252.311 111.208C251.266 111.776 250.444 112.575 249.845 113.605C249.246 114.618 248.946 115.755 248.946 117.015C248.946 118.274 249.246 119.411 249.845 120.425C250.444 121.439 251.266 122.238 252.311 122.821C253.355 123.405 254.53 123.697 255.836 123.697C257.495 123.697 258.901 123.282 260.053 122.453V117.015Z" fill="white"></path> <path d="M276.723 119.526H266.584C266.676 120.786 267.16 121.808 268.036 122.591C268.911 123.359 270.017 123.743 271.354 123.743C272.106 123.743 272.798 123.613 273.427 123.351C274.057 123.075 274.603 122.676 275.064 122.153L275.985 123.213C275.448 123.858 274.772 124.35 273.957 124.688C273.159 125.026 272.275 125.195 271.308 125.195C270.063 125.195 268.957 124.934 267.989 124.411C267.037 123.874 266.292 123.136 265.754 122.199C265.217 121.262 264.948 120.202 264.948 119.019C264.948 117.837 265.201 116.777 265.708 115.84C266.231 114.903 266.937 114.173 267.828 113.651C268.735 113.128 269.748 112.867 270.87 112.867C271.991 112.867 272.997 113.128 273.888 113.651C274.779 114.173 275.478 114.903 275.985 115.84C276.492 116.761 276.746 117.821 276.746 119.019L276.723 119.526ZM270.87 114.273C269.702 114.273 268.719 114.649 267.92 115.402C267.137 116.139 266.691 117.107 266.584 118.305H275.179C275.071 117.107 274.618 116.139 273.819 115.402C273.036 114.649 272.053 114.273 270.87 114.273Z" fill="white"></path> <path d="M286.251 112.867C287.772 112.867 288.978 113.313 289.869 114.204C290.775 115.079 291.228 116.362 291.228 118.052V125.08H289.592V118.213C289.592 116.953 289.277 115.993 288.647 115.333C288.018 114.672 287.119 114.342 285.951 114.342C284.646 114.342 283.609 114.734 282.841 115.517C282.088 116.285 281.712 117.353 281.712 118.72V125.08H280.076V112.959H281.642V115.194C282.088 114.457 282.702 113.889 283.486 113.489C284.285 113.075 285.206 112.867 286.251 112.867Z" fill="white"></path> <path d="M414.425 67.4739C416.484 67.4739 418.097 67.9655 419.264 68.9486C420.432 69.9317 421.016 71.2836 421.016 73.0041C421.016 74.7246 420.432 76.0764 419.264 77.0595C418.097 78.0273 416.484 78.5112 414.425 78.5112H410.093V83.6036H408.388V67.4739H414.425ZM414.379 77.0134C415.977 77.0134 417.198 76.6678 418.043 75.9765C418.888 75.2699 419.31 74.2791 419.31 73.0041C419.31 71.6983 418.888 70.6998 418.043 70.0085C417.198 69.3019 415.977 68.9486 414.379 68.9486H410.093V77.0134H414.379Z" fill="white"></path> <path d="M425.609 73.8566C425.993 73.0425 426.561 72.428 427.314 72.0132C428.082 71.5985 429.027 71.3911 430.148 71.3911V72.981L429.756 72.958C428.481 72.958 427.483 73.3497 426.761 74.1331C426.039 74.9166 425.678 76.0149 425.678 77.4282V83.6036H424.042V71.4833H425.609V73.8566Z" fill="white"></path> <path d="M433.11 71.4833H434.746V83.6036H433.11V71.4833ZM433.94 68.8334C433.602 68.8334 433.318 68.7182 433.087 68.4878C432.857 68.2573 432.742 67.9808 432.742 67.6582C432.742 67.351 432.857 67.0822 433.087 66.8517C433.318 66.6213 433.602 66.5061 433.94 66.5061C434.278 66.5061 434.562 66.6213 434.792 66.8517C435.023 67.0668 435.138 67.3279 435.138 67.6352C435.138 67.9731 435.023 68.2573 434.792 68.4878C434.562 68.7182 434.278 68.8334 433.94 68.8334Z" fill="white"></path> <path d="M444.322 83.7188C443.123 83.7188 442.048 83.4576 441.096 82.9353C440.159 82.413 439.421 81.6834 438.884 80.7463C438.346 79.7939 438.077 78.7263 438.077 77.5434C438.077 76.3606 438.346 75.3006 438.884 74.3636C439.421 73.4265 440.159 72.6968 441.096 72.1745C442.048 71.6522 443.123 71.3911 444.322 71.3911C445.366 71.3911 446.296 71.5985 447.11 72.0132C447.939 72.4126 448.592 73.0041 449.068 73.7875L447.847 74.617C447.448 74.0179 446.941 73.5724 446.326 73.2806C445.712 72.9733 445.044 72.8197 444.322 72.8197C443.446 72.8197 442.655 73.0194 441.948 73.4188C441.257 73.8029 440.712 74.3559 440.312 75.0779C439.928 75.7999 439.736 76.6217 439.736 77.5434C439.736 78.4805 439.928 79.31 440.312 80.032C440.712 80.7386 441.257 81.2916 441.948 81.691C442.655 82.0751 443.446 82.2671 444.322 82.2671C445.044 82.2671 445.712 82.1212 446.326 81.8293C446.941 81.5374 447.448 81.0919 447.847 80.4928L449.068 81.3224C448.592 82.1058 447.939 82.7049 447.11 83.1197C446.28 83.5191 445.351 83.7188 444.322 83.7188Z" fill="white"></path> <path d="M462.633 78.0503H452.495C452.587 79.31 453.071 80.3315 453.946 81.115C454.822 81.8831 455.928 82.2671 457.264 82.2671C458.017 82.2671 458.708 82.1365 459.338 81.8754C459.968 81.5989 460.513 81.1995 460.974 80.6772L461.896 81.7371C461.358 82.3823 460.682 82.8739 459.868 83.2118C459.069 83.5498 458.186 83.7188 457.218 83.7188C455.974 83.7188 454.868 83.4576 453.9 82.9353C452.948 82.3977 452.203 81.6603 451.665 80.7233C451.127 79.7862 450.859 78.7263 450.859 77.5434C450.859 76.3606 451.112 75.3006 451.619 74.3636C452.141 73.4265 452.848 72.6968 453.739 72.1745C454.645 71.6522 455.659 71.3911 456.78 71.3911C457.902 71.3911 458.908 71.6522 459.799 72.1745C460.69 72.6968 461.389 73.4265 461.896 74.3636C462.403 75.2853 462.656 76.3452 462.656 77.5434L462.633 78.0503ZM456.78 72.7967C455.613 72.7967 454.63 73.173 453.831 73.9258C453.048 74.6631 452.602 75.6309 452.495 76.8291H461.089C460.982 75.6309 460.529 74.6631 459.73 73.9258C458.946 73.173 457.963 72.7967 456.78 72.7967Z" fill="white"></path> <path d="M164.532 235.822C163.334 235.822 162.182 235.63 161.076 235.246C159.985 234.862 159.14 234.355 158.541 233.725L159.209 232.411C159.793 232.995 160.569 233.471 161.537 233.84C162.504 234.193 163.503 234.37 164.532 234.37C165.976 234.37 167.059 234.109 167.781 233.587C168.503 233.049 168.864 232.358 168.864 231.513C168.864 230.868 168.664 230.353 168.265 229.969C167.881 229.585 167.405 229.293 166.836 229.093C166.268 228.878 165.477 228.648 164.463 228.402C163.249 228.095 162.282 227.803 161.56 227.526C160.838 227.235 160.215 226.797 159.693 226.213C159.186 225.629 158.933 224.838 158.933 223.84C158.933 223.025 159.148 222.288 159.578 221.628C160.008 220.952 160.669 220.414 161.56 220.015C162.451 219.615 163.557 219.415 164.878 219.415C165.799 219.415 166.698 219.546 167.574 219.807C168.465 220.053 169.233 220.399 169.878 220.844L169.302 222.204C168.626 221.758 167.904 221.428 167.136 221.213C166.368 220.982 165.615 220.867 164.878 220.867C163.464 220.867 162.397 221.144 161.675 221.697C160.968 222.234 160.615 222.933 160.615 223.794C160.615 224.439 160.807 224.961 161.191 225.36C161.59 225.744 162.082 226.044 162.666 226.259C163.265 226.459 164.064 226.682 165.062 226.927C166.245 227.219 167.197 227.511 167.919 227.803C168.657 228.079 169.279 228.51 169.786 229.093C170.293 229.662 170.546 230.437 170.546 231.421C170.546 232.235 170.323 232.98 169.878 233.656C169.448 234.316 168.78 234.846 167.873 235.246C166.967 235.63 165.853 235.822 164.532 235.822Z" fill="white"></path> <path d="M180.298 234.946C179.991 235.223 179.607 235.438 179.146 235.591C178.701 235.729 178.232 235.799 177.741 235.799C176.604 235.799 175.728 235.491 175.114 234.877C174.499 234.262 174.192 233.395 174.192 232.273V224.946H172.026V223.563H174.192V220.913H175.828V223.563H179.515V224.946H175.828V232.181C175.828 232.903 176.005 233.456 176.358 233.84C176.727 234.209 177.249 234.393 177.925 234.393C178.263 234.393 178.586 234.339 178.893 234.232C179.215 234.124 179.492 233.971 179.722 233.771L180.298 234.946Z" fill="white"></path> <path d="M187.516 223.471C189.099 223.471 190.312 223.87 191.157 224.669C192.002 225.453 192.425 226.62 192.425 228.172V235.683H190.858V233.794C190.489 234.424 189.944 234.915 189.222 235.269C188.515 235.622 187.67 235.799 186.687 235.799C185.335 235.799 184.26 235.476 183.461 234.831C182.662 234.186 182.263 233.333 182.263 232.273C182.263 231.244 182.631 230.414 183.369 229.785C184.122 229.155 185.312 228.84 186.94 228.84H190.788V228.102C190.788 227.058 190.497 226.267 189.913 225.729C189.329 225.176 188.477 224.9 187.355 224.9C186.587 224.9 185.85 225.03 185.143 225.291C184.436 225.537 183.83 225.883 183.323 226.328L182.585 225.107C183.2 224.585 183.937 224.185 184.797 223.909C185.658 223.617 186.564 223.471 187.516 223.471ZM186.94 234.508C187.862 234.508 188.653 234.301 189.314 233.886C189.974 233.456 190.466 232.842 190.788 232.043V230.061H186.986C184.913 230.061 183.876 230.783 183.876 232.227C183.876 232.934 184.145 233.494 184.682 233.909C185.22 234.309 185.973 234.508 186.94 234.508Z" fill="white"></path> <path d="M203.113 223.471C204.249 223.471 205.279 223.732 206.2 224.254C207.122 224.761 207.844 225.483 208.366 226.42C208.889 227.357 209.15 228.425 209.15 229.623C209.15 230.821 208.889 231.889 208.366 232.826C207.844 233.763 207.122 234.493 206.2 235.015C205.279 235.537 204.249 235.799 203.113 235.799C202.099 235.799 201.185 235.584 200.371 235.153C199.572 234.723 198.927 234.101 198.435 233.287V235.683H196.868V218.586H198.504V225.867C199.011 225.084 199.656 224.492 200.44 224.093C201.238 223.678 202.129 223.471 203.113 223.471ZM202.997 234.347C203.842 234.347 204.61 234.155 205.302 233.771C205.993 233.371 206.531 232.811 206.915 232.089C207.314 231.367 207.514 230.545 207.514 229.623C207.514 228.702 207.314 227.88 206.915 227.158C206.531 226.436 205.993 225.883 205.302 225.499C204.61 225.099 203.842 224.9 202.997 224.9C202.137 224.9 201.361 225.099 200.67 225.499C199.994 225.883 199.457 226.436 199.057 227.158C198.673 227.88 198.481 228.702 198.481 229.623C198.481 230.545 198.673 231.367 199.057 232.089C199.457 232.811 199.994 233.371 200.67 233.771C201.361 234.155 202.137 234.347 202.997 234.347Z" fill="white"></path> <path d="M212.485 223.563H214.121V235.683H212.485V223.563ZM213.314 220.913C212.976 220.913 212.692 220.798 212.462 220.568C212.231 220.337 212.116 220.061 212.116 219.738C212.116 219.431 212.231 219.162 212.462 218.932C212.692 218.701 212.976 218.586 213.314 218.586C213.652 218.586 213.936 218.701 214.167 218.932C214.397 219.147 214.512 219.408 214.512 219.715C214.512 220.053 214.397 220.337 214.167 220.568C213.936 220.798 213.652 220.913 213.314 220.913Z" fill="white"></path> <path d="M218.673 218.586H220.309V235.683H218.673V218.586Z" fill="white"></path> <path d="M224.861 223.563H226.497V235.683H224.861V223.563ZM225.691 220.913C225.353 220.913 225.068 220.798 224.838 220.568C224.608 220.337 224.492 220.061 224.492 219.738C224.492 219.431 224.608 219.162 224.838 218.932C225.068 218.701 225.353 218.586 225.691 218.586C226.028 218.586 226.313 218.701 226.543 218.932C226.774 219.147 226.889 219.408 226.889 219.715C226.889 220.053 226.774 220.337 226.543 220.568C226.313 220.798 226.028 220.913 225.691 220.913Z" fill="white"></path> <path d="M237.432 234.946C237.125 235.223 236.741 235.438 236.28 235.591C235.834 235.729 235.366 235.799 234.874 235.799C233.737 235.799 232.862 235.491 232.247 234.877C231.633 234.262 231.326 233.395 231.326 232.273V224.946H229.16V223.563H231.326V220.913H232.962V223.563H236.648V224.946H232.962V232.181C232.962 232.903 233.138 233.456 233.492 233.84C233.86 234.209 234.383 234.393 235.059 234.393C235.396 234.393 235.719 234.339 236.026 234.232C236.349 234.124 236.625 233.971 236.856 233.771L237.432 234.946Z" fill="white"></path> <path d="M250.37 223.563L244.31 237.135C243.818 238.272 243.25 239.078 242.605 239.555C241.959 240.031 241.184 240.269 240.277 240.269C239.694 240.269 239.148 240.177 238.641 239.992C238.134 239.808 237.697 239.531 237.328 239.163L238.088 237.942C238.703 238.556 239.44 238.863 240.3 238.863C240.853 238.863 241.322 238.71 241.706 238.402C242.105 238.095 242.474 237.573 242.812 236.836L243.342 235.66L237.927 223.563H239.632L244.194 233.863L248.757 223.563H250.37Z" fill="white"></path> <path d="M83.5552 59.793L79.8684 54.6085C79.4536 54.6546 79.0235 54.6776 78.578 54.6776H74.246V59.793H72.5409V43.6633H78.578C80.6365 43.6633 82.2494 44.1549 83.4169 45.1381C84.5844 46.1212 85.1681 47.473 85.1681 49.1935C85.1681 50.4532 84.8455 51.5208 84.2003 52.3964C83.5705 53.2567 82.6642 53.8788 81.4813 54.2628L85.4216 59.793H83.5552ZM78.5319 53.2259C80.1295 53.2259 81.3508 52.8726 82.1957 52.166C83.0405 51.4593 83.463 50.4685 83.463 49.1935C83.463 47.8878 83.0405 46.8893 82.1957 46.198C81.3508 45.4914 80.1295 45.1381 78.5319 45.1381H74.246V53.2259H78.5319Z" fill="white"></path> <path d="M99.4004 54.2398H89.2618C89.3539 55.4994 89.8378 56.521 90.7134 57.3044C91.589 58.0725 92.6951 58.4566 94.0315 58.4566C94.7843 58.4566 95.4755 58.326 96.1053 58.0648C96.7352 57.7883 97.2805 57.3889 97.7414 56.8666L98.6631 57.9266C98.1254 58.5718 97.4495 59.0633 96.6353 59.4013C95.8365 59.7393 94.9532 59.9082 93.9854 59.9082C92.7412 59.9082 91.6351 59.6471 90.6673 59.1248C89.7149 58.5871 88.9699 57.8498 88.4322 56.9127C87.8946 55.9757 87.6257 54.9157 87.6257 53.7329C87.6257 52.55 87.8792 51.4901 88.3861 50.553C88.9084 49.616 89.6151 48.8863 90.506 48.364C91.4124 47.8417 92.4262 47.5805 93.5476 47.5805C94.669 47.5805 95.6752 47.8417 96.5662 48.364C97.4572 48.8863 98.1561 49.616 98.6631 50.553C99.17 51.4747 99.4235 52.5347 99.4235 53.7329L99.4004 54.2398ZM93.5476 48.9861C92.3802 48.9861 91.397 49.3625 90.5982 50.1152C89.8148 50.8526 89.3693 51.8203 89.2618 53.0186H97.8566C97.749 51.8203 97.2959 50.8526 96.4971 50.1152C95.7136 49.3625 94.7305 48.9861 93.5476 48.9861Z" fill="white"></path> <path d="M106.002 59.9082C105.019 59.9082 104.075 59.77 103.168 59.4935C102.277 59.2016 101.578 58.8406 101.071 58.4105L101.809 57.1201C102.316 57.5195 102.953 57.8498 103.721 58.1109C104.489 58.3567 105.288 58.4796 106.118 58.4796C107.224 58.4796 108.038 58.3106 108.56 57.9727C109.098 57.6194 109.367 57.1278 109.367 56.498C109.367 56.0525 109.221 55.7068 108.929 55.461C108.637 55.1999 108.268 55.0079 107.823 54.885C107.377 54.7467 106.786 54.6162 106.049 54.4933C105.065 54.3089 104.274 54.1246 103.675 53.9402C103.076 53.7405 102.561 53.4103 102.131 52.9494C101.717 52.4886 101.509 51.8511 101.509 51.0369C101.509 50.023 101.932 49.1935 102.776 48.5483C103.621 47.9031 104.797 47.5805 106.302 47.5805C107.085 47.5805 107.869 47.6881 108.652 47.9031C109.436 48.1028 110.081 48.3717 110.588 48.7096L109.874 50.023C108.875 49.3318 107.685 48.9861 106.302 48.9861C105.257 48.9861 104.466 49.1705 103.929 49.5391C103.406 49.9078 103.145 50.3917 103.145 50.9908C103.145 51.4517 103.291 51.8203 103.583 52.0969C103.89 52.3734 104.267 52.5807 104.712 52.719C105.158 52.8419 105.772 52.9725 106.555 53.1107C107.523 53.2951 108.299 53.4794 108.883 53.6637C109.466 53.8481 109.966 54.163 110.38 54.6085C110.795 55.054 111.003 55.6684 111.003 56.4519C111.003 57.5118 110.557 58.3567 109.666 58.9865C108.791 59.601 107.569 59.9082 106.002 59.9082Z" fill="white"></path> <path d="M124.949 47.6727V59.793H123.382V57.5809C122.952 58.3183 122.361 58.8944 121.608 59.3091C120.855 59.7085 119.995 59.9082 119.027 59.9082C117.445 59.9082 116.193 59.4704 115.271 58.5948C114.365 57.7038 113.912 56.4058 113.912 54.7006V47.6727H115.548V54.5394C115.548 55.8144 115.863 56.7821 116.493 57.4427C117.122 58.1032 118.021 58.4335 119.189 58.4335C120.464 58.4335 121.47 58.0495 122.207 57.2814C122.945 56.498 123.313 55.415 123.313 54.0324V47.6727H124.949Z" fill="white"></path> <path d="M129.531 42.6956H131.167V59.793H129.531V42.6956Z" fill="white"></path> <path d="M142.147 59.0557C141.84 59.3322 141.456 59.5472 140.995 59.7008C140.55 59.8391 140.081 59.9082 139.589 59.9082C138.453 59.9082 137.577 59.601 136.963 58.9865C136.348 58.3721 136.041 57.5041 136.041 56.3827V49.0553H133.875V47.6727H136.041V45.0228H137.677V47.6727H141.364V49.0553H137.677V56.2906C137.677 57.0126 137.854 57.5656 138.207 57.9496C138.576 58.3183 139.098 58.5026 139.774 58.5026C140.112 58.5026 140.434 58.4489 140.742 58.3413C141.064 58.2338 141.341 58.0802 141.571 57.8805L142.147 59.0557Z" fill="white"></path> <path d="M358.193 88.212C358.193 112.094 338.351 133.856 305.945 149.678C273.571 165.483 228.813 175.273 179.347 175.273C129.881 175.273 85.1222 165.483 52.7488 149.678C20.342 133.856 0.5 112.094 0.5 88.212C0.5 64.3304 20.342 42.568 52.7488 26.7462C85.1222 10.9408 129.881 1.15088 179.347 1.15088C228.813 1.15088 273.571 10.9408 305.945 26.7462C338.351 42.568 358.193 64.3304 358.193 88.212Z" stroke="white"></path> <path d="M533.327 68.6161C537.907 94.7069 520.752 122.206 488.994 145.575C457.265 168.924 411.089 188.041 357.986 197.363C304.883 206.685 254.956 204.439 217.171 193.293C179.353 182.138 153.857 162.126 149.277 136.036C144.697 109.945 161.852 82.4457 193.61 59.0765C225.339 35.7279 271.515 16.6109 324.618 7.28876C377.721 -2.03339 427.648 0.212875 465.433 11.3583C503.251 22.5135 528.747 42.5253 533.327 68.6161Z" stroke="white"></path> <path d="M409.655 175.005C409.655 204.026 389.748 230.389 357.371 249.524C325.005 268.653 280.26 280.5 230.808 280.5C181.357 280.5 136.611 268.653 104.245 249.524C71.8685 230.389 51.9617 204.026 51.9617 175.005C51.9617 145.984 71.8685 119.621 104.245 100.486C136.611 81.3573 181.357 69.51 230.808 69.51C280.26 69.51 325.005 81.3573 357.371 100.486C389.748 119.621 409.655 145.984 409.655 175.005Z" stroke="white"></path> </svg> 