<?xml version="1.0" encoding="UTF-8"?> <svg xmlns="http://www.w3.org/2000/svg" width="961" height="320" viewBox="0 0 961 320" fill="none"> <rect x="0.5" y="0.5" width="960" height="319" rx="29.5" fill="white" stroke="black"></rect> <mask id="path-2-inside-1_132_3263" fill="white"> <path d="M0 30C0 13.4315 13.4315 0 30 0H931C947.569 0 961 13.4315 961 30V68H0V30Z"></path> </mask> <path d="M0 30C0 13.4315 13.4315 0 30 0H931C947.569 0 961 13.4315 961 30V68H0V30Z" fill="black"></path> <path d="M-1 30C-1 12.8792 12.8792 -1 30 -1H931C948.121 -1 962 12.8792 962 30H960C960 13.9837 947.016 1 931 1H30C13.9837 1 1 13.9837 1 30H-1ZM961 68H0H961ZM-1 68V30C-1 12.8792 12.8792 -1 30 -1V1C13.9837 1 1 13.9837 1 30V68H-1ZM931 -1C948.121 -1 962 12.8792 962 30V68H960V30C960 13.9837 947.016 1 931 1V-1Z" fill="black" mask="url(#path-2-inside-1_132_3263)"></path> <circle cx="45" cy="34" r="10" fill="white"></circle> <circle cx="80" cy="34" r="10" fill="white"></circle> <circle cx="115" cy="34" r="10" fill="white"></circle> </svg> 