<?xml version="1.0" encoding="UTF-8"?> <svg xmlns="http://www.w3.org/2000/svg" width="178" height="179" viewBox="0 0 178 179" fill="none"> <path d="M176.398 95.2877L170.258 94.646L169.414 102.731L167.985 102.582L168.829 94.4967L162.198 93.8037L162.371 92.151L178 93.7843L176.88 104.505L175.451 104.355L176.398 95.2877Z" fill="url(#paint0_linear_123_3208)"></path> <path d="M170.222 114.759C169.752 116.227 169.021 117.235 168.028 117.781C167.05 118.333 165.842 118.378 164.402 117.916L157.433 115.683L157.898 114.229L159.651 114.79C159.177 114.261 158.883 113.609 158.769 112.834C158.652 112.073 158.739 111.236 159.031 110.324C159.433 109.069 160.052 108.167 160.888 107.617C161.724 107.068 162.634 106.951 163.617 107.266C164.572 107.572 165.232 108.161 165.597 109.032C165.958 109.918 165.896 111.117 165.412 112.628L164.268 116.199L164.952 116.418C165.922 116.729 166.742 116.693 167.415 116.312C168.101 115.934 168.611 115.225 168.945 114.184C169.173 113.472 169.271 112.748 169.239 112.015C169.221 111.286 169.08 110.62 168.818 110.017L170.17 109.696C170.472 110.422 170.623 111.225 170.624 112.105C170.639 112.99 170.505 113.875 170.222 114.759ZM160.153 110.942C159.879 111.798 159.836 112.594 160.025 113.33C160.227 114.071 160.651 114.71 161.297 115.247L163.135 115.836L164.265 112.308C164.882 110.383 164.52 109.206 163.18 108.777C162.525 108.566 161.925 108.649 161.38 109.025C160.85 109.405 160.441 110.044 160.153 110.942Z" fill="url(#paint1_linear_123_3208)"></path> <path d="M152.701 125.054C153.265 124.032 153.993 123.237 154.887 122.67C155.774 122.117 156.743 121.831 157.796 121.813C158.861 121.803 159.898 122.076 160.907 122.633C161.916 123.189 162.694 123.918 163.24 124.818C163.787 125.717 164.062 126.69 164.067 127.736C164.064 128.794 163.781 129.835 163.217 130.857C162.726 131.749 162.111 132.444 161.374 132.943C160.643 133.463 159.832 133.742 158.939 133.78L158.806 132.347C159.505 132.288 160.124 132.065 160.662 131.678C161.213 131.299 161.659 130.801 161.998 130.185C162.41 129.438 162.612 128.668 162.604 127.877C162.602 127.107 162.387 126.381 161.959 125.7C161.524 125.033 160.913 124.482 160.127 124.048C159.327 123.607 158.529 123.381 157.733 123.368C156.942 123.377 156.213 123.582 155.547 123.984C154.887 124.406 154.351 124.99 153.939 125.738C153.599 126.354 153.409 126.993 153.369 127.654C153.329 128.316 153.471 128.958 153.794 129.581L152.511 130.233C152.067 129.458 151.863 128.619 151.9 127.715C151.95 126.82 152.217 125.933 152.701 125.054Z" fill="url(#paint2_linear_123_3208)"></path> <path d="M145.208 144.392L151.613 136.87C150.62 136.142 149.557 135.856 148.423 136.01C147.3 136.175 146.316 136.753 145.472 137.744C144.997 138.303 144.657 138.898 144.453 139.53C144.26 140.172 144.212 140.829 144.308 141.501L142.94 141.515C142.801 140.709 142.863 139.897 143.127 139.079C143.38 138.273 143.813 137.511 144.424 136.793C145.21 135.87 146.103 135.214 147.101 134.826C148.102 134.459 149.119 134.372 150.154 134.565C151.189 134.758 152.145 135.229 153.022 135.976C153.899 136.723 154.525 137.581 154.9 138.549C155.265 139.529 155.36 140.514 155.185 141.505C155 142.508 154.553 143.425 153.845 144.257C153.136 145.089 152.307 145.671 151.357 146.002C150.407 146.333 149.424 146.39 148.409 146.174C147.405 145.968 146.459 145.487 145.57 144.729L145.208 144.392ZM152.802 143.369C153.54 142.503 153.882 141.536 153.828 140.467C153.776 139.42 153.339 138.478 152.518 137.641L147.089 144.018C148.046 144.696 149.05 144.971 150.102 144.844C151.155 144.738 152.055 144.247 152.802 143.369Z" fill="url(#paint3_linear_123_3208)"></path> <path d="M139.617 157.545C138.733 158.213 137.78 158.615 136.757 158.75C135.742 158.898 134.757 158.761 133.801 158.339C132.844 157.917 132.014 157.241 131.31 156.309C130.607 155.377 130.183 154.394 130.038 153.358C129.894 152.323 130.026 151.332 130.436 150.384C130.845 149.436 131.492 148.628 132.376 147.961C133.164 147.365 134 146.995 134.886 146.851C135.759 146.716 136.626 146.821 137.487 147.165L136.079 145.302L137.297 144.381L147.34 157.674L146.068 158.636L141.791 152.974C141.857 153.881 141.703 154.72 141.329 155.491C140.952 156.283 140.381 156.968 139.617 157.545ZM133.318 149.022C132.661 149.518 132.177 150.119 131.865 150.823C131.562 151.54 131.474 152.292 131.599 153.079C131.713 153.875 132.041 154.631 132.582 155.348C133.123 156.064 133.761 156.586 134.496 156.913C135.219 157.248 135.961 157.363 136.724 157.255C137.496 157.159 138.21 156.863 138.867 156.367C139.536 155.861 140.021 155.25 140.324 154.534C140.624 153.838 140.717 153.092 140.603 152.296C140.478 151.509 140.144 150.757 139.603 150.041C139.061 149.324 138.429 148.798 137.707 148.462C136.972 148.135 136.225 148.015 135.465 148.102C134.702 148.21 133.986 148.516 133.318 149.022Z" fill="url(#paint4_linear_123_3208)"></path> <path d="M118.895 155.829C119.933 155.363 120.972 155.174 122.013 155.264C123.061 155.367 124.01 155.728 124.863 156.346C125.715 156.964 126.377 157.799 126.85 158.85C127.322 159.902 127.507 160.951 127.403 161.999C127.3 163.047 126.936 163.99 126.312 164.829C125.688 165.667 124.858 166.32 123.82 166.786C122.783 167.253 121.743 167.441 120.702 167.352C119.661 167.262 118.721 166.905 117.882 166.281C117.03 165.663 116.368 164.828 115.896 163.777C115.423 162.725 115.238 161.676 115.342 160.628C115.432 159.586 115.785 158.639 116.403 157.787C117.027 156.948 117.858 156.296 118.895 155.829ZM119.475 157.119C118.711 157.463 118.105 157.941 117.658 158.552C117.203 159.183 116.949 159.897 116.897 160.692C116.844 161.487 117.001 162.294 117.37 163.114C117.738 163.933 118.237 164.587 118.867 165.075C119.496 165.563 120.195 165.84 120.963 165.905C121.723 165.99 122.485 165.86 123.249 165.517C124.014 165.173 124.623 164.685 125.078 164.054C125.525 163.443 125.782 162.736 125.848 161.935C125.901 161.14 125.744 160.332 125.375 159.513C125.007 158.694 124.508 158.04 123.878 157.552C123.235 157.07 122.533 156.786 121.773 156.701C121.006 156.636 120.24 156.776 119.475 157.119Z" fill="url(#paint5_linear_123_3208)"></path> <path d="M104.225 160.615C105.337 160.376 106.392 160.41 107.392 160.716C108.394 161.037 109.247 161.589 109.951 162.372C110.655 163.155 111.128 164.11 111.369 165.237C111.611 166.364 111.572 167.429 111.251 168.431C110.93 169.434 110.377 170.28 109.591 170.97C108.806 171.659 107.857 172.123 106.744 172.362C105.632 172.6 104.577 172.567 103.577 172.261C102.578 171.954 101.734 171.408 101.045 170.622C100.341 169.839 99.8682 168.884 99.6264 167.757C99.3846 166.63 99.424 165.565 99.7447 164.562C100.051 163.563 100.595 162.711 101.378 162.007C102.164 161.318 103.112 160.854 104.225 160.615ZM104.521 161.998C103.702 162.174 103.009 162.514 102.444 163.018C101.867 163.54 101.47 164.184 101.252 164.951C101.033 165.717 101.018 166.54 101.207 167.418C101.395 168.296 101.746 169.04 102.259 169.65C102.773 170.259 103.398 170.676 104.135 170.901C104.861 171.143 105.633 171.176 106.452 171C107.272 170.824 107.97 170.475 108.547 169.954C109.112 169.449 109.511 168.813 109.744 168.043C109.962 167.276 109.977 166.454 109.789 165.576C109.601 164.698 109.25 163.954 108.736 163.344C108.208 162.738 107.581 162.314 106.856 162.071C106.119 161.847 105.341 161.822 104.521 161.998Z" fill="url(#paint6_linear_123_3208)"></path> <path d="M88.7139 168.249L91.5075 165.7L91.5205 162.332L93.1143 162.338L93.05 179L91.4562 178.994L91.4997 167.699L84.4259 174.116L82.4504 174.109L87.5201 169.3L82.0246 162.295L83.9776 162.303L88.7139 168.249Z" fill="url(#paint7_linear_123_3208)"></path> <path d="M60.2619 156.529L61.6401 159.337C63.3459 158.396 65.2309 158.26 67.295 158.93C68.263 159.244 69.0805 159.683 69.7475 160.246C70.3958 160.818 70.841 161.458 71.0832 162.167C71.3209 162.889 71.3196 163.62 71.0793 164.361C70.7883 165.258 70.2426 165.97 69.4422 166.497C68.6418 167.024 67.4312 167.458 65.8106 167.797C66.2821 168.769 66.5699 169.555 66.6741 170.155C66.7736 170.77 66.7287 171.369 66.5393 171.953C66.2297 172.907 65.6386 173.565 64.7659 173.927C63.8932 174.289 62.8804 174.283 61.7273 173.908C60.6597 173.562 59.8982 173.023 59.4427 172.293C58.9873 171.563 58.9098 170.735 59.2101 169.81C59.4503 169.069 59.9166 168.481 60.6088 168.044C61.2965 167.622 62.3679 167.254 63.8231 166.94L61.0955 161.379C60.3766 162.043 59.7303 162.896 59.1564 163.937L58.0427 163.151C58.7474 161.9 59.5606 160.897 60.4822 160.142L59.0607 157.248L60.2619 156.529ZM62.0946 172.776C62.8348 173.017 63.4785 173.021 64.0257 172.789C64.5586 172.553 64.9244 172.129 65.1231 171.517C65.2663 171.075 65.2887 170.618 65.1903 170.146C65.0919 169.673 64.819 168.986 64.3717 168.086C63.0866 168.361 62.166 168.652 61.61 168.96C61.0539 169.267 60.6904 169.684 60.5195 170.211C60.3347 170.781 60.3814 171.292 60.6595 171.744C60.9329 172.21 61.4113 172.555 62.0946 172.776ZM66.8007 160.162C65.1494 159.626 63.6289 159.754 62.239 160.547L65.2406 166.644C66.6392 166.359 67.6541 166.019 68.2852 165.626C68.902 165.228 69.319 164.694 69.5362 164.025C69.7995 163.214 69.6846 162.452 69.1915 161.741C68.6795 161.04 67.8826 160.514 66.8007 160.162Z" fill="url(#paint8_linear_123_3208)"></path> <path d="M41.0558 164.064L39.6641 163.156L48.2452 149.988L49.6369 150.895L41.0558 164.064Z" fill="url(#paint9_linear_123_3208)"></path> <path d="M29.1603 144.127L28.0089 143.024L32.1538 138.693C33.1286 138.736 34.0971 138.979 35.0595 139.424C36.0218 139.869 36.903 140.474 37.703 141.241C38.8381 142.328 39.6217 143.555 40.0538 144.922C40.4858 146.289 40.5421 147.659 40.2227 149.031C39.893 150.415 39.2055 151.653 38.1602 152.745C37.1149 153.838 35.9137 154.573 34.5564 154.952C33.1889 155.342 31.813 155.351 30.4288 154.979C29.0447 154.607 27.7796 153.872 26.6337 152.774C25.7688 151.946 25.1088 151.045 24.6535 150.07C24.1879 149.106 23.9652 148.115 23.9854 147.099L25.461 147.051C25.5096 148.797 26.2258 150.332 27.6096 151.657C28.5285 152.537 29.5576 153.129 30.6968 153.432C31.8149 153.736 32.9314 153.728 34.0464 153.407C35.1511 153.097 36.1278 152.498 36.9764 151.612C37.8251 150.725 38.3801 149.723 38.6416 148.605C38.903 147.488 38.8628 146.372 38.5209 145.257C38.1791 144.142 37.5487 143.144 36.6298 142.265C35.4622 141.146 34.1936 140.491 32.8239 140.299L29.1603 144.127Z" fill="url(#paint10_linear_123_3208)"></path> <path d="M17.5893 119.618L21.5028 127.453L26.1009 127.263L26.8736 128.81L9.60547 129.408L8.87295 127.942L19.7189 114.487L20.5016 116.054L17.5893 119.618ZM16.6553 120.763L10.7905 127.912L20.0269 127.512L16.6553 120.763Z" fill="url(#paint11_linear_123_3208)"></path> <path d="M0 103.628L16.2454 99.9461L16.5827 101.435L14.3057 101.951C15.1851 102.243 15.9168 102.73 16.5008 103.411C17.0815 104.078 17.4809 104.893 17.6992 105.856C17.9439 106.937 17.9174 107.971 17.6196 108.96C17.3217 109.948 16.7839 110.792 16.0059 111.49C15.228 112.188 14.2698 112.666 13.1313 112.924C11.9928 113.182 10.9222 113.164 9.9194 112.869C8.9166 112.575 8.07515 112.044 7.39505 111.277C6.70035 110.514 6.23064 109.592 5.98591 108.511C5.77425 107.577 5.78113 106.693 6.00656 105.859C6.21408 105.013 6.63547 104.266 7.27073 103.615L0.352216 105.183L0 103.628ZM16.2901 106.038C16.1082 105.235 15.7621 104.553 15.2517 103.993C14.7233 103.422 14.0748 103.032 13.3061 102.823C12.5341 102.599 11.7103 102.586 10.8345 102.784C9.95874 102.983 9.22084 103.35 8.62082 103.885C8.01748 104.405 7.60778 105.035 7.3917 105.775C7.15772 106.503 7.13168 107.269 7.31357 108.072C7.49877 108.89 7.85554 109.584 8.38386 110.155C8.89427 110.715 9.53548 111.107 10.3075 111.331C11.0762 111.54 11.8984 111.546 12.7742 111.347C13.6499 111.149 14.3895 110.789 14.9928 110.269C15.5928 109.734 16.0098 109.102 16.2438 108.374C16.4599 107.634 16.4753 106.855 16.2901 106.038Z" fill="url(#paint12_linear_123_3208)"></path> <path d="M3.75945 83.9041L15.6277 89.0216L15.6466 90.6608L3.89983 96.0294L3.88059 94.3678L13.8859 89.8278L3.77764 85.4759L3.75945 83.9041Z" fill="url(#paint13_linear_123_3208)"></path> <path d="M12.7694 68.2145L10.8817 77.913C12.1034 78.0594 13.1704 77.7868 14.0826 77.0951C14.9802 76.4006 15.5534 75.4141 15.8022 74.1357C15.9423 73.4156 15.9462 72.73 15.8137 72.0789C15.6666 71.425 15.3862 70.8289 14.9725 70.2908L16.1577 69.6065C16.6746 70.241 17.0188 70.9791 17.1904 71.8209C17.3649 72.6479 17.362 73.5244 17.1818 74.4501C16.9502 75.6404 16.4945 76.6498 15.8148 77.4782C15.1233 78.2892 14.2795 78.8645 13.2833 79.2043C12.2871 79.5441 11.2234 79.6039 10.0923 79.3836C8.96113 79.1633 7.99471 78.7234 7.19299 78.0639C6.39414 77.3898 5.82793 76.5779 5.49435 75.6284C5.16364 74.6641 5.10267 73.6456 5.31147 72.5729C5.52026 71.5002 5.95734 70.5864 6.62269 69.8313C7.28805 69.0763 8.11597 68.5436 9.10645 68.2332C10.0822 67.92 11.1431 67.8749 12.2889 68.0981L12.7694 68.2145ZM6.65562 72.8347C6.43824 73.9515 6.6151 74.9621 7.18619 75.8664C7.74545 76.7531 8.58798 77.3595 9.71379 77.6855L11.3141 69.4639C10.1482 69.3436 9.13836 69.5968 8.2845 70.2236C7.41881 70.8329 6.87585 71.7032 6.65562 72.8347Z" fill="url(#paint14_linear_123_3208)"></path> <path d="M11.4395 59.732C10.8354 59.0961 10.4777 58.363 10.3663 57.5329C10.2604 56.6888 10.405 55.7574 10.8003 54.7386L12.2444 55.2992L12.0853 55.647C11.6359 56.8053 11.6397 57.8506 12.0968 58.7828C12.5538 59.715 13.4241 60.4303 14.7077 60.9286L20.3164 63.1061L19.7397 64.5924L8.73158 60.3187L9.28391 58.8952L11.4395 59.732Z" fill="url(#paint15_linear_123_3208)"></path> <path d="M26.3709 49.1848C26.4579 49.5782 26.4559 50.0071 26.3649 50.4717C26.2683 50.9159 26.102 51.3464 25.8661 51.7633C25.3204 52.7273 24.6397 53.3224 23.8238 53.5485C23.0079 53.7745 22.1246 53.6184 21.1739 53.0799L14.9617 49.5617L13.922 51.3986L12.7499 50.7348L13.7895 48.8979L11.543 47.6256L12.3282 46.2382L14.5748 47.5105L16.3444 44.3839L17.5165 45.0477L15.7469 48.1743L21.881 51.6482C22.4931 51.9949 23.0468 52.1106 23.542 51.9954C24.0315 51.8597 24.4385 51.5053 24.7629 50.9321C24.9251 50.6455 25.0344 50.3461 25.0907 50.0339C25.1544 49.7087 25.1568 49.4004 25.0981 49.1091L26.3709 49.1848Z" fill="url(#paint16_linear_123_3208)"></path> <path d="M19.9137 39.1247L20.8607 37.8422L30.3587 44.8601L29.4118 46.1425L19.9137 39.1247ZM18.3173 36.9401C18.1217 37.205 17.8669 37.3611 17.5529 37.4083C17.239 37.4555 16.9556 37.3857 16.7028 37.1989C16.4621 37.021 16.3181 36.7751 16.2709 36.461C16.2237 36.147 16.2979 35.8575 16.4935 35.5926C16.6892 35.3277 16.9439 35.1716 17.2579 35.1244C17.5598 35.0683 17.8311 35.1292 18.0719 35.3071C18.3367 35.5028 18.4928 35.7576 18.5399 36.0717C18.5871 36.3857 18.5129 36.6752 18.3173 36.9401Z" fill="url(#paint17_linear_123_3208)"></path> <path d="M36.3493 38.0295C35.682 38.7168 34.944 39.2833 34.1356 39.7291C33.3268 40.1538 32.6001 40.3973 31.9554 40.4596L31.5541 39.0679C32.1774 38.9848 32.8409 38.7634 33.5448 38.4038C34.238 38.0337 34.8661 37.5588 35.4292 36.9789C36.18 36.2057 36.6145 35.5219 36.7329 34.9273C36.851 34.3115 36.6899 33.7898 36.2498 33.3621C35.9384 33.0596 35.5978 32.927 35.228 32.9641C34.8473 32.9908 34.4629 33.1181 34.0746 33.3461C33.6756 33.5637 33.1829 33.8884 32.5964 34.3204C31.8003 34.8825 31.1344 35.3104 30.5989 35.604C30.0527 35.8872 29.4725 36.0227 28.8585 36.0104C28.2549 35.9875 27.6686 35.6996 27.0996 35.1467C26.3911 34.4583 26.0982 33.5997 26.2208 32.571C26.3435 31.5423 26.9157 30.5017 27.9376 29.4494C28.4695 28.9017 29.0764 28.4271 29.7585 28.0254C30.4299 27.6134 31.0557 27.3449 31.636 27.22L32.069 28.6112C30.9081 28.8398 29.8584 29.4373 28.9199 30.4038C28.2108 31.134 27.8026 31.8122 27.6953 32.4384C27.5984 33.0538 27.7593 33.565 28.178 33.9718C28.5 34.2847 28.8568 34.433 29.2481 34.4167C29.6499 34.3897 30.0503 34.2675 30.4493 34.0499C30.8376 33.8219 31.346 33.4811 31.9744 33.0273C32.7602 32.4759 33.4156 32.0588 33.9406 31.7759C34.4657 31.493 35.0247 31.3578 35.6176 31.3704C36.2104 31.383 36.7806 31.6552 37.3281 32.1872C38.0688 32.9069 38.3569 33.792 38.1922 34.8425C38.0272 35.8719 37.413 36.9342 36.3493 38.0295Z" fill="url(#paint18_linear_123_3208)"></path> <path d="M35.4802 22.691L36.7305 21.7021L44.0542 30.9676L42.8039 31.9565L35.4802 22.691ZM34.513 20.1639C34.2547 20.3681 33.9679 20.4518 33.6526 20.415C33.3373 20.3781 33.0821 20.2363 32.8872 19.9897C32.7016 19.7549 32.6272 19.4797 32.664 19.1643C32.7009 18.8489 32.8485 18.589 33.1067 18.3847C33.365 18.1805 33.6518 18.0968 33.9672 18.1337C34.2732 18.1588 34.519 18.2888 34.7047 18.5237C34.9089 18.782 34.9926 19.0689 34.9557 19.3843C34.9188 19.6997 34.7713 19.9596 34.513 20.1639Z" fill="url(#paint19_linear_123_3208)"></path> <path d="M48.2169 14.0672C49.5143 13.3513 50.7526 13.1638 51.9319 13.5047C53.1171 13.8253 54.1073 14.7065 54.9025 16.1484L58.2096 22.1455L56.814 22.9156L53.5828 17.0562C52.99 15.9813 52.2695 15.3102 51.4214 15.043C50.5733 14.7759 49.6513 14.917 48.6553 15.4666C47.5415 16.0812 46.8413 16.9036 46.5547 17.9337C46.274 18.9434 46.4554 20.0316 47.0987 21.1983L50.0915 26.6251L48.6958 27.3952L42.9923 17.0527L44.329 16.3151L45.3808 18.2224C45.4138 17.3835 45.6705 16.6093 46.1509 15.8997C46.6371 15.1697 47.3258 14.5589 48.2169 14.0672Z" fill="url(#paint20_linear_123_3208)"></path> <path d="M71.434 5.44078L74.1846 15.4439C74.7165 17.3781 74.6333 18.9381 73.9349 20.124C73.255 21.3203 71.9626 22.1805 70.0579 22.7046C69.0045 22.9944 67.9579 23.1116 66.9182 23.0561C65.8969 23.0111 65.015 22.7957 64.2726 22.41L64.7303 21.0264C65.4136 21.3662 66.1825 21.5661 67.0372 21.626C67.9062 21.6818 68.7737 21.5907 69.6395 21.3524C71.0825 20.9554 72.0498 20.3244 72.5415 19.4593C73.0371 18.6087 73.0904 17.4761 72.7014 16.0616L72.3025 14.6109C72.0248 15.4637 71.5479 16.1849 70.8719 16.7746C70.2103 17.3603 69.4105 17.7822 68.4726 18.0403C67.4048 18.3341 66.3672 18.3712 65.36 18.1515C64.3632 17.9134 63.4972 17.4452 62.7619 16.747C62.0371 16.0303 61.5278 15.1379 61.2341 14.0698C60.9404 13.0016 60.9237 11.9815 61.1841 11.0093C61.4589 10.0331 61.9658 9.19495 62.7045 8.49482C63.4433 7.79469 64.3538 7.29573 65.4361 6.99795C66.4029 6.73193 67.3295 6.68658 68.2159 6.8619C69.1023 7.03723 69.8848 7.42746 70.5634 8.03259L69.9621 5.84577L71.434 5.44078ZM68.249 16.6346C69.0715 16.4082 69.767 16.0305 70.3356 15.5015C70.9001 14.958 71.2754 14.319 71.4615 13.5847C71.6621 12.8463 71.6512 12.073 71.4289 11.2646C71.2066 10.4563 70.8226 9.79342 70.2767 9.27598C69.7413 8.74012 69.0941 8.3903 68.335 8.22652C67.5865 8.04433 66.7937 8.06838 65.9568 8.29866C65.1342 8.52498 64.4387 8.90267 63.8702 9.43174C63.3161 9.95684 62.9388 10.5886 62.7383 11.3269C62.5522 12.0613 62.5703 12.8326 62.7925 13.641C63.0148 14.4493 63.3937 15.1214 63.929 15.6572C64.4789 16.1891 65.1281 16.5462 65.8767 16.7284C66.6357 16.8921 67.4265 16.8609 68.249 16.6346Z" fill="url(#paint21_linear_123_3208)"></path> <path d="M97.9875 11.8179L89.249 11.2776L87.1079 15.3525L85.3826 15.2458L93.5221 0L95.1578 0.101131L101.358 16.2336L99.6106 16.1255L97.9875 11.8179ZM97.4656 10.4357L94.2221 1.77568L89.9371 9.97025L97.4656 10.4357Z" fill="url(#paint22_linear_123_3208)"></path> <path d="M119.474 9.25188L116.384 19.1554C115.786 21.0704 114.874 22.338 113.645 22.9583C112.427 23.5973 110.875 23.6225 108.989 23.0338C107.946 22.7083 107.002 22.2411 106.157 21.6324C105.322 21.0424 104.697 20.3844 104.28 19.6585L105.413 18.7418C105.804 19.3972 106.343 19.981 107.03 20.4934C107.731 21.0102 108.51 21.4024 109.367 21.67C110.796 22.1159 111.951 22.1079 112.832 21.6458C113.709 21.198 114.365 20.2739 114.802 18.8734L115.25 17.4372C114.556 18.0045 113.765 18.3536 112.878 18.4843C112.004 18.6195 111.104 18.5422 110.175 18.2523C109.118 17.9223 108.225 17.3926 107.496 16.6633C106.786 15.9241 106.31 15.062 106.069 14.077C105.846 13.0823 105.9 12.0561 106.23 10.9986C106.559 9.94105 107.097 9.07367 107.841 8.39643C108.6 7.72365 109.479 7.2924 110.479 7.10267C111.478 6.91295 112.514 6.98533 113.586 7.31981C114.543 7.61861 115.347 8.08135 115.998 8.70802C116.649 9.3347 117.097 10.086 117.341 10.962L118.016 8.79698L119.474 9.25188ZM110.746 16.9487C111.561 17.2029 112.35 17.261 113.114 17.1232C113.883 16.9711 114.544 16.6364 115.097 16.1191C115.665 15.6062 116.073 14.9497 116.323 14.1494C116.573 13.3491 116.608 12.5837 116.428 11.8532C116.267 11.113 115.911 10.4687 115.361 9.92062C114.83 9.36266 114.15 8.95435 113.321 8.69568C112.507 8.44148 111.717 8.38329 110.953 8.52113C110.203 8.66342 109.545 8.99099 108.977 9.50383C108.424 10.0211 108.022 10.6799 107.773 11.4802C107.523 12.2805 107.478 13.0508 107.639 13.7911C107.815 14.5358 108.168 15.1872 108.7 15.7452C109.25 16.2933 109.932 16.6944 110.746 16.9487Z" fill="url(#paint23_linear_123_3208)"></path> <path d="M133.362 23.6573L124.821 18.6946C124.282 19.8012 124.19 20.8989 124.544 21.9877C124.906 23.0636 125.65 23.9286 126.776 24.5828C127.41 24.9512 128.056 25.1795 128.715 25.2678C129.38 25.343 130.035 25.2734 130.679 25.0588L130.937 26.4032C130.168 26.6837 129.358 26.7671 128.507 26.6534C127.669 26.5472 126.842 26.2572 126.027 25.7835C124.978 25.1745 124.174 24.413 123.615 23.4992C123.075 22.5799 122.809 21.5938 122.814 20.541C122.82 19.4882 123.112 18.4634 123.691 17.4666C124.27 16.4698 125.002 15.7007 125.887 15.1591C126.786 14.6251 127.738 14.3561 128.744 14.3521C129.764 14.3556 130.745 14.6318 131.69 15.1807C132.635 15.7296 133.355 16.4422 133.85 17.3184C134.345 18.1947 134.577 19.1517 134.545 20.1895C134.521 21.2143 134.216 22.2316 133.63 23.2414L133.362 23.6573ZM131.002 16.3652C130.019 15.7937 129.006 15.6296 127.965 15.873C126.944 16.1108 126.095 16.7083 125.419 17.6654L132.659 21.8724C133.155 20.8101 133.247 19.7727 132.935 18.7603C132.643 17.7425 131.999 16.9442 131.002 16.3652Z" fill="url(#paint24_linear_123_3208)"></path> <path d="M147.11 26.6257C148.199 27.631 148.768 28.7471 148.817 29.9741C148.887 31.2002 148.364 32.4183 147.247 33.6283L142.603 38.6609L141.432 37.5795L145.969 32.6624C146.802 31.7603 147.211 30.8646 147.196 29.9753C147.182 29.086 146.757 28.2554 145.921 27.4837C144.986 26.6206 143.985 26.2157 142.918 26.269C141.871 26.3214 140.896 26.8372 139.993 27.8162L135.79 32.3703L134.619 31.2889L142.628 22.6096L143.75 23.6454L142.273 25.2459C143.079 25.0124 143.895 25.0116 144.719 25.2434C145.565 25.4744 146.362 25.9352 147.11 26.6257Z" fill="url(#paint25_linear_123_3208)"></path> <path d="M149.242 47.3659C148.569 46.4117 148.173 45.4086 148.054 44.3568C147.944 43.3171 148.111 42.3201 148.555 41.3655C149.011 40.4024 149.71 39.5886 150.652 38.9242C151.594 38.2598 152.589 37.8785 153.637 37.7804C154.685 37.6822 155.68 37.8596 156.622 38.3125C157.572 38.7776 158.384 39.4873 159.057 40.4415C159.643 41.2734 160 42.1301 160.127 43.0114C160.275 43.8964 160.171 44.7485 159.814 45.5678L158.468 45.0612C158.721 44.4066 158.791 43.7527 158.678 43.0994C158.578 42.4374 158.325 41.819 157.919 41.244C157.428 40.5467 156.824 40.0288 156.11 39.6904C155.416 39.3556 154.669 39.2319 153.87 39.3194C153.08 39.4191 152.318 39.7278 151.584 40.2455C150.838 40.7718 150.285 41.3907 149.926 42.1021C149.588 42.8171 149.454 43.562 149.524 44.3368C149.615 45.1153 149.906 45.8532 150.398 46.5505C150.803 47.1255 151.295 47.5757 151.872 47.9011C152.449 48.2266 153.089 48.38 153.79 48.3616L153.815 49.8001C152.924 49.8609 152.081 49.6775 151.285 49.2499C150.501 48.8136 149.82 48.1856 149.242 47.3659Z" fill="url(#paint26_linear_123_3208)"></path> <path d="M168.987 59.2147L154.506 59.3058C153.3 59.3276 152.355 59.1483 151.673 58.7676C150.991 58.387 150.467 57.7946 150.102 56.9903C149.867 56.4724 149.729 55.9513 149.688 55.4272C149.648 54.9031 149.717 54.4032 149.895 53.9275L151.285 54.1102C150.987 54.903 151.012 55.6811 151.358 56.4444C151.581 56.9352 151.906 57.289 152.333 57.506C152.767 57.7366 153.378 57.8533 154.169 57.8561L155.425 57.8528L163.975 48.1735L164.661 49.6866L157.362 57.8852L168.337 57.7834L168.987 59.2147Z" fill="url(#paint27_linear_123_3208)"></path> <path d="M169.715 75.118C169.715 76.1515 168.877 76.9893 167.844 76.9893C166.811 76.9893 165.973 76.1515 165.973 75.118C165.973 74.0845 166.811 73.2467 167.844 73.2467C168.877 73.2467 169.715 74.0845 169.715 75.118Z" fill="url(#paint28_linear_123_3208)"></path> <defs> <linearGradient id="paint0_linear_123_3208" x1="0" y1="0" x2="211.025" y2="57.2321" gradientUnits="userSpaceOnUse"> <stop stop-color="#FFF173"></stop> <stop offset="0.503554" stop-color="#FC508B"></stop> <stop offset="1" stop-color="#7CB3F7"></stop> </linearGradient> <linearGradient id="paint1_linear_123_3208" x1="0" y1="0" x2="211.025" y2="57.2321" gradientUnits="userSpaceOnUse"> <stop stop-color="#FFF173"></stop> <stop offset="0.503554" stop-color="#FC508B"></stop> <stop offset="1" stop-color="#7CB3F7"></stop> </linearGradient> <linearGradient id="paint2_linear_123_3208" x1="0" y1="0" x2="211.025" y2="57.2321" gradientUnits="userSpaceOnUse"> <stop stop-color="#FFF173"></stop> <stop offset="0.503554" stop-color="#FC508B"></stop> <stop offset="1" stop-color="#7CB3F7"></stop> </linearGradient> <linearGradient id="paint3_linear_123_3208" x1="0" y1="0" x2="211.025" y2="57.2321" gradientUnits="userSpaceOnUse"> <stop stop-color="#FFF173"></stop> <stop offset="0.503554" stop-color="#FC508B"></stop> <stop offset="1" stop-color="#7CB3F7"></stop> </linearGradient> <linearGradient id="paint4_linear_123_3208" x1="0" y1="0" x2="211.025" y2="57.2321" gradientUnits="userSpaceOnUse"> <stop stop-color="#FFF173"></stop> <stop offset="0.503554" stop-color="#FC508B"></stop> <stop offset="1" stop-color="#7CB3F7"></stop> </linearGradient> <linearGradient id="paint5_linear_123_3208" x1="0" y1="0" x2="211.025" y2="57.2321" gradientUnits="userSpaceOnUse"> <stop stop-color="#FFF173"></stop> <stop offset="0.503554" stop-color="#FC508B"></stop> <stop offset="1" stop-color="#7CB3F7"></stop> </linearGradient> <linearGradient id="paint6_linear_123_3208" x1="0" y1="0" x2="211.025" y2="57.2321" gradientUnits="userSpaceOnUse"> <stop stop-color="#FFF173"></stop> <stop offset="0.503554" stop-color="#FC508B"></stop> <stop offset="1" stop-color="#7CB3F7"></stop> </linearGradient> <linearGradient id="paint7_linear_123_3208" x1="0" y1="0" x2="211.025" y2="57.2321" gradientUnits="userSpaceOnUse"> <stop stop-color="#FFF173"></stop> <stop offset="0.503554" stop-color="#FC508B"></stop> <stop offset="1" stop-color="#7CB3F7"></stop> </linearGradient> <linearGradient id="paint8_linear_123_3208" x1="0" y1="0" x2="211.025" y2="57.2321" gradientUnits="userSpaceOnUse"> <stop stop-color="#FFF173"></stop> <stop offset="0.503554" stop-color="#FC508B"></stop> <stop offset="1" stop-color="#7CB3F7"></stop> </linearGradient> <linearGradient id="paint9_linear_123_3208" x1="0" y1="0" x2="211.025" y2="57.2321" gradientUnits="userSpaceOnUse"> <stop stop-color="#FFF173"></stop> <stop offset="0.503554" stop-color="#FC508B"></stop> <stop offset="1" stop-color="#7CB3F7"></stop> </linearGradient> <linearGradient id="paint10_linear_123_3208" x1="0" y1="0" x2="211.025" y2="57.2321" gradientUnits="userSpaceOnUse"> <stop stop-color="#FFF173"></stop> <stop offset="0.503554" stop-color="#FC508B"></stop> <stop offset="1" stop-color="#7CB3F7"></stop> </linearGradient> <linearGradient id="paint11_linear_123_3208" x1="0" y1="0" x2="211.025" y2="57.2321" gradientUnits="userSpaceOnUse"> <stop stop-color="#FFF173"></stop> <stop offset="0.503554" stop-color="#FC508B"></stop> <stop offset="1" stop-color="#7CB3F7"></stop> </linearGradient> <linearGradient id="paint12_linear_123_3208" x1="0" y1="0" x2="211.025" y2="57.2321" gradientUnits="userSpaceOnUse"> <stop stop-color="#FFF173"></stop> <stop offset="0.503554" stop-color="#FC508B"></stop> <stop offset="1" stop-color="#7CB3F7"></stop> </linearGradient> <linearGradient id="paint13_linear_123_3208" x1="0" y1="0" x2="211.025" y2="57.2321" gradientUnits="userSpaceOnUse"> <stop stop-color="#FFF173"></stop> <stop offset="0.503554" stop-color="#FC508B"></stop> <stop offset="1" stop-color="#7CB3F7"></stop> </linearGradient> <linearGradient id="paint14_linear_123_3208" x1="0" y1="0" x2="211.025" y2="57.2321" gradientUnits="userSpaceOnUse"> <stop stop-color="#FFF173"></stop> <stop offset="0.503554" stop-color="#FC508B"></stop> <stop offset="1" stop-color="#7CB3F7"></stop> </linearGradient> <linearGradient id="paint15_linear_123_3208" x1="0" y1="0" x2="211.025" y2="57.2321" gradientUnits="userSpaceOnUse"> <stop stop-color="#FFF173"></stop> <stop offset="0.503554" stop-color="#FC508B"></stop> <stop offset="1" stop-color="#7CB3F7"></stop> </linearGradient> <linearGradient id="paint16_linear_123_3208" x1="0" y1="0" x2="211.025" y2="57.2321" gradientUnits="userSpaceOnUse"> <stop stop-color="#FFF173"></stop> <stop offset="0.503554" stop-color="#FC508B"></stop> <stop offset="1" stop-color="#7CB3F7"></stop> </linearGradient> <linearGradient id="paint17_linear_123_3208" x1="0" y1="0" x2="211.025" y2="57.2321" gradientUnits="userSpaceOnUse"> <stop stop-color="#FFF173"></stop> <stop offset="0.503554" stop-color="#FC508B"></stop> <stop offset="1" stop-color="#7CB3F7"></stop> </linearGradient> <linearGradient id="paint18_linear_123_3208" x1="0" y1="0" x2="211.025" y2="57.2321" gradientUnits="userSpaceOnUse"> <stop stop-color="#FFF173"></stop> <stop offset="0.503554" stop-color="#FC508B"></stop> <stop offset="1" stop-color="#7CB3F7"></stop> </linearGradient> <linearGradient id="paint19_linear_123_3208" x1="0" y1="0" x2="211.025" y2="57.2321" gradientUnits="userSpaceOnUse"> <stop stop-color="#FFF173"></stop> <stop offset="0.503554" stop-color="#FC508B"></stop> <stop offset="1" stop-color="#7CB3F7"></stop> </linearGradient> <linearGradient id="paint20_linear_123_3208" x1="0" y1="0" x2="211.025" y2="57.2321" gradientUnits="userSpaceOnUse"> <stop stop-color="#FFF173"></stop> <stop offset="0.503554" stop-color="#FC508B"></stop> <stop offset="1" stop-color="#7CB3F7"></stop> </linearGradient> <linearGradient id="paint21_linear_123_3208" x1="0" y1="0" x2="211.025" y2="57.2321" gradientUnits="userSpaceOnUse"> <stop stop-color="#FFF173"></stop> <stop offset="0.503554" stop-color="#FC508B"></stop> <stop offset="1" stop-color="#7CB3F7"></stop> </linearGradient> <linearGradient id="paint22_linear_123_3208" x1="0" y1="0" x2="211.025" y2="57.2321" gradientUnits="userSpaceOnUse"> <stop stop-color="#FFF173"></stop> <stop offset="0.503554" stop-color="#FC508B"></stop> <stop offset="1" stop-color="#7CB3F7"></stop> </linearGradient> <linearGradient id="paint23_linear_123_3208" x1="0" y1="0" x2="211.025" y2="57.2321" gradientUnits="userSpaceOnUse"> <stop stop-color="#FFF173"></stop> <stop offset="0.503554" stop-color="#FC508B"></stop> <stop offset="1" stop-color="#7CB3F7"></stop> </linearGradient> <linearGradient id="paint24_linear_123_3208" x1="0" y1="0" x2="211.025" y2="57.2321" gradientUnits="userSpaceOnUse"> <stop stop-color="#FFF173"></stop> <stop offset="0.503554" stop-color="#FC508B"></stop> <stop offset="1" stop-color="#7CB3F7"></stop> </linearGradient> <linearGradient id="paint25_linear_123_3208" x1="0" y1="0" x2="211.025" y2="57.2321" gradientUnits="userSpaceOnUse"> <stop stop-color="#FFF173"></stop> <stop offset="0.503554" stop-color="#FC508B"></stop> <stop offset="1" stop-color="#7CB3F7"></stop> </linearGradient> <linearGradient id="paint26_linear_123_3208" x1="0" y1="0" x2="211.025" y2="57.2321" gradientUnits="userSpaceOnUse"> <stop stop-color="#FFF173"></stop> <stop offset="0.503554" stop-color="#FC508B"></stop> <stop offset="1" stop-color="#7CB3F7"></stop> </linearGradient> <linearGradient id="paint27_linear_123_3208" x1="0" y1="0" x2="211.025" y2="57.2321" gradientUnits="userSpaceOnUse"> <stop stop-color="#FFF173"></stop> <stop offset="0.503554" stop-color="#FC508B"></stop> <stop offset="1" stop-color="#7CB3F7"></stop> </linearGradient> <linearGradient id="paint28_linear_123_3208" x1="0" y1="0" x2="211.025" y2="57.2321" gradientUnits="userSpaceOnUse"> <stop stop-color="#FFF173"></stop> <stop offset="0.503554" stop-color="#FC508B"></stop> <stop offset="1" stop-color="#7CB3F7"></stop> </linearGradient> </defs> </svg> 