<svg width="355" height="465" viewBox="0 0 355 465" fill="none" xmlns="http://www.w3.org/2000/svg">
<g clip-path="url(#clip0_1008_140)">
<path d="M8 460H337" stroke="white" stroke-width="5" stroke-linecap="round"/>
<path d="M89.5 383H15.5C10.2533 383 6 387.253 6 392.5V432.5C6 437.747 10.2533 442 15.5 442H89.5C94.7467 442 99 437.747 99 432.5V392.5C99 387.253 94.7467 383 89.5 383Z" stroke="white"/>
<path d="M169.5 320H129.5C124.253 320 120 324.253 120 329.5V432.5C120 437.747 124.253 442 129.5 442H169.5C174.747 442 179 437.747 179 432.5V329.5C179 324.253 174.747 320 169.5 320Z" stroke="white"/>
<path d="M249.5 237H209.5C204.253 237 200 241.253 200 246.5V432.5C200 437.747 204.253 442 209.5 442H249.5C254.747 442 259 437.747 259 432.5V246.5C259 241.253 254.747 237 249.5 237Z" stroke="white"/>
<path opacity="0.8" d="M329.5 143H289.5C284.253 143 280 147.253 280 152.5V432.5C280 437.747 284.253 442 289.5 442H329.5C334.747 442 339 437.747 339 432.5V152.5C339 147.253 334.747 143 329.5 143Z" stroke="white"/>
<path d="M15.8194 331.584C30.6968 316.397 45.8854 301.515 61.194 286.61C76.5267 271.822 92.0021 257.126 107.646 242.641C123.385 228.017 139.316 213.718 155.271 199.536C171.225 185.355 187.371 171.499 203.78 157.714C220.07 143.953 236.647 130.378 253.294 117.152C255.339 115.551 257.48 113.811 259.525 112.21C259.07 111.813 258.495 111.439 258.017 110.926C251.403 123.806 244.812 136.802 238.318 149.658C239.036 150.126 239.732 150.477 240.451 150.945C246.897 137.855 253.896 125.023 260.198 111.84C260.561 111.165 259.843 110.093 258.98 110.137C250.938 110.465 243.061 112.213 235.327 114.055C231.531 115.022 227.616 116.013 223.797 116.864C220.219 117.669 216.615 118.963 212.846 119.442C211.405 119.718 211.854 121.931 213.295 121.655C216.801 121.106 220.33 120.673 223.909 119.868C227.704 118.9 231.619 117.909 235.415 116.942C243.124 114.983 250.835 113.025 258.852 112.581C258.494 112.045 258.015 111.531 257.633 110.878C251.427 123.922 244.285 136.661 238.222 149.798C237.594 151.007 239.799 152.037 240.427 150.828C246.897 137.855 253.368 124.882 259.839 111.908C260.273 110.978 259.196 109.974 258.33 110.624C241.539 123.756 224.818 137.237 208.361 150.789C191.929 164.457 175.639 178.219 159.541 192.308C143.345 206.536 127.439 220.95 111.818 235.552C96.1991 250.154 80.8432 264.825 65.6782 279.824C50.5133 294.823 35.8032 310.219 21.0932 325.615C19.2394 327.541 17.3856 329.469 15.652 331.373C15.5556 331.513 15.723 331.723 15.8194 331.584Z" fill="white"/>
<path d="M12.6291 330.621C11.2609 330.64 10.0348 331.359 9.26351 332.474C8.37209 333.613 8.31943 335.195 8.81981 336.431C9.32019 337.666 10.6612 338.74 11.9565 338.976C13.5158 339.283 15.0767 338.985 16.352 337.894C18.5896 336.014 19.8738 331.897 17.6486 329.54C15.7582 327.602 12.3032 327.175 10.1619 328.915C7.49132 331.119 7.67171 335.077 9.89695 337.435C10.7102 338.368 12.4895 337.301 11.749 336.112C11.5816 335.903 11.5342 335.67 11.3668 335.46L11.3432 335.343C11.3432 335.343 11.3905 335.576 11.3432 335.343C11.3195 335.227 11.2958 335.11 11.2722 334.993C11.2249 334.76 11.1775 334.528 11.1302 334.295C11.1066 334.179 11.0356 333.829 11.1066 334.179C11.083 334.062 11.0592 333.945 11.1557 333.806C11.1084 333.573 11.1811 333.317 11.2538 333.061C11.3267 332.806 11.1811 333.317 11.2302 332.945C11.2066 332.828 11.3029 332.689 11.2793 332.573C11.3521 332.316 11.4248 332.061 11.5212 331.921C11.6176 331.782 11.7141 331.642 11.5212 331.921C11.6176 331.782 11.7141 331.642 11.6904 331.526C11.7868 331.387 11.7868 331.387 11.8832 331.247C12.0761 330.968 11.7868 331.387 11.8832 331.247C11.9796 331.108 12.0997 331.084 12.1961 330.946C12.1961 330.946 12.3162 330.922 12.2926 330.806C12.509 330.643 12.2926 330.806 12.1725 330.829C12.2689 330.689 12.6291 330.621 12.7256 330.481C12.8456 330.458 13.0858 330.412 12.8456 330.458C12.6055 330.504 13.0858 330.412 13.0858 330.412C13.2059 330.39 13.3259 330.366 13.446 330.343C13.446 330.343 13.8061 330.274 13.566 330.321C13.3259 330.366 13.6861 330.297 13.8061 330.274C13.9262 330.252 14.0463 330.228 14.1901 330.322C14.1901 330.322 14.5739 330.37 14.3102 330.299C14.1901 330.322 14.4539 330.392 14.5739 330.37C14.694 330.347 14.7177 330.463 14.8377 330.44C14.8377 330.44 15.2453 330.604 15.1016 330.511C14.9578 330.418 15.2453 330.604 15.3654 330.582C15.5092 330.675 15.5092 330.675 15.6528 330.768C15.7965 330.861 15.6292 330.652 15.6765 330.885C15.8203 330.978 15.8439 331.094 15.9876 331.189C16.155 331.398 15.964 331.072 16.0113 331.304C16.0349 331.421 16.0586 331.537 16.1787 331.515C16.346 331.725 16.1787 331.515 16.1787 331.515C16.2023 331.631 16.2023 331.631 16.226 331.747C16.2497 331.864 16.297 332.097 16.3206 332.213C16.3898 333.168 16.0261 334.448 15.4476 335.284C15.1584 335.703 14.8691 336.121 14.4361 336.445C14.1232 336.747 13.763 336.816 13.2827 336.908C13.0425 336.954 13.2827 336.908 13.1626 336.931C13.0425 336.954 12.9225 336.977 12.7788 336.884C12.6587 336.906 12.635 336.79 12.2511 336.742C11.8436 336.579 11.436 336.415 11.1249 336.111C10.359 335.41 10.0495 334.501 10.3406 333.478C10.608 332.338 11.4266 331.456 12.6037 331.11C12.9639 331.041 12.9893 330.552 12.6291 330.621Z" fill="white"/>
<path d="M11.9754 274.522C9.12891 272.458 5.59834 274.322 3.54921 276.662C1.54003 279.27 0.085208 282.758 0.564579 285.975C1.04395 289.193 3.65406 291.564 6.75522 292.497C8.67111 293.049 10.5072 293.065 12.3631 293.215C13.7847 293.289 18.2458 292.938 18.5055 294.68C18.8251 296.825 14.3257 297.867 12.8459 298.348C12.1751 298.579 6.55204 300.599 6.15587 299.833C5.75969 299.068 4.25995 299.415 4.53792 300.334C4.89581 301.789 6.19919 302.016 7.56083 301.689C9.61324 301.265 11.6457 300.706 13.6582 300.013C16.2033 299.109 21.8663 297.356 20.0436 293.643C19.2513 292.112 17.3952 291.962 15.9536 291.754C13.8014 291.508 11.5509 291.55 9.37859 291.17C5.48845 290.621 2.16758 288.214 2.53547 284.056C2.90503 280.858 6.68202 273.075 11.1681 275.73C11.9188 276.035 12.7461 274.961 11.9754 274.522Z" fill="white"/>
<path d="M21.0061 279.277C24.1606 276.781 27.1169 273.903 28.3936 270.166C28.9828 268.442 29.3541 266.2 28.5417 264.535C27.8676 262.851 25.8135 262.318 24.2355 263.087C22.3812 263.894 21.6937 265.906 21.4007 267.726C21.0494 270.102 20.9745 272.438 21.1959 274.871C21.4173 277.303 21.915 279.696 22.669 281.917C23.3831 283.87 24.6299 285.611 26.8022 285.99C31.8775 286.92 34.9687 282.108 36.2055 278.103C36.7748 276.244 33.93 275.137 33.2226 277.016C32.2986 279.335 31.2583 282.765 28.3769 283.306C26.9953 283.5 25.9283 282.965 25.3141 281.683C24.5017 280.018 24.104 278.295 23.8443 276.552C23.5647 274.676 23.305 272.933 23.3016 271.018C23.3382 269.37 23.335 267.455 23.9642 265.998C24.6333 264.81 26.4877 264.002 27.0436 265.84C27.4015 267.295 27.0686 268.847 26.7157 270.265C25.6553 273.561 23.1135 276.381 20.4918 278.664C19.8409 279.03 20.5134 279.756 21.0061 279.277Z" fill="white"/>
<path d="M78.6745 224.249C81.8286 221.754 84.7857 218.876 86.0621 215.139C86.6512 213.415 87.0229 211.173 86.2105 209.508C85.5364 207.823 83.4822 207.291 81.9042 208.059C80.0499 208.866 79.3617 210.879 79.0695 212.699C78.7184 215.074 78.6427 217.411 78.864 219.844C79.0853 222.276 79.5839 224.669 80.3374 226.89C81.0517 228.842 82.2983 230.583 84.471 230.962C89.5458 231.893 92.6373 227.08 93.8735 223.075C94.4431 221.216 91.5981 220.11 90.8913 221.988C89.9669 224.307 88.9267 227.738 86.0453 228.278C84.6634 228.472 83.5971 227.938 82.9827 226.656C82.1703 224.991 81.7726 223.267 81.513 221.525C81.2329 219.648 80.9733 217.906 80.9705 215.99C81.0069 214.343 81.0032 212.427 81.6325 210.971C82.302 209.782 84.1563 208.975 84.7119 210.813C85.0705 212.268 84.7371 213.82 84.3842 215.237C83.3235 218.534 80.7819 221.354 78.16 223.637C77.6278 223.849 78.1619 224.595 78.6745 224.249Z" fill="white"/>
<path d="M33.9089 252.287C35.139 255.809 36.231 259.35 37.3429 263.026C37.8789 264.73 38.4149 266.433 38.9709 268.271C39.5069 269.975 39.6283 271.737 40.8352 273.21C41.5476 274.205 42.8294 273.341 42.8277 272.383C42.7062 270.621 41.6175 268.995 40.9434 267.311C40.1311 265.645 39.4569 263.961 38.7828 262.277C37.4345 258.908 35.948 255.558 34.5997 252.19C34.4998 251.52 33.829 251.751 33.9089 252.287Z" fill="white"/>
<path d="M40.3008 248.79C41.5109 252.178 42.5829 255.586 43.5167 259.013C44.4306 262.306 45.0681 265.637 45.9819 268.931C46.5579 270.902 49.5375 270.074 48.8234 268.121C47.4951 264.886 45.8904 261.69 44.4239 258.475C42.9574 255.259 41.7673 252.005 40.5571 248.617C40.5371 248.483 40.2609 248.522 40.3008 248.79Z" fill="white"/>
<path d="M52.8819 252.773C53.8674 251.813 54.7146 250.874 55.5619 249.934C55.9165 249.473 56.4093 248.993 56.7638 248.533C57.1183 248.073 57.453 247.479 57.7875 246.884C58.0039 246.444 57.944 246.042 57.6278 245.812C57.3114 245.583 56.7588 245.661 56.5224 245.968C55.1242 247.942 53.5678 249.803 51.8533 251.549C51.4787 251.875 51.4004 252.296 51.7367 252.659C51.9148 252.909 52.5074 253.099 52.8819 252.773Z" fill="white"/>
<path d="M93.3197 198.521C95.7399 205.298 97.2329 212.478 97.8575 219.507C98.8249 219.371 99.7913 219.235 100.739 218.965C99.4056 212.858 97.105 206.885 94.963 201.028C94.1936 201.547 93.5428 201.911 92.7734 202.43C95.4635 205.337 97.6811 208.857 100.982 211.131C102.247 212.049 104.242 213.137 105.86 212.637C107.479 212.136 108.325 210.238 108.381 208.725C108.65 204.855 105.86 201.279 103.98 198.121C101.524 193.95 98.8127 189.951 96.0816 185.818C94.9929 184.192 92.1525 185.959 93.2412 187.585C95.1021 190.608 96.9836 193.765 98.9827 196.769C100.824 199.659 103.059 202.356 104.506 205.437C104.922 206.336 105.754 208.135 105.203 209.171C104.395 210.378 102.142 208.505 101.352 207.932C98.9397 205.944 96.7035 203.247 94.6465 200.798C93.7959 199.823 91.9415 200.631 92.3972 201.799C94.0069 207.867 95.499 214.09 97.9173 219.908C98.5513 221.325 101.116 220.555 100.62 219.119C98.7128 211.997 96.4308 205.201 93.7146 198.329C93.7921 197.908 93.2599 198.119 93.3197 198.521Z" fill="white"/>
<path d="M70.7994 224.397C69.791 223.306 68.3092 222.829 66.8096 223.177C65.1516 223.409 63.7917 224.695 63.0242 226.171C62.1387 227.801 61.7075 229.64 61.5527 231.441C61.2998 233.529 61.323 235.578 61.6426 237.723C62.3002 241.189 64.5573 244.977 68.566 245.373C73.0086 245.844 75.6669 241.914 77.4176 238.521C77.9685 237.486 78.5399 236.584 78.3803 235.512C78.3784 234.554 77.8238 233.675 77.0338 233.101C75.2336 231.437 72.7471 231.786 70.4381 232.384C70.9731 233.13 71.3484 233.762 71.8835 234.507C73.2616 232.398 74.9759 230.653 76.5128 228.658C77.2215 227.738 76.0749 226.667 75.1477 227.071C72.5044 228.262 70.6127 230.717 69.4324 233.209C68.9021 234.379 70.3055 235.276 71.3905 234.987C72.594 234.544 75.4353 233.735 75.9918 235.573C76.2495 236.358 75.4222 237.432 75.087 238.027C74.6547 238.908 74.2019 239.656 73.6108 240.424C72.5473 241.804 71.0496 243.109 69.2532 243.36C67.5753 243.459 66.0338 242.58 65.1232 241.203C62.8478 238.239 62.7013 233.469 63.4653 230.077C63.7983 228.526 64.3876 226.801 65.7875 225.784C66.931 224.939 68.5893 224.706 69.7359 225.777C70.4866 226.083 71.4521 224.989 70.7994 224.397Z" fill="white"/>
<g clip-path="url(#clip1_1008_140)">
<path d="M340.58 2.2006L338.868 14.9039L347.444 24.525L334.679 22.7437L325.07 31.2271L326.782 18.5238L318.206 8.90265L330.971 10.684L340.58 2.2006Z" fill="white"/>
<path d="M246.296 11.4687L245.341 18.5562L245.312 18.7706L245.456 18.933L250.241 24.3011L243.119 23.3071L242.904 23.277L242.742 23.4202L237.381 28.1535L238.336 21.066L238.365 20.8516L238.22 20.6892L233.435 15.3211L240.557 16.3151L240.772 16.3452L240.935 16.202L246.296 11.4687Z" fill="white" stroke="white"/>
<path d="M343.253 94.3223L342.422 100.492L346.587 105.166L340.387 104.301L335.72 108.421L336.551 102.251L332.386 97.5776L338.586 98.4427L343.253 94.3223Z" fill="white"/>
</g>
</g>
<defs>
<clipPath id="clip0_1008_140">
<rect width="355" height="465" fill="white"/>
</clipPath>
<clipPath id="clip1_1008_140">
<rect width="181.85" height="108.134" fill="white" transform="translate(262.926 -53.6514) rotate(36.2374)"/>
</clipPath>
</defs>
</svg>
