<svg width="420" height="350" viewBox="0 0 420 350" fill="none" xmlns="http://www.w3.org/2000/svg">
<g clip-path="url(#clip0_1002_134)">
<rect y="346" width="420" height="4" rx="2" fill="black"/>
<line x1="10.5" y1="39.5" x2="409.5" y2="39.5" stroke="#EBEBEB" stroke-linecap="round"/>
<line x1="10.5" y1="279.5" x2="409.5" y2="279.5" stroke="#EBEBEB" stroke-linecap="round"/>
<line x1="10.5" y1="319.5" x2="409.5" y2="320.5" stroke="#EBEBEB" stroke-linecap="round"/>
<line x1="10.5" y1="239.5" x2="409.5" y2="239.5" stroke="#EBEBEB" stroke-linecap="round"/>
<line x1="10.5" y1="119.5" x2="409.5" y2="119.5" stroke="#EBEBEB" stroke-linecap="round"/>
<line x1="10.5" y1="79.5" x2="409.5" y2="79.5" stroke="#EBEBEB" stroke-linecap="round"/>
<line x1="10.5" y1="159.5" x2="409.5" y2="159.5" stroke="#EBEBEB" stroke-linecap="round"/>
<line x1="10.5" y1="199.5" x2="409.5" y2="199.5" stroke="#EBEBEB" stroke-linecap="round"/>
<path d="M0.483455 14.1771C16.9105 46.7755 32.5615 80.0711 49.7646 111.798C54.5504 120.688 59.4656 129.404 64.5101 137.946C65.8036 140.038 68.7786 140.91 69.8133 137.772C76.6687 114.587 83.6534 91.2278 90.5088 67.8685C88.698 68.2172 87.0164 68.5658 85.2056 68.9145C100.598 93.1453 115.99 117.376 131.512 141.433C133.064 143.699 135.651 142.479 136.686 140.387C140.049 133.414 144.188 127.313 149.103 122.432C147.809 122.257 146.516 122.083 145.093 121.909C153.501 134.634 161.779 147.534 170.316 160.26C171.868 162.526 174.584 161.48 175.619 159.214C189.847 126.964 206.404 96.4575 224.9 68.5658C230.333 60.3726 235.895 52.7024 241.586 45.0322C239.775 44.8579 237.964 44.5093 236.024 44.335C252.968 80.9427 271.336 116.156 290.738 150.323C310.398 185.013 331.094 218.483 352.824 250.733C358.903 259.624 364.983 268.514 371.191 277.23C377.529 286.295 383.867 295.36 390.852 303.379C394.862 308.085 399.906 300.589 396.543 295.36C391.111 287.167 385.419 279.496 379.728 271.477C374.166 263.807 368.604 255.963 363.172 247.944C352.307 232.081 341.571 215.869 331.094 199.482C310.528 167.058 290.996 133.588 272.5 98.898C262.281 79.3738 252.192 59.501 242.362 39.2796C241.068 36.6648 238.482 36.3161 236.8 38.5823C217.01 66.2996 198.772 96.1088 182.733 127.836C178.335 136.726 173.937 145.616 169.928 154.856C171.739 154.507 173.42 154.158 175.231 153.81C166.823 141.084 158.287 128.359 149.879 115.807C148.974 114.413 147.033 114.064 145.869 115.284C140.049 121.211 135.004 128.184 130.994 136.377C132.676 136.029 134.487 135.68 136.168 135.331C120.776 110.752 105.384 86.5211 89.8621 62.4645C88.0512 59.501 85.0762 61.7672 84.3002 64.5564C77.5741 88.09 70.8481 111.449 64.1221 134.983C65.8036 134.285 67.4851 133.588 69.1666 133.065C50.67 102.907 34.7603 70.1347 18.592 37.7107C14.0649 28.6459 9.53773 19.5811 4.88124 10.5163C2.94104 6.85557 -1.45675 10.5163 0.483455 14.1771Z" fill="#51A0FF"/>
<path d="M402 329C411.941 329 420 320.941 420 311C420 301.059 411.941 293 402 293C392.059 293 384 301.059 384 311C384 320.941 392.059 329 402 329Z" fill="white"/>
<path fill-rule="evenodd" clip-rule="evenodd" d="M383.967 311.048C383.967 319.997 390.467 327.439 398.967 328.948V315.947H394.467V310.948H398.967V306.947C398.967 302.447 401.867 299.948 405.968 299.948C407.267 299.948 408.668 300.148 409.967 300.347V304.948H407.667C405.467 304.948 404.967 306.047 404.967 307.448V310.948H409.767L408.968 315.947H404.967V328.948C413.468 327.439 419.967 319.999 419.967 311.048C419.967 301.093 411.867 292.948 401.967 292.948C392.067 292.948 383.967 301.093 383.967 311.048Z" fill="#51A0FF"/>
</g>
<defs>
<clipPath id="clip0_1002_134">
<rect width="420" height="350" fill="white"/>
</clipPath>
</defs>
</svg>
