<?xml version="1.0" encoding="UTF-8"?> <svg xmlns="http://www.w3.org/2000/svg" width="79" height="59" viewBox="0 0 79 59" fill="none"> <path d="M69.9902 0L8.13712 0C3.65621 0 0 3.7029 0 8.24104L0 38.5603C0 43.0984 3.65621 46.8013 8.13712 46.8013H23.2568C24.1639 46.8013 25.0711 47.1354 25.7584 47.7479L36.5895 57.1305C38.019 58.3555 40.0808 58.3555 41.5103 57.1305L52.3415 47.7479C53.0287 47.1354 53.9359 46.8013 54.8431 46.8013H69.9627C74.4436 46.8013 78.0999 43.0984 78.0999 38.5603V8.24104C78.1273 3.7029 74.4986 0 69.9902 0Z" fill="white"></path> <path d="M39.1367 34.9964L28.6405 27.0895C27.4712 26.2264 26.5524 25.0571 26.0791 23.6928C24.1581 18.0689 29.8377 11.5819 36.1298 14.3938C36.2691 14.4495 36.4083 14.533 36.5753 14.6166L39.1367 15.953L41.6981 14.6166C41.8373 14.533 41.9765 14.4774 42.1436 14.3938C48.4357 11.554 54.1154 18.0411 52.1943 23.6928C51.721 25.0571 50.8022 26.2264 49.6329 27.0895L39.1367 34.9964Z" fill="#3D618D"></path> </svg> 