<?xml version="1.0" encoding="UTF-8"?> <svg xmlns="http://www.w3.org/2000/svg" width="203" height="116" viewBox="0 0 203 116" fill="none"> <path d="M49.1506 2.00007C59.0706 2.00007 67.6573 3.65341 74.9106 6.96008C82.2706 10.2667 87.924 14.9601 91.8706 21.0401C95.8173 27.1201 97.7906 34.3201 97.7906 42.6401C97.7906 50.8534 95.8173 58.0534 91.8706 64.2401C87.924 70.3201 82.2706 75.0134 74.9106 78.3201C67.6573 81.5201 59.0706 83.1201 49.1506 83.1201H26.5906V114H0.670624V2.00007H49.1506ZM47.7106 62.0001C55.4973 62.0001 61.4173 60.3467 65.4706 57.0401C69.524 53.6267 71.5506 48.8267 71.5506 42.6401C71.5506 36.3467 69.524 31.5467 65.4706 28.2401C61.4173 24.8267 55.4973 23.1201 47.7106 23.1201H26.5906V62.0001H47.7106Z" fill="#333333"></path> <path d="M154.658 115.92C145.805 115.92 137.218 114.747 128.898 112.4C120.685 109.947 114.071 106.8 109.058 102.96L117.858 83.4401C122.658 86.9601 128.365 89.7867 134.978 91.9201C141.591 94.0534 148.205 95.1201 154.818 95.1201C162.178 95.1201 167.618 94.0534 171.138 91.9201C174.658 89.6801 176.418 86.7467 176.418 83.1201C176.418 80.4534 175.351 78.2667 173.218 76.5601C171.191 74.7467 168.525 73.3067 165.218 72.2401C162.018 71.1734 157.645 70.0001 152.098 68.7201C143.565 66.6934 136.578 64.6667 131.138 62.6401C125.698 60.6134 121.005 57.3601 117.058 52.8801C113.218 48.4001 111.298 42.4267 111.298 34.9601C111.298 28.4534 113.058 22.5867 116.578 17.3601C120.098 12.0267 125.378 7.81341 132.418 4.72008C139.565 1.62674 148.258 0.0800781 158.498 0.0800781C165.645 0.0800781 172.631 0.93341 179.458 2.64007C186.285 4.34674 192.258 6.80008 197.378 10.0001L189.378 29.6801C179.031 23.8134 168.685 20.8801 158.338 20.8801C151.085 20.8801 145.698 22.0534 142.178 24.4001C138.765 26.7467 137.058 29.8401 137.058 33.6801C137.058 37.5201 139.031 40.4001 142.978 42.3201C147.031 44.1334 153.165 45.9467 161.378 47.7601C169.911 49.7867 176.898 51.8134 182.338 53.8401C187.778 55.8667 192.418 59.0667 196.258 63.4401C200.205 67.8134 202.178 73.7334 202.178 81.2001C202.178 87.6001 200.365 93.4667 196.738 98.8001C193.218 104.027 187.885 108.187 180.738 111.28C173.591 114.373 164.898 115.92 154.658 115.92Z" fill="#333333"></path> </svg> 