<?xml version="1.0" encoding="UTF-8"?> <svg xmlns="http://www.w3.org/2000/svg" width="167" height="39" viewBox="0 0 167 39" fill="none"> <g clip-path="url(#clip0_123_2971)"> <path d="M23.113 10.4437C21.4853 6.52734 16.6023 6.36416 13.0214 7.83278C9.60328 9.46458 6.18515 12.0755 4.72023 15.6654C3.09255 19.4186 4.3947 23.3349 7.16175 26.2721C8.62667 27.9039 10.4171 29.0462 12.3703 30.1884C13.3469 30.8412 14.1608 31.3307 15.1374 31.9834C15.9512 32.6361 18.0672 33.7784 17.9044 35.0838C17.0906 37.8579 11.5565 36.2261 9.76604 35.8997C8.4639 35.5734 7.16175 35.247 5.85961 34.9206C5.20854 34.7575 1.95318 34.2679 2.11595 33.2888C2.27871 32.1466 0.325497 31.9834 0.162729 33.1257C-0.325575 34.9206 1.30211 35.8997 2.76702 36.3893C5.20854 37.2052 7.65006 37.6947 10.0916 38.1842C12.2076 38.5106 14.6491 39.1633 16.9278 38.5106C18.5555 38.0211 20.0204 36.5524 20.0204 34.7575C20.0204 32.6361 17.9044 31.3307 16.4395 30.1884C14.4863 28.7198 12.2076 27.5776 10.4171 25.9458C8.78943 24.4771 7.16175 22.8453 6.67345 20.5608C6.02238 18.4395 6.67345 16.3181 8.13836 14.5232C10.5799 11.2596 18.8811 5.71144 21.8109 11.2596C22.1364 12.0755 23.6013 11.4227 23.113 10.4437Z" fill="#51A0FF"></path> <path d="M29.2982 26.272C33.8557 25.9457 38.5759 25.1298 42.3196 22.5189C44.1101 21.2135 45.7377 19.5817 46.5516 17.6235C47.3654 15.5022 46.3888 13.3808 44.1101 12.5649C41.6685 11.749 39.5525 13.0545 37.9249 14.6863C35.9717 16.6444 34.344 18.7658 33.0418 21.0503C31.5769 23.3348 30.4375 25.7825 29.6237 28.3934C28.8099 30.8411 27.996 33.452 29.6237 35.8997C31.0886 38.021 33.8557 39.1633 36.2972 39.0001C39.3898 38.8369 42.3196 37.0419 44.7611 35.2469C46.5516 33.7783 44.9239 30.6779 42.8079 31.9833C40.2036 33.7783 36.46 36.7156 33.2046 34.5942C31.5769 33.452 31.9025 31.657 32.3908 30.0252C33.0418 28.067 33.6929 26.1089 34.6695 24.1507C35.6461 22.3557 36.6227 20.5608 37.9249 18.929C39.0642 17.4603 40.3664 15.5022 41.9941 14.8495C42.6451 14.5231 43.6218 14.5231 44.2728 15.0126C45.2494 15.6654 44.7611 16.8076 44.2728 17.6235C43.459 19.0921 42.1568 20.3976 40.8547 21.2135C37.5993 23.498 33.5301 24.4771 29.6237 25.1298C28.4843 25.1298 28.4843 26.272 29.2982 26.272Z" fill="#51A0FF"></path> <path d="M123.704 25.4558C128.098 25.2927 132.819 24.6399 136.725 22.3554C138.678 21.2132 140.469 19.4182 141.445 17.2969C142.259 15.1755 141.283 13.0542 139.167 12.2383C136.725 11.4224 134.446 12.7278 132.819 14.3596C130.865 16.1546 129.238 18.2759 127.773 20.3973C126.308 22.5186 125.006 24.9663 124.029 27.414C123.053 29.8617 122.076 32.6358 123.541 35.2466C124.843 37.368 127.61 38.6734 130.052 38.6734C133.144 38.6734 136.074 37.0416 138.678 35.2466C140.632 33.778 138.841 30.8408 136.725 31.983C133.958 33.6148 130.052 36.5521 126.959 34.1044C125.331 32.9621 125.82 31.004 126.471 29.3722C127.122 27.414 127.936 25.619 129.075 23.824C130.052 22.0291 131.191 20.3973 132.493 18.7655C133.633 17.2969 135.097 15.5019 136.888 14.8492C137.539 14.686 138.516 14.686 139.004 15.1755C139.818 15.9914 139.167 17.1337 138.678 17.7864C137.702 19.0918 136.562 20.2341 135.097 21.2132C131.679 23.3345 127.61 24.1504 123.704 24.4768C122.89 24.4768 122.89 25.4558 123.704 25.4558Z" fill="#51A0FF"></path> <path d="M60.0613 11.912C59.0847 16.1547 57.9453 20.3973 56.806 24.64C56.3177 26.7614 55.6666 28.8827 55.0155 30.8409C54.3644 32.9622 53.3878 35.0835 53.5506 37.2049C53.7134 38.5103 55.3411 38.9999 55.9921 37.8576C56.9687 36.0626 56.9687 33.7781 57.2943 31.6568C57.6198 29.3722 57.9453 27.2509 58.4336 24.9664C59.2475 20.5605 59.8986 16.3178 60.8752 11.912C61.0379 11.5856 60.2241 11.4225 60.0613 11.912Z" fill="#51A0FF"></path> <path d="M68.688 12.4015C67.7114 16.481 66.7348 20.7236 65.4327 24.64C64.1305 28.7195 62.6656 32.6358 61.5262 36.7153C60.8752 38.8366 64.4561 39.8157 64.9444 37.5312C65.7582 33.2885 66.0837 29.0458 66.7348 24.8031C67.3859 20.5605 68.1997 16.481 69.1763 12.2383C69.0136 12.2383 68.688 12.2383 68.688 12.4015Z" fill="#51A0FF"></path> <path d="M77.9659 27.0876C80.8957 27.5771 83.9883 27.9035 87.0809 27.5771C88.383 27.4139 88.2203 25.6189 87.0809 25.6189C84.1511 25.6189 81.384 25.6189 78.4542 25.1294C77.9659 25.1294 77.3148 25.2926 77.3148 25.7821C77.152 26.2717 77.4776 26.9244 77.9659 27.0876Z" fill="#51A0FF"></path> <path d="M155.118 12.2384C152.676 20.3974 149.258 28.5564 144.864 35.8995C145.84 36.389 146.817 37.0418 147.793 37.5313C150.723 30.6777 152.676 23.1715 154.955 15.9915C153.979 15.8284 153.002 15.8284 151.863 15.6652C152.514 20.3974 152.025 25.7823 153.816 30.3514C154.467 31.9832 155.606 34.2677 157.559 34.7572C159.513 35.2468 161.629 33.615 162.605 32.1464C165.21 28.7196 165.047 23.8242 165.535 19.7447C166.023 13.8702 166.349 7.83255 166.674 1.95807C166.837 -0.652809 162.931 -0.489629 162.605 2.12125C162.28 6.52711 161.791 11.0961 161.629 15.502C161.303 19.4183 161.629 23.4978 160.815 27.251C160.652 28.3932 160.164 30.1882 159.024 31.0041C157.559 32.1464 156.583 29.0459 156.257 27.9037C155.118 24.1505 154.955 19.7447 154.792 15.8284C154.63 14.0334 152.351 13.8702 151.7 15.502C149.095 22.3556 146.166 29.3723 144.375 36.5522C143.887 38.6736 146.98 39.3263 147.631 37.3681C150.723 29.2091 153.165 21.0501 155.443 12.7279C155.932 11.912 155.281 11.7489 155.118 12.2384Z" fill="#51A0FF"></path> <path d="M116.379 17.46C116.379 15.5019 115.077 14.0333 113.449 13.0542C111.496 12.0751 109.217 12.5646 107.264 13.5437C105.148 14.5228 103.358 16.1546 101.73 17.7864C100.102 19.4182 98.6374 21.3764 97.498 23.4977C95.5448 27.2508 95.0565 32.6358 98.8001 35.573C102.869 38.8366 107.915 37.0416 111.984 35.0835C113.124 34.5939 114.263 33.9412 114.914 32.799C115.402 31.8199 115.565 30.6776 115.24 29.6985C114.751 27.0877 112.31 25.619 110.031 24.4768C109.868 25.4559 109.868 26.4349 109.706 27.5772C112.473 26.7613 115.402 26.2718 118.332 25.619C119.634 25.2927 119.472 23.4977 118.332 23.1713C115.077 22.1923 111.496 23.1713 108.403 24.64C107.427 25.1295 107.264 27.0877 108.403 27.414C109.706 27.9036 111.496 28.5563 112.31 29.8617C113.124 31.4935 111.822 32.1462 110.519 32.799C107.59 34.1044 103.846 35.573 100.753 33.778C97.8235 31.9831 98.1491 27.9036 99.2884 25.2927C100.591 22.1923 102.869 19.255 105.636 17.1337C107.101 15.9914 108.892 14.8492 110.845 14.8492C112.31 14.8492 114.263 15.8282 114.589 17.46C114.751 18.6023 116.379 18.6023 116.379 17.46Z" fill="#51A0FF"></path> </g> <defs> <clipPath id="clip0_123_2971"> <rect width="167" height="39" fill="white"></rect> </clipPath> </defs> </svg> 