<svg display="none" xmlns="http://www.w3.org/2000/svg" xmlns:xlink="http://www.w3.org/1999/xlink">
   <symbol id="line" viewBox="0 0 21 18">
      <path d="M1.63355 9.66058C7.65224 9.66058 13.5653 10.3525 19.584 9.38382C20.112 9.24544 20.112 8.27676 19.584 8.27676C13.5653 8.41515 7.65224 8 1.63355 8C0.788818 8 0.788818 9.66058 1.63355 9.66058Z"
         fill="#B8B8B8"></path>
   </symbol>
   <symbol id="outline" viewBox="0 0 360 17">
      <path
         d="M0.645844 8.09302C47.3427 7.53488 93.9073 7.53488 140.604 7.95349C187.301 8.37209 233.866 9.06976 280.562 10.0465C306.755 10.6046 332.815 11.0233 359.008 12C360.331 12 360.331 9.90698 359.008 9.76744C335.726 9.48837 312.443 8.65116 289.161 8.23256C265.879 7.81395 242.596 7.25582 219.182 6.97675C172.485 6.27907 125.92 6 79.2236 6C52.8987 6.13953 26.8384 6.4186 0.645844 6.69767C-0.280156 6.83721 -0.14787 8.23256 0.645844 8.09302Z"
         fill="#B8B8B8"></path>
   </symbol>
   <symbol id="elipse" viewBox="0 0 178 179">
      <path d="M176.398 95.2877L170.258 94.646L169.414 102.731L167.985 102.582L168.829 94.4967L162.198 93.8037L162.371 92.151L178 93.7843L176.88 104.505L175.451 104.355L176.398 95.2877Z" fill="black"></path>
      <path
         d="M170.222 114.759C169.752 116.227 169.021 117.235 168.028 117.781C167.05 118.333 165.842 118.378 164.402 117.916L157.433 115.683L157.898 114.229L159.651 114.79C159.177 114.261 158.883 113.609 158.769 112.834C158.652 112.073 158.739 111.236 159.031 110.324C159.433 109.069 160.052 108.167 160.888 107.617C161.724 107.068 162.634 106.951 163.617 107.266C164.572 107.572 165.232 108.161 165.597 109.032C165.958 109.918 165.896 111.117 165.412 112.628L164.268 116.199L164.952 116.418C165.922 116.729 166.742 116.693 167.415 116.312C168.101 115.934 168.611 115.225 168.945 114.184C169.173 113.472 169.271 112.748 169.239 112.015C169.221 111.286 169.08 110.62 168.818 110.017L170.17 109.696C170.472 110.422 170.623 111.225 170.624 112.105C170.639 112.99 170.505 113.875 170.222 114.759ZM160.153 110.942C159.879 111.798 159.836 112.594 160.025 113.33C160.227 114.071 160.651 114.71 161.297 115.247L163.135 115.836L164.265 112.308C164.882 110.383 164.52 109.206 163.18 108.777C162.525 108.566 161.925 108.649 161.38 109.025C160.85 109.405 160.441 110.044 160.153 110.942Z"
         fill="black"></path>
      <path
         d="M152.701 125.054C153.265 124.032 153.993 123.237 154.887 122.67C155.774 122.117 156.743 121.831 157.796 121.813C158.861 121.803 159.898 122.076 160.907 122.633C161.916 123.189 162.694 123.918 163.24 124.818C163.787 125.717 164.062 126.69 164.067 127.736C164.064 128.794 163.781 129.835 163.217 130.857C162.726 131.749 162.111 132.444 161.374 132.943C160.643 133.463 159.832 133.742 158.939 133.78L158.806 132.347C159.505 132.288 160.124 132.065 160.662 131.678C161.213 131.299 161.659 130.801 161.998 130.185C162.41 129.438 162.612 128.668 162.604 127.877C162.602 127.107 162.387 126.381 161.959 125.7C161.524 125.033 160.913 124.482 160.127 124.048C159.327 123.607 158.529 123.381 157.733 123.368C156.942 123.377 156.213 123.582 155.547 123.984C154.887 124.406 154.351 124.99 153.939 125.738C153.599 126.354 153.409 126.993 153.369 127.654C153.329 128.316 153.471 128.958 153.794 129.581L152.511 130.233C152.067 129.458 151.863 128.619 151.9 127.715C151.95 126.82 152.217 125.933 152.701 125.054Z"
         fill="black"></path>
      <path
         d="M145.208 144.392L151.613 136.87C150.62 136.142 149.557 135.856 148.423 136.01C147.3 136.175 146.316 136.753 145.472 137.744C144.997 138.303 144.657 138.898 144.453 139.53C144.26 140.172 144.212 140.829 144.308 141.501L142.94 141.515C142.801 140.709 142.863 139.897 143.127 139.079C143.38 138.273 143.813 137.511 144.424 136.793C145.21 135.87 146.103 135.214 147.101 134.826C148.102 134.459 149.119 134.372 150.154 134.565C151.189 134.758 152.145 135.229 153.022 135.976C153.899 136.723 154.525 137.581 154.9 138.549C155.265 139.529 155.36 140.514 155.185 141.505C155 142.508 154.553 143.425 153.845 144.257C153.136 145.089 152.307 145.671 151.357 146.002C150.407 146.333 149.424 146.39 148.409 146.174C147.405 145.968 146.459 145.487 145.57 144.729L145.208 144.392ZM152.802 143.369C153.54 142.503 153.882 141.536 153.828 140.467C153.776 139.42 153.339 138.478 152.518 137.641L147.089 144.018C148.046 144.696 149.05 144.971 150.102 144.844C151.155 144.738 152.055 144.247 152.802 143.369Z"
         fill="black"></path>
      <path
         d="M139.617 157.545C138.733 158.213 137.78 158.615 136.757 158.75C135.742 158.898 134.757 158.761 133.801 158.339C132.844 157.917 132.014 157.241 131.31 156.309C130.607 155.377 130.183 154.394 130.038 153.358C129.894 152.323 130.026 151.332 130.436 150.384C130.845 149.436 131.492 148.628 132.376 147.961C133.164 147.365 134 146.995 134.886 146.851C135.759 146.716 136.626 146.821 137.487 147.165L136.079 145.302L137.297 144.381L147.34 157.674L146.068 158.636L141.791 152.974C141.857 153.881 141.703 154.72 141.329 155.491C140.952 156.283 140.381 156.968 139.617 157.545ZM133.318 149.022C132.661 149.518 132.177 150.119 131.865 150.823C131.562 151.54 131.474 152.292 131.599 153.079C131.713 153.875 132.041 154.631 132.582 155.348C133.123 156.064 133.761 156.586 134.496 156.913C135.219 157.248 135.961 157.363 136.724 157.255C137.496 157.159 138.21 156.863 138.867 156.367C139.536 155.861 140.021 155.25 140.324 154.534C140.624 153.838 140.717 153.092 140.603 152.296C140.478 151.509 140.144 150.757 139.603 150.041C139.061 149.324 138.429 148.798 137.707 148.462C136.972 148.135 136.225 148.015 135.465 148.102C134.702 148.21 133.986 148.516 133.318 149.022Z"
         fill="black"></path>
      <path
         d="M118.895 155.829C119.933 155.363 120.972 155.174 122.013 155.264C123.061 155.367 124.01 155.728 124.863 156.346C125.715 156.964 126.377 157.799 126.85 158.85C127.322 159.902 127.507 160.951 127.403 161.999C127.3 163.047 126.936 163.99 126.312 164.829C125.688 165.667 124.858 166.32 123.82 166.786C122.783 167.253 121.743 167.441 120.702 167.352C119.661 167.262 118.721 166.905 117.882 166.281C117.03 165.663 116.368 164.828 115.896 163.777C115.423 162.725 115.238 161.676 115.342 160.628C115.432 159.586 115.785 158.639 116.403 157.787C117.027 156.948 117.858 156.296 118.895 155.829ZM119.475 157.119C118.711 157.463 118.105 157.941 117.658 158.552C117.203 159.183 116.949 159.897 116.897 160.692C116.844 161.487 117.001 162.294 117.37 163.114C117.738 163.933 118.237 164.587 118.867 165.075C119.496 165.563 120.195 165.84 120.963 165.905C121.723 165.99 122.485 165.86 123.249 165.517C124.014 165.173 124.623 164.685 125.078 164.054C125.525 163.443 125.782 162.736 125.848 161.935C125.901 161.14 125.744 160.332 125.375 159.513C125.007 158.694 124.508 158.04 123.878 157.552C123.235 157.07 122.533 156.786 121.773 156.701C121.006 156.636 120.24 156.776 119.475 157.119Z"
         fill="black"></path>
      <path
         d="M104.225 160.615C105.337 160.376 106.392 160.41 107.392 160.716C108.394 161.037 109.247 161.589 109.951 162.372C110.655 163.155 111.128 164.11 111.369 165.237C111.611 166.364 111.572 167.429 111.251 168.431C110.93 169.434 110.377 170.28 109.591 170.97C108.806 171.659 107.857 172.123 106.744 172.362C105.632 172.6 104.577 172.567 103.577 172.261C102.578 171.954 101.734 171.408 101.045 170.622C100.341 169.839 99.8682 168.884 99.6264 167.757C99.3846 166.63 99.424 165.565 99.7447 164.562C100.051 163.563 100.595 162.711 101.378 162.007C102.164 161.318 103.112 160.854 104.225 160.615ZM104.521 161.998C103.702 162.174 103.009 162.514 102.444 163.018C101.867 163.54 101.47 164.184 101.252 164.951C101.033 165.717 101.018 166.54 101.207 167.418C101.395 168.296 101.746 169.04 102.259 169.65C102.773 170.259 103.398 170.676 104.135 170.901C104.861 171.143 105.633 171.176 106.452 171C107.272 170.824 107.97 170.475 108.547 169.954C109.112 169.449 109.511 168.813 109.744 168.043C109.962 167.276 109.977 166.454 109.789 165.576C109.601 164.698 109.25 163.954 108.736 163.344C108.208 162.738 107.581 162.314 106.856 162.071C106.119 161.847 105.341 161.822 104.521 161.998Z"
         fill="black"></path>
      <path d="M88.7139 168.249L91.5075 165.7L91.5205 162.332L93.1143 162.338L93.05 179L91.4562 178.994L91.4997 167.699L84.4259 174.116L82.4504 174.109L87.5201 169.3L82.0246 162.295L83.9776 162.303L88.7139 168.249Z"
         fill="black"></path>
      <path
         d="M60.2619 156.529L61.6401 159.337C63.3459 158.396 65.2309 158.26 67.295 158.93C68.263 159.244 69.0805 159.683 69.7475 160.246C70.3958 160.818 70.841 161.458 71.0832 162.167C71.3209 162.889 71.3196 163.62 71.0793 164.361C70.7883 165.258 70.2426 165.97 69.4422 166.497C68.6418 167.024 67.4312 167.458 65.8106 167.797C66.2821 168.769 66.5699 169.555 66.6741 170.155C66.7736 170.77 66.7287 171.369 66.5393 171.953C66.2297 172.907 65.6386 173.565 64.7659 173.927C63.8932 174.289 62.8804 174.283 61.7273 173.908C60.6597 173.562 59.8982 173.023 59.4427 172.293C58.9873 171.563 58.9098 170.735 59.2101 169.81C59.4503 169.069 59.9166 168.481 60.6088 168.044C61.2965 167.622 62.3679 167.254 63.8231 166.94L61.0955 161.379C60.3766 162.043 59.7303 162.896 59.1564 163.937L58.0427 163.151C58.7474 161.9 59.5606 160.897 60.4822 160.142L59.0607 157.248L60.2619 156.529ZM62.0946 172.776C62.8348 173.017 63.4785 173.021 64.0257 172.789C64.5586 172.553 64.9244 172.129 65.1231 171.517C65.2663 171.075 65.2887 170.618 65.1903 170.146C65.0919 169.673 64.819 168.986 64.3717 168.086C63.0866 168.361 62.166 168.652 61.61 168.96C61.0539 169.267 60.6904 169.684 60.5195 170.211C60.3347 170.781 60.3814 171.292 60.6595 171.744C60.9329 172.21 61.4113 172.555 62.0946 172.776ZM66.8007 160.162C65.1494 159.626 63.6289 159.754 62.239 160.547L65.2406 166.644C66.6392 166.359 67.6541 166.019 68.2852 165.626C68.902 165.228 69.319 164.694 69.5362 164.025C69.7995 163.214 69.6846 162.452 69.1915 161.741C68.6795 161.04 67.8826 160.514 66.8007 160.162Z"
         fill="black"></path>
      <path d="M41.0558 164.064L39.6641 163.156L48.2452 149.988L49.6369 150.895L41.0558 164.064Z" fill="black"></path>
      <path
         d="M29.1603 144.127L28.0089 143.024L32.1538 138.693C33.1286 138.736 34.0971 138.979 35.0595 139.424C36.0218 139.869 36.903 140.474 37.703 141.241C38.8381 142.328 39.6217 143.555 40.0538 144.922C40.4858 146.289 40.5421 147.659 40.2227 149.031C39.893 150.415 39.2055 151.653 38.1602 152.745C37.1149 153.838 35.9137 154.573 34.5564 154.952C33.1889 155.342 31.813 155.351 30.4288 154.979C29.0447 154.607 27.7796 153.872 26.6337 152.774C25.7688 151.946 25.1088 151.045 24.6535 150.07C24.1879 149.106 23.9652 148.115 23.9854 147.099L25.461 147.051C25.5096 148.797 26.2258 150.332 27.6096 151.657C28.5285 152.537 29.5576 153.129 30.6968 153.432C31.8149 153.736 32.9314 153.728 34.0464 153.407C35.1511 153.097 36.1278 152.498 36.9764 151.612C37.8251 150.725 38.3801 149.723 38.6416 148.605C38.903 147.488 38.8628 146.372 38.5209 145.257C38.1791 144.142 37.5487 143.144 36.6298 142.265C35.4622 141.146 34.1936 140.491 32.8239 140.299L29.1603 144.127Z"
         fill="black"></path>
      <path
         d="M17.5893 119.618L21.5028 127.453L26.1009 127.263L26.8736 128.81L9.60547 129.408L8.87295 127.942L19.7189 114.487L20.5016 116.054L17.5893 119.618ZM16.6553 120.763L10.7905 127.912L20.0269 127.512L16.6553 120.763Z"
         fill="black"></path>
      <path
         d="M0 103.628L16.2454 99.9461L16.5827 101.435L14.3057 101.951C15.1851 102.243 15.9168 102.73 16.5008 103.411C17.0815 104.078 17.4809 104.893 17.6992 105.856C17.9439 106.937 17.9174 107.971 17.6196 108.96C17.3217 109.948 16.7839 110.792 16.0059 111.49C15.228 112.188 14.2698 112.666 13.1313 112.924C11.9928 113.182 10.9222 113.164 9.9194 112.869C8.9166 112.575 8.07515 112.044 7.39505 111.277C6.70035 110.514 6.23064 109.592 5.98591 108.511C5.77425 107.577 5.78113 106.693 6.00656 105.859C6.21408 105.013 6.63547 104.266 7.27073 103.615L0.352216 105.183L0 103.628ZM16.2901 106.038C16.1082 105.235 15.7621 104.553 15.2517 103.993C14.7233 103.422 14.0748 103.032 13.3061 102.823C12.5341 102.599 11.7103 102.586 10.8345 102.784C9.95874 102.983 9.22084 103.35 8.62082 103.885C8.01748 104.405 7.60778 105.035 7.3917 105.775C7.15772 106.503 7.13168 107.269 7.31357 108.072C7.49877 108.89 7.85554 109.584 8.38386 110.155C8.89427 110.715 9.53548 111.107 10.3075 111.331C11.0762 111.54 11.8984 111.546 12.7742 111.347C13.6499 111.149 14.3895 110.789 14.9928 110.269C15.5928 109.734 16.0098 109.102 16.2438 108.374C16.4599 107.634 16.4753 106.855 16.2901 106.038Z"
         fill="black"></path>
      <path d="M3.75945 83.9041L15.6277 89.0216L15.6466 90.6608L3.89983 96.0294L3.88059 94.3678L13.8859 89.8278L3.77764 85.4759L3.75945 83.9041Z" fill="black"></path>
      <path
         d="M12.7694 68.2145L10.8817 77.913C12.1034 78.0594 13.1704 77.7868 14.0826 77.0951C14.9802 76.4006 15.5534 75.4141 15.8022 74.1357C15.9423 73.4156 15.9462 72.73 15.8137 72.0789C15.6666 71.425 15.3862 70.8289 14.9725 70.2908L16.1577 69.6065C16.6746 70.241 17.0188 70.9791 17.1904 71.8209C17.3649 72.6479 17.362 73.5244 17.1818 74.4501C16.9502 75.6404 16.4945 76.6498 15.8148 77.4782C15.1233 78.2892 14.2795 78.8645 13.2833 79.2043C12.2871 79.5441 11.2234 79.6039 10.0923 79.3836C8.96113 79.1633 7.99471 78.7234 7.19299 78.0639C6.39414 77.3898 5.82793 76.5779 5.49435 75.6284C5.16364 74.6641 5.10267 73.6456 5.31147 72.5729C5.52026 71.5002 5.95734 70.5864 6.62269 69.8313C7.28805 69.0763 8.11597 68.5436 9.10645 68.2332C10.0822 67.92 11.1431 67.8749 12.2889 68.0981L12.7694 68.2145ZM6.65562 72.8347C6.43824 73.9515 6.6151 74.9621 7.18619 75.8664C7.74545 76.7531 8.58798 77.3595 9.71379 77.6855L11.3141 69.4639C10.1482 69.3436 9.13836 69.5968 8.2845 70.2236C7.41881 70.8329 6.87585 71.7032 6.65562 72.8347Z"
         fill="black"></path>
      <path
         d="M11.4395 59.732C10.8354 59.0961 10.4777 58.363 10.3663 57.5329C10.2604 56.6888 10.405 55.7574 10.8003 54.7386L12.2444 55.2992L12.0853 55.647C11.6359 56.8053 11.6397 57.8506 12.0968 58.7828C12.5538 59.715 13.4241 60.4303 14.7077 60.9286L20.3164 63.1061L19.7397 64.5924L8.73158 60.3187L9.28391 58.8952L11.4395 59.732Z"
         fill="black"></path>
      <path
         d="M26.3709 49.1848C26.4579 49.5782 26.4559 50.0071 26.3649 50.4717C26.2683 50.9159 26.102 51.3464 25.8661 51.7633C25.3204 52.7273 24.6397 53.3224 23.8238 53.5485C23.0079 53.7745 22.1246 53.6184 21.1739 53.0799L14.9617 49.5617L13.922 51.3986L12.7499 50.7348L13.7895 48.8979L11.543 47.6256L12.3282 46.2382L14.5748 47.5105L16.3444 44.3839L17.5165 45.0477L15.7469 48.1743L21.881 51.6482C22.4931 51.9949 23.0468 52.1106 23.542 51.9954C24.0315 51.8597 24.4385 51.5053 24.7629 50.9321C24.9251 50.6455 25.0344 50.3461 25.0907 50.0339C25.1544 49.7087 25.1568 49.4004 25.0981 49.1091L26.3709 49.1848Z"
         fill="black"></path>
      <path
         d="M19.9137 39.1247L20.8607 37.8422L30.3587 44.8601L29.4118 46.1425L19.9137 39.1247ZM18.3173 36.9401C18.1217 37.205 17.8669 37.3611 17.5529 37.4083C17.239 37.4555 16.9556 37.3857 16.7028 37.1989C16.4621 37.021 16.3181 36.7751 16.2709 36.461C16.2237 36.147 16.2979 35.8575 16.4935 35.5926C16.6892 35.3277 16.9439 35.1716 17.2579 35.1244C17.5598 35.0683 17.8311 35.1292 18.0719 35.3071C18.3367 35.5028 18.4928 35.7576 18.5399 36.0717C18.5871 36.3857 18.5129 36.6752 18.3173 36.9401Z"
         fill="black"></path>
      <path
         d="M36.3493 38.0295C35.682 38.7168 34.944 39.2833 34.1356 39.7291C33.3268 40.1538 32.6001 40.3973 31.9554 40.4596L31.5541 39.0679C32.1774 38.9848 32.8409 38.7634 33.5448 38.4038C34.238 38.0337 34.8661 37.5588 35.4292 36.9789C36.18 36.2057 36.6145 35.5219 36.7329 34.9273C36.851 34.3115 36.6899 33.7898 36.2498 33.3621C35.9384 33.0596 35.5978 32.927 35.228 32.9641C34.8473 32.9908 34.4629 33.1181 34.0746 33.3461C33.6756 33.5637 33.1829 33.8884 32.5964 34.3204C31.8003 34.8825 31.1344 35.3104 30.5989 35.604C30.0527 35.8872 29.4725 36.0227 28.8585 36.0104C28.2549 35.9875 27.6686 35.6996 27.0996 35.1467C26.3911 34.4583 26.0982 33.5997 26.2208 32.571C26.3435 31.5423 26.9157 30.5017 27.9376 29.4494C28.4695 28.9017 29.0764 28.4271 29.7585 28.0254C30.4299 27.6134 31.0557 27.3449 31.636 27.22L32.069 28.6112C30.9081 28.8398 29.8584 29.4373 28.9199 30.4038C28.2108 31.134 27.8026 31.8122 27.6953 32.4384C27.5984 33.0538 27.7593 33.565 28.178 33.9718C28.5 34.2847 28.8568 34.433 29.2481 34.4167C29.6499 34.3897 30.0503 34.2675 30.4493 34.0499C30.8376 33.8219 31.346 33.4811 31.9744 33.0273C32.7602 32.4759 33.4156 32.0588 33.9406 31.7759C34.4657 31.493 35.0247 31.3578 35.6176 31.3704C36.2104 31.383 36.7806 31.6552 37.3281 32.1872C38.0688 32.9069 38.3569 33.792 38.1922 34.8425C38.0272 35.8719 37.413 36.9342 36.3493 38.0295Z"
         fill="black"></path>
      <path
         d="M35.4802 22.691L36.7305 21.7021L44.0542 30.9676L42.8039 31.9565L35.4802 22.691ZM34.513 20.1639C34.2547 20.3681 33.9679 20.4518 33.6526 20.415C33.3373 20.3781 33.0821 20.2363 32.8872 19.9897C32.7016 19.7549 32.6272 19.4797 32.664 19.1643C32.7009 18.8489 32.8485 18.589 33.1067 18.3847C33.365 18.1805 33.6518 18.0968 33.9672 18.1337C34.2732 18.1588 34.519 18.2888 34.7047 18.5237C34.9089 18.782 34.9926 19.0689 34.9557 19.3843C34.9188 19.6997 34.7713 19.9596 34.513 20.1639Z"
         fill="black"></path>
      <path
         d="M48.2169 14.0672C49.5143 13.3513 50.7526 13.1638 51.9319 13.5047C53.1171 13.8253 54.1073 14.7065 54.9025 16.1484L58.2096 22.1455L56.814 22.9156L53.5828 17.0562C52.99 15.9813 52.2695 15.3102 51.4214 15.043C50.5733 14.7759 49.6513 14.917 48.6553 15.4666C47.5415 16.0812 46.8413 16.9036 46.5547 17.9337C46.274 18.9434 46.4554 20.0316 47.0987 21.1983L50.0915 26.6251L48.6958 27.3952L42.9923 17.0527L44.329 16.3151L45.3808 18.2224C45.4138 17.3835 45.6705 16.6093 46.1509 15.8997C46.6371 15.1697 47.3258 14.5589 48.2169 14.0672Z"
         fill="black"></path>
      <path
         d="M71.434 5.44078L74.1846 15.4439C74.7165 17.3781 74.6333 18.9381 73.9349 20.124C73.255 21.3203 71.9626 22.1805 70.0579 22.7046C69.0045 22.9944 67.9579 23.1116 66.9182 23.0561C65.8969 23.0111 65.015 22.7957 64.2726 22.41L64.7303 21.0264C65.4136 21.3662 66.1825 21.5661 67.0372 21.626C67.9062 21.6818 68.7737 21.5907 69.6395 21.3524C71.0825 20.9554 72.0498 20.3244 72.5415 19.4593C73.0371 18.6087 73.0904 17.4761 72.7014 16.0616L72.3025 14.6109C72.0248 15.4637 71.5479 16.1849 70.8719 16.7746C70.2103 17.3603 69.4105 17.7822 68.4726 18.0403C67.4048 18.3341 66.3672 18.3712 65.36 18.1515C64.3632 17.9134 63.4972 17.4452 62.7619 16.747C62.0371 16.0303 61.5278 15.1379 61.2341 14.0698C60.9404 13.0016 60.9237 11.9815 61.1841 11.0093C61.4589 10.0331 61.9658 9.19495 62.7045 8.49482C63.4433 7.79469 64.3538 7.29573 65.4361 6.99795C66.4029 6.73193 67.3295 6.68658 68.2159 6.8619C69.1023 7.03723 69.8848 7.42746 70.5634 8.03259L69.9621 5.84577L71.434 5.44078ZM68.249 16.6346C69.0715 16.4082 69.767 16.0305 70.3356 15.5015C70.9001 14.958 71.2754 14.319 71.4615 13.5847C71.6621 12.8463 71.6512 12.073 71.4289 11.2646C71.2066 10.4563 70.8226 9.79342 70.2767 9.27598C69.7413 8.74012 69.0941 8.3903 68.335 8.22652C67.5865 8.04433 66.7937 8.06838 65.9568 8.29866C65.1342 8.52498 64.4387 8.90267 63.8702 9.43174C63.3161 9.95684 62.9388 10.5886 62.7383 11.3269C62.5522 12.0613 62.5703 12.8326 62.7925 13.641C63.0148 14.4493 63.3937 15.1214 63.929 15.6572C64.4789 16.1891 65.1281 16.5462 65.8767 16.7284C66.6357 16.8921 67.4265 16.8609 68.249 16.6346Z"
         fill="black"></path>
      <path d="M97.9875 11.8179L89.249 11.2776L87.1079 15.3525L85.3826 15.2458L93.5221 0L95.1578 0.101131L101.358 16.2336L99.6106 16.1255L97.9875 11.8179ZM97.4656 10.4357L94.2221 1.77568L89.9371 9.97025L97.4656 10.4357Z"
         fill="black"></path>
      <path
         d="M119.474 9.25188L116.384 19.1554C115.786 21.0704 114.874 22.338 113.645 22.9583C112.427 23.5973 110.875 23.6225 108.989 23.0338C107.946 22.7083 107.002 22.2411 106.157 21.6324C105.322 21.0424 104.697 20.3844 104.28 19.6585L105.413 18.7418C105.804 19.3972 106.343 19.981 107.03 20.4934C107.731 21.0102 108.51 21.4024 109.367 21.67C110.796 22.1159 111.951 22.1079 112.832 21.6458C113.709 21.198 114.365 20.2739 114.802 18.8734L115.25 17.4372C114.556 18.0045 113.765 18.3536 112.878 18.4843C112.004 18.6195 111.104 18.5422 110.175 18.2523C109.118 17.9223 108.225 17.3926 107.496 16.6633C106.786 15.9241 106.31 15.062 106.069 14.077C105.846 13.0823 105.9 12.0561 106.23 10.9986C106.559 9.94105 107.097 9.07367 107.841 8.39643C108.6 7.72365 109.479 7.2924 110.479 7.10267C111.478 6.91295 112.514 6.98533 113.586 7.31981C114.543 7.61861 115.347 8.08135 115.998 8.70802C116.649 9.3347 117.097 10.086 117.341 10.962L118.016 8.79698L119.474 9.25188ZM110.746 16.9487C111.561 17.2029 112.35 17.261 113.114 17.1232C113.883 16.9711 114.544 16.6364 115.097 16.1191C115.665 15.6062 116.073 14.9497 116.323 14.1494C116.573 13.3491 116.608 12.5837 116.428 11.8532C116.267 11.113 115.911 10.4687 115.361 9.92062C114.83 9.36266 114.15 8.95435 113.321 8.69568C112.507 8.44148 111.717 8.38329 110.953 8.52113C110.203 8.66342 109.545 8.99099 108.977 9.50383C108.424 10.0211 108.022 10.6799 107.773 11.4802C107.523 12.2805 107.478 13.0508 107.639 13.7911C107.815 14.5358 108.168 15.1872 108.7 15.7452C109.25 16.2933 109.932 16.6944 110.746 16.9487Z"
         fill="black"></path>
      <path
         d="M133.362 23.6573L124.821 18.6946C124.282 19.8012 124.19 20.8989 124.544 21.9877C124.906 23.0636 125.65 23.9286 126.776 24.5828C127.41 24.9512 128.056 25.1795 128.715 25.2678C129.38 25.343 130.035 25.2734 130.679 25.0588L130.937 26.4032C130.168 26.6837 129.358 26.7671 128.507 26.6534C127.669 26.5472 126.842 26.2572 126.027 25.7835C124.978 25.1745 124.174 24.413 123.615 23.4992C123.075 22.5799 122.809 21.5938 122.814 20.541C122.82 19.4882 123.112 18.4634 123.691 17.4666C124.27 16.4698 125.002 15.7007 125.887 15.1591C126.786 14.6251 127.738 14.3561 128.744 14.3521C129.764 14.3556 130.745 14.6318 131.69 15.1807C132.635 15.7296 133.355 16.4422 133.85 17.3184C134.345 18.1947 134.577 19.1517 134.545 20.1895C134.521 21.2143 134.216 22.2316 133.63 23.2414L133.362 23.6573ZM131.002 16.3652C130.019 15.7937 129.006 15.6296 127.965 15.873C126.944 16.1108 126.095 16.7083 125.419 17.6654L132.659 21.8724C133.155 20.8101 133.247 19.7727 132.935 18.7603C132.643 17.7425 131.999 16.9442 131.002 16.3652Z"
         fill="black"></path>
      <path
         d="M147.11 26.6257C148.199 27.631 148.768 28.7471 148.817 29.9741C148.887 31.2002 148.364 32.4183 147.247 33.6283L142.603 38.6609L141.432 37.5795L145.969 32.6624C146.802 31.7603 147.211 30.8646 147.196 29.9753C147.182 29.086 146.757 28.2554 145.921 27.4837C144.986 26.6206 143.985 26.2157 142.918 26.269C141.871 26.3214 140.896 26.8372 139.993 27.8162L135.79 32.3703L134.619 31.2889L142.628 22.6096L143.75 23.6454L142.273 25.2459C143.079 25.0124 143.895 25.0116 144.719 25.2434C145.565 25.4744 146.362 25.9352 147.11 26.6257Z"
         fill="black"></path>
      <path
         d="M149.242 47.3659C148.569 46.4117 148.173 45.4086 148.054 44.3568C147.944 43.3171 148.111 42.3201 148.555 41.3655C149.011 40.4024 149.71 39.5886 150.652 38.9242C151.594 38.2598 152.589 37.8785 153.637 37.7804C154.685 37.6822 155.68 37.8596 156.622 38.3125C157.572 38.7776 158.384 39.4873 159.057 40.4415C159.643 41.2734 160 42.1301 160.127 43.0114C160.275 43.8964 160.171 44.7485 159.814 45.5678L158.468 45.0612C158.721 44.4066 158.791 43.7527 158.678 43.0994C158.578 42.4374 158.325 41.819 157.919 41.244C157.428 40.5467 156.824 40.0288 156.11 39.6904C155.416 39.3556 154.669 39.2319 153.87 39.3194C153.08 39.4191 152.318 39.7278 151.584 40.2455C150.838 40.7718 150.285 41.3907 149.926 42.1021C149.588 42.8171 149.454 43.562 149.524 44.3368C149.615 45.1153 149.906 45.8532 150.398 46.5505C150.803 47.1255 151.295 47.5757 151.872 47.9011C152.449 48.2266 153.089 48.38 153.79 48.3616L153.815 49.8001C152.924 49.8609 152.081 49.6775 151.285 49.2499C150.501 48.8136 149.82 48.1856 149.242 47.3659Z"
         fill="black"></path>
      <path
         d="M168.987 59.2147L154.506 59.3058C153.3 59.3276 152.355 59.1483 151.673 58.7676C150.991 58.387 150.467 57.7946 150.102 56.9903C149.867 56.4724 149.729 55.9513 149.688 55.4272C149.648 54.9031 149.717 54.4032 149.895 53.9275L151.285 54.1102C150.987 54.903 151.012 55.6811 151.358 56.4444C151.581 56.9352 151.906 57.289 152.333 57.506C152.767 57.7366 153.378 57.8533 154.169 57.8561L155.425 57.8528L163.975 48.1735L164.661 49.6866L157.362 57.8852L168.337 57.7834L168.987 59.2147Z"
         fill="black"></path>
      <path
         d="M169.715 75.118C169.715 76.1515 168.877 76.9893 167.844 76.9893C166.811 76.9893 165.973 76.1515 165.973 75.118C165.973 74.0845 166.811 73.2467 167.844 73.2467C168.877 73.2467 169.715 74.0845 169.715 75.118Z"
         fill="black"></path>
   </symbol>
   <symbol id="brand" viewBox="0 0 167 39">
      <path
         d="M23.113 10.4437C21.4853 6.52734 16.6023 6.36416 13.0214 7.83278C9.60328 9.46458 6.18515 12.0755 4.72023 15.6654C3.09255 19.4186 4.3947 23.3349 7.16175 26.2721C8.62667 27.9039 10.4171 29.0462 12.3703 30.1884C13.3469 30.8412 14.1608 31.3307 15.1374 31.9834C15.9512 32.6361 18.0672 33.7784 17.9044 35.0838C17.0906 37.8579 11.5565 36.2261 9.76604 35.8997C8.4639 35.5734 7.16175 35.247 5.85961 34.9206C5.20854 34.7575 1.95318 34.2679 2.11595 33.2888C2.27871 32.1466 0.325497 31.9834 0.162729 33.1257C-0.325575 34.9206 1.30211 35.8997 2.76702 36.3893C5.20854 37.2052 7.65006 37.6947 10.0916 38.1842C12.2076 38.5106 14.6491 39.1633 16.9278 38.5106C18.5555 38.0211 20.0204 36.5524 20.0204 34.7575C20.0204 32.6361 17.9044 31.3307 16.4395 30.1884C14.4863 28.7198 12.2076 27.5776 10.4171 25.9458C8.78943 24.4771 7.16175 22.8453 6.67345 20.5608C6.02238 18.4395 6.67345 16.3181 8.13836 14.5232C10.5799 11.2596 18.8811 5.71144 21.8109 11.2596C22.1364 12.0755 23.6013 11.4227 23.113 10.4437Z"
         fill="#51A0FF"></path>
      <path
         d="M29.2982 26.272C33.8557 25.9457 38.5759 25.1298 42.3196 22.5189C44.1101 21.2135 45.7377 19.5817 46.5516 17.6235C47.3654 15.5022 46.3888 13.3808 44.1101 12.5649C41.6685 11.749 39.5525 13.0545 37.9249 14.6863C35.9717 16.6444 34.344 18.7658 33.0418 21.0503C31.5769 23.3348 30.4375 25.7825 29.6237 28.3934C28.8099 30.8411 27.996 33.452 29.6237 35.8997C31.0886 38.021 33.8557 39.1633 36.2972 39.0001C39.3898 38.8369 42.3196 37.0419 44.7611 35.2469C46.5516 33.7783 44.9239 30.6779 42.8079 31.9833C40.2036 33.7783 36.46 36.7156 33.2046 34.5942C31.5769 33.452 31.9025 31.657 32.3908 30.0252C33.0418 28.067 33.6929 26.1089 34.6695 24.1507C35.6461 22.3557 36.6227 20.5608 37.9249 18.929C39.0642 17.4603 40.3664 15.5022 41.9941 14.8495C42.6451 14.5231 43.6218 14.5231 44.2728 15.0126C45.2494 15.6654 44.7611 16.8076 44.2728 17.6235C43.459 19.0921 42.1568 20.3976 40.8547 21.2135C37.5993 23.498 33.5301 24.4771 29.6237 25.1298C28.4843 25.1298 28.4843 26.272 29.2982 26.272Z"
         fill="#51A0FF"></path>
      <path
         d="M123.704 25.4558C128.098 25.2927 132.819 24.6399 136.725 22.3554C138.678 21.2132 140.469 19.4182 141.445 17.2969C142.259 15.1755 141.283 13.0542 139.167 12.2383C136.725 11.4224 134.446 12.7278 132.819 14.3596C130.865 16.1546 129.238 18.2759 127.773 20.3973C126.308 22.5186 125.006 24.9663 124.029 27.414C123.053 29.8617 122.076 32.6358 123.541 35.2466C124.843 37.368 127.61 38.6734 130.052 38.6734C133.144 38.6734 136.074 37.0416 138.678 35.2466C140.632 33.778 138.841 30.8408 136.725 31.983C133.958 33.6148 130.052 36.5521 126.959 34.1044C125.331 32.9621 125.82 31.004 126.471 29.3722C127.122 27.414 127.936 25.619 129.075 23.824C130.052 22.0291 131.191 20.3973 132.493 18.7655C133.633 17.2969 135.097 15.5019 136.888 14.8492C137.539 14.686 138.516 14.686 139.004 15.1755C139.818 15.9914 139.167 17.1337 138.678 17.7864C137.702 19.0918 136.562 20.2341 135.097 21.2132C131.679 23.3345 127.61 24.1504 123.704 24.4768C122.89 24.4768 122.89 25.4558 123.704 25.4558Z"
         fill="#51A0FF"></path>
      <path
         d="M60.0613 11.912C59.0847 16.1547 57.9453 20.3973 56.806 24.64C56.3177 26.7614 55.6666 28.8827 55.0155 30.8409C54.3644 32.9622 53.3878 35.0835 53.5506 37.2049C53.7134 38.5103 55.3411 38.9999 55.9921 37.8576C56.9687 36.0626 56.9687 33.7781 57.2943 31.6568C57.6198 29.3722 57.9453 27.2509 58.4336 24.9664C59.2475 20.5605 59.8986 16.3178 60.8752 11.912C61.0379 11.5856 60.2241 11.4225 60.0613 11.912Z"
         fill="#51A0FF"></path>
      <path
         d="M68.688 12.4015C67.7114 16.481 66.7348 20.7236 65.4327 24.64C64.1305 28.7195 62.6656 32.6358 61.5262 36.7153C60.8752 38.8366 64.4561 39.8157 64.9444 37.5312C65.7582 33.2885 66.0837 29.0458 66.7348 24.8031C67.3859 20.5605 68.1997 16.481 69.1763 12.2383C69.0136 12.2383 68.688 12.2383 68.688 12.4015Z"
         fill="#51A0FF"></path>
      <path
         d="M77.9659 27.0876C80.8957 27.5771 83.9883 27.9035 87.0809 27.5771C88.383 27.4139 88.2203 25.6189 87.0809 25.6189C84.1511 25.6189 81.384 25.6189 78.4542 25.1294C77.9659 25.1294 77.3148 25.2926 77.3148 25.7821C77.152 26.2717 77.4776 26.9244 77.9659 27.0876Z"
         fill="#51A0FF"></path>
      <path
         d="M155.118 12.2384C152.676 20.3974 149.258 28.5564 144.864 35.8995C145.84 36.389 146.817 37.0418 147.793 37.5313C150.723 30.6777 152.676 23.1715 154.955 15.9915C153.979 15.8284 153.002 15.8284 151.863 15.6652C152.514 20.3974 152.025 25.7823 153.816 30.3514C154.467 31.9832 155.606 34.2677 157.559 34.7572C159.513 35.2468 161.629 33.615 162.605 32.1464C165.21 28.7196 165.047 23.8242 165.535 19.7447C166.023 13.8702 166.349 7.83255 166.674 1.95807C166.837 -0.652809 162.931 -0.489629 162.605 2.12125C162.28 6.52711 161.791 11.0961 161.629 15.502C161.303 19.4183 161.629 23.4978 160.815 27.251C160.652 28.3932 160.164 30.1882 159.024 31.0041C157.559 32.1464 156.583 29.0459 156.257 27.9037C155.118 24.1505 154.955 19.7447 154.792 15.8284C154.63 14.0334 152.351 13.8702 151.7 15.502C149.095 22.3556 146.166 29.3723 144.375 36.5522C143.887 38.6736 146.98 39.3263 147.631 37.3681C150.723 29.2091 153.165 21.0501 155.443 12.7279C155.932 11.912 155.281 11.7489 155.118 12.2384Z"
         fill="#51A0FF"></path>
      <path
         d="M116.379 17.46C116.379 15.5019 115.077 14.0333 113.449 13.0542C111.496 12.0751 109.217 12.5646 107.264 13.5437C105.148 14.5228 103.358 16.1546 101.73 17.7864C100.102 19.4182 98.6374 21.3764 97.498 23.4977C95.5448 27.2508 95.0565 32.6358 98.8001 35.573C102.869 38.8366 107.915 37.0416 111.984 35.0835C113.124 34.5939 114.263 33.9412 114.914 32.799C115.402 31.8199 115.565 30.6776 115.24 29.6985C114.751 27.0877 112.31 25.619 110.031 24.4768C109.868 25.4559 109.868 26.4349 109.706 27.5772C112.473 26.7613 115.402 26.2718 118.332 25.619C119.634 25.2927 119.472 23.4977 118.332 23.1713C115.077 22.1923 111.496 23.1713 108.403 24.64C107.427 25.1295 107.264 27.0877 108.403 27.414C109.706 27.9036 111.496 28.5563 112.31 29.8617C113.124 31.4935 111.822 32.1462 110.519 32.799C107.59 34.1044 103.846 35.573 100.753 33.778C97.8235 31.9831 98.1491 27.9036 99.2884 25.2927C100.591 22.1923 102.869 19.255 105.636 17.1337C107.101 15.9914 108.892 14.8492 110.845 14.8492C112.31 14.8492 114.263 15.8282 114.589 17.46C114.751 18.6023 116.379 18.6023 116.379 17.46Z"
         fill="#51A0FF"></path>
   </symbol>
   <symbol id="ps" viewBox="0 0 203 116">
      <path
         d="M49.1506 2.00007C59.0706 2.00007 67.6573 3.65341 74.9106 6.96008C82.2706 10.2667 87.924 14.9601 91.8706 21.0401C95.8173 27.1201 97.7906 34.3201 97.7906 42.6401C97.7906 50.8534 95.8173 58.0534 91.8706 64.2401C87.924 70.3201 82.2706 75.0134 74.9106 78.3201C67.6573 81.5201 59.0706 83.1201 49.1506 83.1201H26.5906V114H0.670624V2.00007H49.1506ZM47.7106 62.0001C55.4973 62.0001 61.4173 60.3467 65.4706 57.0401C69.524 53.6267 71.5506 48.8267 71.5506 42.6401C71.5506 36.3467 69.524 31.5467 65.4706 28.2401C61.4173 24.8267 55.4973 23.1201 47.7106 23.1201H26.5906V62.0001H47.7106Z"
         fill="#333333"></path>
      <path
         d="M154.658 115.92C145.805 115.92 137.218 114.747 128.898 112.4C120.685 109.947 114.071 106.8 109.058 102.96L117.858 83.4401C122.658 86.9601 128.365 89.7867 134.978 91.9201C141.591 94.0534 148.205 95.1201 154.818 95.1201C162.178 95.1201 167.618 94.0534 171.138 91.9201C174.658 89.6801 176.418 86.7467 176.418 83.1201C176.418 80.4534 175.351 78.2667 173.218 76.5601C171.191 74.7467 168.525 73.3067 165.218 72.2401C162.018 71.1734 157.645 70.0001 152.098 68.7201C143.565 66.6934 136.578 64.6667 131.138 62.6401C125.698 60.6134 121.005 57.3601 117.058 52.8801C113.218 48.4001 111.298 42.4267 111.298 34.9601C111.298 28.4534 113.058 22.5867 116.578 17.3601C120.098 12.0267 125.378 7.81341 132.418 4.72008C139.565 1.62674 148.258 0.0800781 158.498 0.0800781C165.645 0.0800781 172.631 0.93341 179.458 2.64007C186.285 4.34674 192.258 6.80008 197.378 10.0001L189.378 29.6801C179.031 23.8134 168.685 20.8801 158.338 20.8801C151.085 20.8801 145.698 22.0534 142.178 24.4001C138.765 26.7467 137.058 29.8401 137.058 33.6801C137.058 37.5201 139.031 40.4001 142.978 42.3201C147.031 44.1334 153.165 45.9467 161.378 47.7601C169.911 49.7867 176.898 51.8134 182.338 53.8401C187.778 55.8667 192.418 59.0667 196.258 63.4401C200.205 67.8134 202.178 73.7334 202.178 81.2001C202.178 87.6001 200.365 93.4667 196.738 98.8001C193.218 104.027 187.885 108.187 180.738 111.28C173.591 114.373 164.898 115.92 154.658 115.92Z"
         fill="#333333"></path>
   </symbol>
   <symbol id="img" viewBox="0 0 535 281">
      <path
         d="M357.241 99.7423C345.71 142.566 270.574 175.624 179.602 175.624C178.816 175.624 178.031 175.621 177.247 175.617C161.741 164.984 151.712 151.64 148.988 136.122C145.375 115.54 155.146 94.1749 174.722 74.6623C192.543 71.1514 211.611 69.25 231.429 69.25C280.459 69.25 324.89 80.8872 357.241 99.7423Z"
         fill="#3D618D"></path>
      <path
         d="M203.702 125.218C202.504 125.218 201.352 125.026 200.246 124.642C199.155 124.258 198.311 123.751 197.711 123.121L198.38 121.808C198.963 122.391 199.739 122.868 200.707 123.236C201.675 123.59 202.673 123.766 203.702 123.766C205.146 123.766 206.229 123.505 206.951 122.983C207.673 122.445 208.034 121.754 208.034 120.909C208.034 120.264 207.835 119.749 207.435 119.365C207.051 118.981 206.575 118.689 206.007 118.49C205.438 118.274 204.647 118.044 203.633 117.798C202.42 117.491 201.452 117.199 200.73 116.923C200.008 116.631 199.386 116.193 198.864 115.609C198.357 115.025 198.103 114.234 198.103 113.236C198.103 112.422 198.318 111.684 198.748 111.024C199.178 110.348 199.839 109.81 200.73 109.411C201.621 109.011 202.727 108.812 204.048 108.812C204.97 108.812 205.868 108.942 206.744 109.203C207.635 109.449 208.403 109.795 209.048 110.24L208.472 111.6C207.796 111.154 207.074 110.824 206.306 110.609C205.538 110.379 204.785 110.263 204.048 110.263C202.635 110.263 201.567 110.54 200.845 111.093C200.139 111.631 199.785 112.33 199.785 113.19C199.785 113.835 199.977 114.357 200.361 114.757C200.761 115.141 201.252 115.44 201.836 115.655C202.435 115.855 203.234 116.078 204.232 116.324C205.415 116.615 206.368 116.907 207.09 117.199C207.827 117.476 208.449 117.906 208.956 118.49C209.463 119.058 209.717 119.834 209.717 120.817C209.717 121.631 209.494 122.376 209.048 123.052C208.618 123.712 207.95 124.242 207.044 124.642C206.137 125.026 205.024 125.218 203.702 125.218Z"
         fill="white"></path>
      <path
         d="M223.64 119.526H213.501C213.593 120.786 214.077 121.808 214.953 122.591C215.828 123.359 216.934 123.743 218.271 123.743C219.023 123.743 219.715 123.613 220.344 123.351C220.974 123.075 221.52 122.676 221.98 122.153L222.902 123.213C222.365 123.858 221.689 124.35 220.874 124.688C220.076 125.026 219.192 125.195 218.225 125.195C216.98 125.195 215.874 124.934 214.906 124.411C213.954 123.874 213.209 123.136 212.671 122.199C212.134 121.262 211.865 120.202 211.865 119.019C211.865 117.837 212.118 116.777 212.625 115.84C213.148 114.903 213.854 114.173 214.745 113.651C215.651 113.128 216.665 112.867 217.787 112.867C218.908 112.867 219.914 113.128 220.805 113.651C221.696 114.173 222.395 114.903 222.902 115.84C223.409 116.761 223.663 117.821 223.663 119.019L223.64 119.526ZM217.787 114.273C216.619 114.273 215.636 114.649 214.837 115.402C214.054 116.139 213.608 117.107 213.501 118.305H222.096C221.988 117.107 221.535 116.139 220.736 115.402C219.953 114.649 218.97 114.273 217.787 114.273Z"
         fill="white"></path>
      <path d="M226.993 107.982H228.629V125.08H226.993V107.982Z" fill="white"></path>
      <path d="M233.181 107.982H234.817V125.08H233.181V107.982Z" fill="white"></path>
      <path d="M238.47 118.121H244.507V119.549H238.47V118.121Z" fill="white"></path>
      <path
         d="M260.053 117.015H261.689V123.167C260.936 123.828 260.045 124.335 259.016 124.688C257.987 125.041 256.904 125.218 255.767 125.218C254.154 125.218 252.702 124.865 251.412 124.158C250.122 123.451 249.108 122.476 248.37 121.232C247.633 119.972 247.264 118.566 247.264 117.015C247.264 115.463 247.633 114.065 248.37 112.821C249.108 111.561 250.122 110.578 251.412 109.872C252.702 109.165 254.162 108.812 255.79 108.812C257.019 108.812 258.148 109.011 259.177 109.411C260.206 109.795 261.074 110.371 261.781 111.139L260.721 112.222C259.446 110.962 257.825 110.333 255.859 110.333C254.553 110.333 253.371 110.624 252.311 111.208C251.266 111.776 250.444 112.575 249.845 113.605C249.246 114.618 248.946 115.755 248.946 117.015C248.946 118.274 249.246 119.411 249.845 120.425C250.444 121.439 251.266 122.238 252.311 122.821C253.355 123.405 254.53 123.697 255.836 123.697C257.495 123.697 258.901 123.282 260.053 122.453V117.015Z"
         fill="white"></path>
      <path
         d="M276.723 119.526H266.584C266.676 120.786 267.16 121.808 268.036 122.591C268.911 123.359 270.017 123.743 271.354 123.743C272.106 123.743 272.798 123.613 273.427 123.351C274.057 123.075 274.603 122.676 275.064 122.153L275.985 123.213C275.448 123.858 274.772 124.35 273.957 124.688C273.159 125.026 272.275 125.195 271.308 125.195C270.063 125.195 268.957 124.934 267.989 124.411C267.037 123.874 266.292 123.136 265.754 122.199C265.217 121.262 264.948 120.202 264.948 119.019C264.948 117.837 265.201 116.777 265.708 115.84C266.231 114.903 266.937 114.173 267.828 113.651C268.735 113.128 269.748 112.867 270.87 112.867C271.991 112.867 272.997 113.128 273.888 113.651C274.779 114.173 275.478 114.903 275.985 115.84C276.492 116.761 276.746 117.821 276.746 119.019L276.723 119.526ZM270.87 114.273C269.702 114.273 268.719 114.649 267.92 115.402C267.137 116.139 266.691 117.107 266.584 118.305H275.179C275.071 117.107 274.618 116.139 273.819 115.402C273.036 114.649 272.053 114.273 270.87 114.273Z"
         fill="white"></path>
      <path
         d="M286.251 112.867C287.772 112.867 288.978 113.313 289.869 114.204C290.775 115.079 291.228 116.362 291.228 118.052V125.08H289.592V118.213C289.592 116.953 289.277 115.993 288.647 115.333C288.018 114.672 287.119 114.342 285.951 114.342C284.646 114.342 283.609 114.734 282.841 115.517C282.088 116.285 281.712 117.353 281.712 118.72V125.08H280.076V112.959H281.642V115.194C282.088 114.457 282.702 113.889 283.486 113.489C284.285 113.075 285.206 112.867 286.251 112.867Z"
         fill="white"></path>
      <path
         d="M414.425 67.4739C416.484 67.4739 418.097 67.9655 419.264 68.9486C420.432 69.9317 421.016 71.2836 421.016 73.0041C421.016 74.7246 420.432 76.0764 419.264 77.0595C418.097 78.0273 416.484 78.5112 414.425 78.5112H410.093V83.6036H408.388V67.4739H414.425ZM414.379 77.0134C415.977 77.0134 417.198 76.6678 418.043 75.9765C418.888 75.2699 419.31 74.2791 419.31 73.0041C419.31 71.6983 418.888 70.6998 418.043 70.0085C417.198 69.3019 415.977 68.9486 414.379 68.9486H410.093V77.0134H414.379Z"
         fill="white"></path>
      <path
         d="M425.609 73.8566C425.993 73.0425 426.561 72.428 427.314 72.0132C428.082 71.5985 429.027 71.3911 430.148 71.3911V72.981L429.756 72.958C428.481 72.958 427.483 73.3497 426.761 74.1331C426.039 74.9166 425.678 76.0149 425.678 77.4282V83.6036H424.042V71.4833H425.609V73.8566Z"
         fill="white"></path>
      <path
         d="M433.11 71.4833H434.746V83.6036H433.11V71.4833ZM433.94 68.8334C433.602 68.8334 433.318 68.7182 433.087 68.4878C432.857 68.2573 432.742 67.9808 432.742 67.6582C432.742 67.351 432.857 67.0822 433.087 66.8517C433.318 66.6213 433.602 66.5061 433.94 66.5061C434.278 66.5061 434.562 66.6213 434.792 66.8517C435.023 67.0668 435.138 67.3279 435.138 67.6352C435.138 67.9731 435.023 68.2573 434.792 68.4878C434.562 68.7182 434.278 68.8334 433.94 68.8334Z"
         fill="white"></path>
      <path
         d="M444.322 83.7188C443.123 83.7188 442.048 83.4576 441.096 82.9353C440.159 82.413 439.421 81.6834 438.884 80.7463C438.346 79.7939 438.077 78.7263 438.077 77.5434C438.077 76.3606 438.346 75.3006 438.884 74.3636C439.421 73.4265 440.159 72.6968 441.096 72.1745C442.048 71.6522 443.123 71.3911 444.322 71.3911C445.366 71.3911 446.296 71.5985 447.11 72.0132C447.939 72.4126 448.592 73.0041 449.068 73.7875L447.847 74.617C447.448 74.0179 446.941 73.5724 446.326 73.2806C445.712 72.9733 445.044 72.8197 444.322 72.8197C443.446 72.8197 442.655 73.0194 441.948 73.4188C441.257 73.8029 440.712 74.3559 440.312 75.0779C439.928 75.7999 439.736 76.6217 439.736 77.5434C439.736 78.4805 439.928 79.31 440.312 80.032C440.712 80.7386 441.257 81.2916 441.948 81.691C442.655 82.0751 443.446 82.2671 444.322 82.2671C445.044 82.2671 445.712 82.1212 446.326 81.8293C446.941 81.5374 447.448 81.0919 447.847 80.4928L449.068 81.3224C448.592 82.1058 447.939 82.7049 447.11 83.1197C446.28 83.5191 445.351 83.7188 444.322 83.7188Z"
         fill="white"></path>
      <path
         d="M462.633 78.0503H452.495C452.587 79.31 453.071 80.3315 453.946 81.115C454.822 81.8831 455.928 82.2671 457.264 82.2671C458.017 82.2671 458.708 82.1365 459.338 81.8754C459.968 81.5989 460.513 81.1995 460.974 80.6772L461.896 81.7371C461.358 82.3823 460.682 82.8739 459.868 83.2118C459.069 83.5498 458.186 83.7188 457.218 83.7188C455.974 83.7188 454.868 83.4576 453.9 82.9353C452.948 82.3977 452.203 81.6603 451.665 80.7233C451.127 79.7862 450.859 78.7263 450.859 77.5434C450.859 76.3606 451.112 75.3006 451.619 74.3636C452.141 73.4265 452.848 72.6968 453.739 72.1745C454.645 71.6522 455.659 71.3911 456.78 71.3911C457.902 71.3911 458.908 71.6522 459.799 72.1745C460.69 72.6968 461.389 73.4265 461.896 74.3636C462.403 75.2853 462.656 76.3452 462.656 77.5434L462.633 78.0503ZM456.78 72.7967C455.613 72.7967 454.63 73.173 453.831 73.9258C453.048 74.6631 452.602 75.6309 452.495 76.8291H461.089C460.982 75.6309 460.529 74.6631 459.73 73.9258C458.946 73.173 457.963 72.7967 456.78 72.7967Z"
         fill="white"></path>
      <path
         d="M164.532 235.822C163.334 235.822 162.182 235.63 161.076 235.246C159.985 234.862 159.14 234.355 158.541 233.725L159.209 232.411C159.793 232.995 160.569 233.471 161.537 233.84C162.504 234.193 163.503 234.37 164.532 234.37C165.976 234.37 167.059 234.109 167.781 233.587C168.503 233.049 168.864 232.358 168.864 231.513C168.864 230.868 168.664 230.353 168.265 229.969C167.881 229.585 167.405 229.293 166.836 229.093C166.268 228.878 165.477 228.648 164.463 228.402C163.249 228.095 162.282 227.803 161.56 227.526C160.838 227.235 160.215 226.797 159.693 226.213C159.186 225.629 158.933 224.838 158.933 223.84C158.933 223.025 159.148 222.288 159.578 221.628C160.008 220.952 160.669 220.414 161.56 220.015C162.451 219.615 163.557 219.415 164.878 219.415C165.799 219.415 166.698 219.546 167.574 219.807C168.465 220.053 169.233 220.399 169.878 220.844L169.302 222.204C168.626 221.758 167.904 221.428 167.136 221.213C166.368 220.982 165.615 220.867 164.878 220.867C163.464 220.867 162.397 221.144 161.675 221.697C160.968 222.234 160.615 222.933 160.615 223.794C160.615 224.439 160.807 224.961 161.191 225.36C161.59 225.744 162.082 226.044 162.666 226.259C163.265 226.459 164.064 226.682 165.062 226.927C166.245 227.219 167.197 227.511 167.919 227.803C168.657 228.079 169.279 228.51 169.786 229.093C170.293 229.662 170.546 230.437 170.546 231.421C170.546 232.235 170.323 232.98 169.878 233.656C169.448 234.316 168.78 234.846 167.873 235.246C166.967 235.63 165.853 235.822 164.532 235.822Z"
         fill="white"></path>
      <path
         d="M180.298 234.946C179.991 235.223 179.607 235.438 179.146 235.591C178.701 235.729 178.232 235.799 177.741 235.799C176.604 235.799 175.728 235.491 175.114 234.877C174.499 234.262 174.192 233.395 174.192 232.273V224.946H172.026V223.563H174.192V220.913H175.828V223.563H179.515V224.946H175.828V232.181C175.828 232.903 176.005 233.456 176.358 233.84C176.727 234.209 177.249 234.393 177.925 234.393C178.263 234.393 178.586 234.339 178.893 234.232C179.215 234.124 179.492 233.971 179.722 233.771L180.298 234.946Z"
         fill="white"></path>
      <path
         d="M187.516 223.471C189.099 223.471 190.312 223.87 191.157 224.669C192.002 225.453 192.425 226.62 192.425 228.172V235.683H190.858V233.794C190.489 234.424 189.944 234.915 189.222 235.269C188.515 235.622 187.67 235.799 186.687 235.799C185.335 235.799 184.26 235.476 183.461 234.831C182.662 234.186 182.263 233.333 182.263 232.273C182.263 231.244 182.631 230.414 183.369 229.785C184.122 229.155 185.312 228.84 186.94 228.84H190.788V228.102C190.788 227.058 190.497 226.267 189.913 225.729C189.329 225.176 188.477 224.9 187.355 224.9C186.587 224.9 185.85 225.03 185.143 225.291C184.436 225.537 183.83 225.883 183.323 226.328L182.585 225.107C183.2 224.585 183.937 224.185 184.797 223.909C185.658 223.617 186.564 223.471 187.516 223.471ZM186.94 234.508C187.862 234.508 188.653 234.301 189.314 233.886C189.974 233.456 190.466 232.842 190.788 232.043V230.061H186.986C184.913 230.061 183.876 230.783 183.876 232.227C183.876 232.934 184.145 233.494 184.682 233.909C185.22 234.309 185.973 234.508 186.94 234.508Z"
         fill="white"></path>
      <path
         d="M203.113 223.471C204.249 223.471 205.279 223.732 206.2 224.254C207.122 224.761 207.844 225.483 208.366 226.42C208.889 227.357 209.15 228.425 209.15 229.623C209.15 230.821 208.889 231.889 208.366 232.826C207.844 233.763 207.122 234.493 206.2 235.015C205.279 235.537 204.249 235.799 203.113 235.799C202.099 235.799 201.185 235.584 200.371 235.153C199.572 234.723 198.927 234.101 198.435 233.287V235.683H196.868V218.586H198.504V225.867C199.011 225.084 199.656 224.492 200.44 224.093C201.238 223.678 202.129 223.471 203.113 223.471ZM202.997 234.347C203.842 234.347 204.61 234.155 205.302 233.771C205.993 233.371 206.531 232.811 206.915 232.089C207.314 231.367 207.514 230.545 207.514 229.623C207.514 228.702 207.314 227.88 206.915 227.158C206.531 226.436 205.993 225.883 205.302 225.499C204.61 225.099 203.842 224.9 202.997 224.9C202.137 224.9 201.361 225.099 200.67 225.499C199.994 225.883 199.457 226.436 199.057 227.158C198.673 227.88 198.481 228.702 198.481 229.623C198.481 230.545 198.673 231.367 199.057 232.089C199.457 232.811 199.994 233.371 200.67 233.771C201.361 234.155 202.137 234.347 202.997 234.347Z"
         fill="white"></path>
      <path
         d="M212.485 223.563H214.121V235.683H212.485V223.563ZM213.314 220.913C212.976 220.913 212.692 220.798 212.462 220.568C212.231 220.337 212.116 220.061 212.116 219.738C212.116 219.431 212.231 219.162 212.462 218.932C212.692 218.701 212.976 218.586 213.314 218.586C213.652 218.586 213.936 218.701 214.167 218.932C214.397 219.147 214.512 219.408 214.512 219.715C214.512 220.053 214.397 220.337 214.167 220.568C213.936 220.798 213.652 220.913 213.314 220.913Z"
         fill="white"></path>
      <path d="M218.673 218.586H220.309V235.683H218.673V218.586Z" fill="white"></path>
      <path
         d="M224.861 223.563H226.497V235.683H224.861V223.563ZM225.691 220.913C225.353 220.913 225.068 220.798 224.838 220.568C224.608 220.337 224.492 220.061 224.492 219.738C224.492 219.431 224.608 219.162 224.838 218.932C225.068 218.701 225.353 218.586 225.691 218.586C226.028 218.586 226.313 218.701 226.543 218.932C226.774 219.147 226.889 219.408 226.889 219.715C226.889 220.053 226.774 220.337 226.543 220.568C226.313 220.798 226.028 220.913 225.691 220.913Z"
         fill="white"></path>
      <path
         d="M237.432 234.946C237.125 235.223 236.741 235.438 236.28 235.591C235.834 235.729 235.366 235.799 234.874 235.799C233.737 235.799 232.862 235.491 232.247 234.877C231.633 234.262 231.326 233.395 231.326 232.273V224.946H229.16V223.563H231.326V220.913H232.962V223.563H236.648V224.946H232.962V232.181C232.962 232.903 233.138 233.456 233.492 233.84C233.86 234.209 234.383 234.393 235.059 234.393C235.396 234.393 235.719 234.339 236.026 234.232C236.349 234.124 236.625 233.971 236.856 233.771L237.432 234.946Z"
         fill="white"></path>
      <path
         d="M250.37 223.563L244.31 237.135C243.818 238.272 243.25 239.078 242.605 239.555C241.959 240.031 241.184 240.269 240.277 240.269C239.694 240.269 239.148 240.177 238.641 239.992C238.134 239.808 237.697 239.531 237.328 239.163L238.088 237.942C238.703 238.556 239.44 238.863 240.3 238.863C240.853 238.863 241.322 238.71 241.706 238.402C242.105 238.095 242.474 237.573 242.812 236.836L243.342 235.66L237.927 223.563H239.632L244.194 233.863L248.757 223.563H250.37Z"
         fill="white"></path>
      <path
         d="M83.5552 59.793L79.8684 54.6085C79.4536 54.6546 79.0235 54.6776 78.578 54.6776H74.246V59.793H72.5409V43.6633H78.578C80.6365 43.6633 82.2494 44.1549 83.4169 45.1381C84.5844 46.1212 85.1681 47.473 85.1681 49.1935C85.1681 50.4532 84.8455 51.5208 84.2003 52.3964C83.5705 53.2567 82.6642 53.8788 81.4813 54.2628L85.4216 59.793H83.5552ZM78.5319 53.2259C80.1295 53.2259 81.3508 52.8726 82.1957 52.166C83.0405 51.4593 83.463 50.4685 83.463 49.1935C83.463 47.8878 83.0405 46.8893 82.1957 46.198C81.3508 45.4914 80.1295 45.1381 78.5319 45.1381H74.246V53.2259H78.5319Z"
         fill="white"></path>
      <path
         d="M99.4004 54.2398H89.2618C89.3539 55.4994 89.8378 56.521 90.7134 57.3044C91.589 58.0725 92.6951 58.4566 94.0315 58.4566C94.7843 58.4566 95.4755 58.326 96.1053 58.0648C96.7352 57.7883 97.2805 57.3889 97.7414 56.8666L98.6631 57.9266C98.1254 58.5718 97.4495 59.0633 96.6353 59.4013C95.8365 59.7393 94.9532 59.9082 93.9854 59.9082C92.7412 59.9082 91.6351 59.6471 90.6673 59.1248C89.7149 58.5871 88.9699 57.8498 88.4322 56.9127C87.8946 55.9757 87.6257 54.9157 87.6257 53.7329C87.6257 52.55 87.8792 51.4901 88.3861 50.553C88.9084 49.616 89.6151 48.8863 90.506 48.364C91.4124 47.8417 92.4262 47.5805 93.5476 47.5805C94.669 47.5805 95.6752 47.8417 96.5662 48.364C97.4572 48.8863 98.1561 49.616 98.6631 50.553C99.17 51.4747 99.4235 52.5347 99.4235 53.7329L99.4004 54.2398ZM93.5476 48.9861C92.3802 48.9861 91.397 49.3625 90.5982 50.1152C89.8148 50.8526 89.3693 51.8203 89.2618 53.0186H97.8566C97.749 51.8203 97.2959 50.8526 96.4971 50.1152C95.7136 49.3625 94.7305 48.9861 93.5476 48.9861Z"
         fill="white"></path>
      <path
         d="M106.002 59.9082C105.019 59.9082 104.075 59.77 103.168 59.4935C102.277 59.2016 101.578 58.8406 101.071 58.4105L101.809 57.1201C102.316 57.5195 102.953 57.8498 103.721 58.1109C104.489 58.3567 105.288 58.4796 106.118 58.4796C107.224 58.4796 108.038 58.3106 108.56 57.9727C109.098 57.6194 109.367 57.1278 109.367 56.498C109.367 56.0525 109.221 55.7068 108.929 55.461C108.637 55.1999 108.268 55.0079 107.823 54.885C107.377 54.7467 106.786 54.6162 106.049 54.4933C105.065 54.3089 104.274 54.1246 103.675 53.9402C103.076 53.7405 102.561 53.4103 102.131 52.9494C101.717 52.4886 101.509 51.8511 101.509 51.0369C101.509 50.023 101.932 49.1935 102.776 48.5483C103.621 47.9031 104.797 47.5805 106.302 47.5805C107.085 47.5805 107.869 47.6881 108.652 47.9031C109.436 48.1028 110.081 48.3717 110.588 48.7096L109.874 50.023C108.875 49.3318 107.685 48.9861 106.302 48.9861C105.257 48.9861 104.466 49.1705 103.929 49.5391C103.406 49.9078 103.145 50.3917 103.145 50.9908C103.145 51.4517 103.291 51.8203 103.583 52.0969C103.89 52.3734 104.267 52.5807 104.712 52.719C105.158 52.8419 105.772 52.9725 106.555 53.1107C107.523 53.2951 108.299 53.4794 108.883 53.6637C109.466 53.8481 109.966 54.163 110.38 54.6085C110.795 55.054 111.003 55.6684 111.003 56.4519C111.003 57.5118 110.557 58.3567 109.666 58.9865C108.791 59.601 107.569 59.9082 106.002 59.9082Z"
         fill="white"></path>
      <path
         d="M124.949 47.6727V59.793H123.382V57.5809C122.952 58.3183 122.361 58.8944 121.608 59.3091C120.855 59.7085 119.995 59.9082 119.027 59.9082C117.445 59.9082 116.193 59.4704 115.271 58.5948C114.365 57.7038 113.912 56.4058 113.912 54.7006V47.6727H115.548V54.5394C115.548 55.8144 115.863 56.7821 116.493 57.4427C117.122 58.1032 118.021 58.4335 119.189 58.4335C120.464 58.4335 121.47 58.0495 122.207 57.2814C122.945 56.498 123.313 55.415 123.313 54.0324V47.6727H124.949Z"
         fill="white"></path>
      <path d="M129.531 42.6956H131.167V59.793H129.531V42.6956Z" fill="white"></path>
      <path
         d="M142.147 59.0557C141.84 59.3322 141.456 59.5472 140.995 59.7008C140.55 59.8391 140.081 59.9082 139.589 59.9082C138.453 59.9082 137.577 59.601 136.963 58.9865C136.348 58.3721 136.041 57.5041 136.041 56.3827V49.0553H133.875V47.6727H136.041V45.0228H137.677V47.6727H141.364V49.0553H137.677V56.2906C137.677 57.0126 137.854 57.5656 138.207 57.9496C138.576 58.3183 139.098 58.5026 139.774 58.5026C140.112 58.5026 140.434 58.4489 140.742 58.3413C141.064 58.2338 141.341 58.0802 141.571 57.8805L142.147 59.0557Z"
         fill="white"></path>
      <path
         d="M358.193 88.212C358.193 112.094 338.351 133.856 305.945 149.678C273.571 165.483 228.813 175.273 179.347 175.273C129.881 175.273 85.1222 165.483 52.7488 149.678C20.342 133.856 0.5 112.094 0.5 88.212C0.5 64.3304 20.342 42.568 52.7488 26.7462C85.1222 10.9408 129.881 1.15088 179.347 1.15088C228.813 1.15088 273.571 10.9408 305.945 26.7462C338.351 42.568 358.193 64.3304 358.193 88.212Z"
         stroke="white"></path>
      <path
         d="M533.327 68.6161C537.907 94.7069 520.752 122.206 488.994 145.575C457.265 168.924 411.089 188.041 357.986 197.363C304.883 206.685 254.956 204.439 217.171 193.293C179.353 182.138 153.857 162.126 149.277 136.036C144.697 109.945 161.852 82.4457 193.61 59.0765C225.339 35.7279 271.515 16.6109 324.618 7.28876C377.721 -2.03339 427.648 0.212875 465.433 11.3583C503.251 22.5135 528.747 42.5253 533.327 68.6161Z"
         stroke="white"></path>
      <path
         d="M409.655 175.005C409.655 204.026 389.748 230.389 357.371 249.524C325.005 268.653 280.26 280.5 230.808 280.5C181.357 280.5 136.611 268.653 104.245 249.524C71.8685 230.389 51.9617 204.026 51.9617 175.005C51.9617 145.984 71.8685 119.621 104.245 100.486C136.611 81.3573 181.357 69.51 230.808 69.51C280.26 69.51 325.005 81.3573 357.371 100.486C389.748 119.621 409.655 145.984 409.655 175.005Z"
         stroke="white"></path>
   </symbol>
   <symbol id="img-fb" viewBox="0 0 420 350">
      <rect y="346" width="420" height="4" rx="2" fill="black" />
      <line x1="10.5" y1="39.5" x2="409.5" y2="39.5" stroke="#EBEBEB" stroke-linecap="round" />
      <line x1="10.5" y1="279.5" x2="409.5" y2="279.5" stroke="#EBEBEB" stroke-linecap="round" />
      <line x1="10.5" y1="319.5" x2="409.5" y2="320.5" stroke="#EBEBEB" stroke-linecap="round" />
      <line x1="10.5" y1="239.5" x2="409.5" y2="239.5" stroke="#EBEBEB" stroke-linecap="round" />
      <line x1="10.5" y1="119.5" x2="409.5" y2="119.5" stroke="#EBEBEB" stroke-linecap="round" />
      <line x1="10.5" y1="79.5" x2="409.5" y2="79.5" stroke="#EBEBEB" stroke-linecap="round" />
      <line x1="10.5" y1="159.5" x2="409.5" y2="159.5" stroke="#EBEBEB" stroke-linecap="round" />
      <line x1="10.5" y1="199.5" x2="409.5" y2="199.5" stroke="#EBEBEB" stroke-linecap="round" />
      <path
         d="M0.483455 14.1771C16.9105 46.7755 32.5615 80.0711 49.7646 111.798C54.5504 120.688 59.4656 129.404 64.5101 137.946C65.8036 140.038 68.7786 140.91 69.8133 137.772C76.6687 114.587 83.6534 91.2278 90.5088 67.8685C88.698 68.2172 87.0164 68.5658 85.2056 68.9145C100.598 93.1453 115.99 117.376 131.512 141.433C133.064 143.699 135.651 142.479 136.686 140.387C140.049 133.414 144.188 127.313 149.103 122.432C147.809 122.257 146.516 122.083 145.093 121.909C153.501 134.634 161.779 147.534 170.316 160.26C171.868 162.526 174.584 161.48 175.619 159.214C189.847 126.964 206.404 96.4575 224.9 68.5658C230.333 60.3726 235.895 52.7024 241.586 45.0322C239.775 44.8579 237.964 44.5093 236.024 44.335C252.968 80.9427 271.336 116.156 290.738 150.323C310.398 185.013 331.094 218.483 352.824 250.733C358.903 259.624 364.983 268.514 371.191 277.23C377.529 286.295 383.867 295.36 390.852 303.379C394.862 308.085 399.906 300.589 396.543 295.36C391.111 287.167 385.419 279.496 379.728 271.477C374.166 263.807 368.604 255.963 363.172 247.944C352.307 232.081 341.571 215.869 331.094 199.482C310.528 167.058 290.996 133.588 272.5 98.898C262.281 79.3738 252.192 59.501 242.362 39.2796C241.068 36.6648 238.482 36.3161 236.8 38.5823C217.01 66.2996 198.772 96.1088 182.733 127.836C178.335 136.726 173.937 145.616 169.928 154.856C171.739 154.507 173.42 154.158 175.231 153.81C166.823 141.084 158.287 128.359 149.879 115.807C148.974 114.413 147.033 114.064 145.869 115.284C140.049 121.211 135.004 128.184 130.994 136.377C132.676 136.029 134.487 135.68 136.168 135.331C120.776 110.752 105.384 86.5211 89.8621 62.4645C88.0512 59.501 85.0762 61.7672 84.3002 64.5564C77.5741 88.09 70.8481 111.449 64.1221 134.983C65.8036 134.285 67.4851 133.588 69.1666 133.065C50.67 102.907 34.7603 70.1347 18.592 37.7107C14.0649 28.6459 9.53773 19.5811 4.88124 10.5163C2.94104 6.85557 -1.45675 10.5163 0.483455 14.1771Z"
         fill="#51A0FF" />
      <path d="M402 329C411.941 329 420 320.941 420 311C420 301.059 411.941 293 402 293C392.059 293 384 301.059 384 311C384 320.941 392.059 329 402 329Z" fill="white" />
      <path fill-rule="evenodd" clip-rule="evenodd"
         d="M383.967 311.048C383.967 319.997 390.467 327.439 398.967 328.948V315.947H394.467V310.948H398.967V306.947C398.967 302.447 401.867 299.948 405.968 299.948C407.267 299.948 408.668 300.148 409.967 300.347V304.948H407.667C405.467 304.948 404.967 306.047 404.967 307.448V310.948H409.767L408.968 315.947H404.967V328.948C413.468 327.439 419.967 319.999 419.967 311.048C419.967 301.093 411.867 292.948 401.967 292.948C392.067 292.948 383.967 301.093 383.967 311.048Z"
         fill="#51A0FF" />
   </symbol>
   <symbol id="stars" viewBox="0 0 192 115">
      <path d="M111.5 0L116.227 12.7734L129 17.5L116.227 22.2266L111.5 35L106.773 22.2266L94 17.5L106.773 12.7734L111.5 0Z" fill="white"></path>
      <path
         d="M11.5 49.4408L14.1371 56.5675L14.2169 56.7831L14.4325 56.8629L21.5592 59.5L14.4325 62.1371L14.2169 62.2169L14.1371 62.4325L11.5 69.5592L8.86288 62.4325L8.7831 62.2169L8.56747 62.1371L1.44077 59.5L8.56747 56.8629L8.7831 56.7831L8.86288 56.5675L11.5 49.4408Z"
         fill="white" stroke="white"></path>
      <path d="M183.5 98L185.796 104.204L192 106.5L185.796 108.796L183.5 115L181.204 108.796L175 106.5L181.204 104.204L183.5 98Z" fill="white"></path>
   </symbol>
   <symbol id="graf" viewBox="0 0 355 465">
      <path d="M8 460H337" stroke="white" stroke-width="5" stroke-linecap="round" />
      <path d="M89.5 383H15.5C10.2533 383 6 387.253 6 392.5V432.5C6 437.747 10.2533 442 15.5 442H89.5C94.7467 442 99 437.747 99 432.5V392.5C99 387.253 94.7467 383 89.5 383Z" stroke="white" />
      <path d="M169.5 320H129.5C124.253 320 120 324.253 120 329.5V432.5C120 437.747 124.253 442 129.5 442H169.5C174.747 442 179 437.747 179 432.5V329.5C179 324.253 174.747 320 169.5 320Z" stroke="white" />
      <path d="M249.5 237H209.5C204.253 237 200 241.253 200 246.5V432.5C200 437.747 204.253 442 209.5 442H249.5C254.747 442 259 437.747 259 432.5V246.5C259 241.253 254.747 237 249.5 237Z" stroke="white" />
      <path opacity="0.8" d="M329.5 143H289.5C284.253 143 280 147.253 280 152.5V432.5C280 437.747 284.253 442 289.5 442H329.5C334.747 442 339 437.747 339 432.5V152.5C339 147.253 334.747 143 329.5 143Z" stroke="white" />
      <path
         d="M15.8194 331.584C30.6968 316.397 45.8854 301.515 61.194 286.61C76.5267 271.822 92.0021 257.126 107.646 242.641C123.385 228.017 139.316 213.718 155.271 199.536C171.225 185.355 187.371 171.499 203.78 157.714C220.07 143.953 236.647 130.378 253.294 117.152C255.339 115.551 257.48 113.811 259.525 112.21C259.07 111.813 258.495 111.439 258.017 110.926C251.403 123.806 244.812 136.802 238.318 149.658C239.036 150.126 239.732 150.477 240.451 150.945C246.897 137.855 253.896 125.023 260.198 111.84C260.561 111.165 259.843 110.093 258.98 110.137C250.938 110.465 243.061 112.213 235.327 114.055C231.531 115.022 227.616 116.013 223.797 116.864C220.219 117.669 216.615 118.963 212.846 119.442C211.405 119.718 211.854 121.931 213.295 121.655C216.801 121.106 220.33 120.673 223.909 119.868C227.704 118.9 231.619 117.909 235.415 116.942C243.124 114.983 250.835 113.025 258.852 112.581C258.494 112.045 258.015 111.531 257.633 110.878C251.427 123.922 244.285 136.661 238.222 149.798C237.594 151.007 239.799 152.037 240.427 150.828C246.897 137.855 253.368 124.882 259.839 111.908C260.273 110.978 259.196 109.974 258.33 110.624C241.539 123.756 224.818 137.237 208.361 150.789C191.929 164.457 175.639 178.219 159.541 192.308C143.345 206.536 127.439 220.95 111.818 235.552C96.1991 250.154 80.8432 264.825 65.6782 279.824C50.5133 294.823 35.8032 310.219 21.0932 325.615C19.2394 327.541 17.3856 329.469 15.652 331.373C15.5556 331.513 15.723 331.723 15.8194 331.584Z"
         fill="white" />
      <path
         d="M12.6291 330.621C11.2609 330.64 10.0348 331.359 9.26351 332.474C8.37209 333.613 8.31943 335.195 8.81981 336.431C9.32019 337.666 10.6612 338.74 11.9565 338.976C13.5158 339.283 15.0767 338.985 16.352 337.894C18.5896 336.014 19.8738 331.897 17.6486 329.54C15.7582 327.602 12.3032 327.175 10.1619 328.915C7.49132 331.119 7.67171 335.077 9.89695 337.435C10.7102 338.368 12.4895 337.301 11.749 336.112C11.5816 335.903 11.5342 335.67 11.3668 335.46L11.3432 335.343C11.3432 335.343 11.3905 335.576 11.3432 335.343C11.3195 335.227 11.2958 335.11 11.2722 334.993C11.2249 334.76 11.1775 334.528 11.1302 334.295C11.1066 334.179 11.0356 333.829 11.1066 334.179C11.083 334.062 11.0592 333.945 11.1557 333.806C11.1084 333.573 11.1811 333.317 11.2538 333.061C11.3267 332.806 11.1811 333.317 11.2302 332.945C11.2066 332.828 11.3029 332.689 11.2793 332.573C11.3521 332.316 11.4248 332.061 11.5212 331.921C11.6176 331.782 11.7141 331.642 11.5212 331.921C11.6176 331.782 11.7141 331.642 11.6904 331.526C11.7868 331.387 11.7868 331.387 11.8832 331.247C12.0761 330.968 11.7868 331.387 11.8832 331.247C11.9796 331.108 12.0997 331.084 12.1961 330.946C12.1961 330.946 12.3162 330.922 12.2926 330.806C12.509 330.643 12.2926 330.806 12.1725 330.829C12.2689 330.689 12.6291 330.621 12.7256 330.481C12.8456 330.458 13.0858 330.412 12.8456 330.458C12.6055 330.504 13.0858 330.412 13.0858 330.412C13.2059 330.39 13.3259 330.366 13.446 330.343C13.446 330.343 13.8061 330.274 13.566 330.321C13.3259 330.366 13.6861 330.297 13.8061 330.274C13.9262 330.252 14.0463 330.228 14.1901 330.322C14.1901 330.322 14.5739 330.37 14.3102 330.299C14.1901 330.322 14.4539 330.392 14.5739 330.37C14.694 330.347 14.7177 330.463 14.8377 330.44C14.8377 330.44 15.2453 330.604 15.1016 330.511C14.9578 330.418 15.2453 330.604 15.3654 330.582C15.5092 330.675 15.5092 330.675 15.6528 330.768C15.7965 330.861 15.6292 330.652 15.6765 330.885C15.8203 330.978 15.8439 331.094 15.9876 331.189C16.155 331.398 15.964 331.072 16.0113 331.304C16.0349 331.421 16.0586 331.537 16.1787 331.515C16.346 331.725 16.1787 331.515 16.1787 331.515C16.2023 331.631 16.2023 331.631 16.226 331.747C16.2497 331.864 16.297 332.097 16.3206 332.213C16.3898 333.168 16.0261 334.448 15.4476 335.284C15.1584 335.703 14.8691 336.121 14.4361 336.445C14.1232 336.747 13.763 336.816 13.2827 336.908C13.0425 336.954 13.2827 336.908 13.1626 336.931C13.0425 336.954 12.9225 336.977 12.7788 336.884C12.6587 336.906 12.635 336.79 12.2511 336.742C11.8436 336.579 11.436 336.415 11.1249 336.111C10.359 335.41 10.0495 334.501 10.3406 333.478C10.608 332.338 11.4266 331.456 12.6037 331.11C12.9639 331.041 12.9893 330.552 12.6291 330.621Z"
         fill="white" />
      <path
         d="M11.9754 274.522C9.12891 272.458 5.59834 274.322 3.54921 276.662C1.54003 279.27 0.085208 282.758 0.564579 285.975C1.04395 289.193 3.65406 291.564 6.75522 292.497C8.67111 293.049 10.5072 293.065 12.3631 293.215C13.7847 293.289 18.2458 292.938 18.5055 294.68C18.8251 296.825 14.3257 297.867 12.8459 298.348C12.1751 298.579 6.55204 300.599 6.15587 299.833C5.75969 299.068 4.25995 299.415 4.53792 300.334C4.89581 301.789 6.19919 302.016 7.56083 301.689C9.61324 301.265 11.6457 300.706 13.6582 300.013C16.2033 299.109 21.8663 297.356 20.0436 293.643C19.2513 292.112 17.3952 291.962 15.9536 291.754C13.8014 291.508 11.5509 291.55 9.37859 291.17C5.48845 290.621 2.16758 288.214 2.53547 284.056C2.90503 280.858 6.68202 273.075 11.1681 275.73C11.9188 276.035 12.7461 274.961 11.9754 274.522Z"
         fill="white" />
      <path
         d="M21.0061 279.277C24.1606 276.781 27.1169 273.903 28.3936 270.166C28.9828 268.442 29.3541 266.2 28.5417 264.535C27.8676 262.851 25.8135 262.318 24.2355 263.087C22.3812 263.894 21.6937 265.906 21.4007 267.726C21.0494 270.102 20.9745 272.438 21.1959 274.871C21.4173 277.303 21.915 279.696 22.669 281.917C23.3831 283.87 24.6299 285.611 26.8022 285.99C31.8775 286.92 34.9687 282.108 36.2055 278.103C36.7748 276.244 33.93 275.137 33.2226 277.016C32.2986 279.335 31.2583 282.765 28.3769 283.306C26.9953 283.5 25.9283 282.965 25.3141 281.683C24.5017 280.018 24.104 278.295 23.8443 276.552C23.5647 274.676 23.305 272.933 23.3016 271.018C23.3382 269.37 23.335 267.455 23.9642 265.998C24.6333 264.81 26.4877 264.002 27.0436 265.84C27.4015 267.295 27.0686 268.847 26.7157 270.265C25.6553 273.561 23.1135 276.381 20.4918 278.664C19.8409 279.03 20.5134 279.756 21.0061 279.277Z"
         fill="white" />
      <path
         d="M78.6745 224.249C81.8286 221.754 84.7857 218.876 86.0621 215.139C86.6512 213.415 87.0229 211.173 86.2105 209.508C85.5364 207.823 83.4822 207.291 81.9042 208.059C80.0499 208.866 79.3617 210.879 79.0695 212.699C78.7184 215.074 78.6427 217.411 78.864 219.844C79.0853 222.276 79.5839 224.669 80.3374 226.89C81.0517 228.842 82.2983 230.583 84.471 230.962C89.5458 231.893 92.6373 227.08 93.8735 223.075C94.4431 221.216 91.5981 220.11 90.8913 221.988C89.9669 224.307 88.9267 227.738 86.0453 228.278C84.6634 228.472 83.5971 227.938 82.9827 226.656C82.1703 224.991 81.7726 223.267 81.513 221.525C81.2329 219.648 80.9733 217.906 80.9705 215.99C81.0069 214.343 81.0032 212.427 81.6325 210.971C82.302 209.782 84.1563 208.975 84.7119 210.813C85.0705 212.268 84.7371 213.82 84.3842 215.237C83.3235 218.534 80.7819 221.354 78.16 223.637C77.6278 223.849 78.1619 224.595 78.6745 224.249Z"
         fill="white" />
      <path
         d="M33.9089 252.287C35.139 255.809 36.231 259.35 37.3429 263.026C37.8789 264.73 38.4149 266.433 38.9709 268.271C39.5069 269.975 39.6283 271.737 40.8352 273.21C41.5476 274.205 42.8294 273.341 42.8277 272.383C42.7062 270.621 41.6175 268.995 40.9434 267.311C40.1311 265.645 39.4569 263.961 38.7828 262.277C37.4345 258.908 35.948 255.558 34.5997 252.19C34.4998 251.52 33.829 251.751 33.9089 252.287Z"
         fill="white" />
      <path
         d="M40.3008 248.79C41.5109 252.178 42.5829 255.586 43.5167 259.013C44.4306 262.306 45.0681 265.637 45.9819 268.931C46.5579 270.902 49.5375 270.074 48.8234 268.121C47.4951 264.886 45.8904 261.69 44.4239 258.475C42.9574 255.259 41.7673 252.005 40.5571 248.617C40.5371 248.483 40.2609 248.522 40.3008 248.79Z"
         fill="white" />
      <path
         d="M52.8819 252.773C53.8674 251.813 54.7146 250.874 55.5619 249.934C55.9165 249.473 56.4093 248.993 56.7638 248.533C57.1183 248.073 57.453 247.479 57.7875 246.884C58.0039 246.444 57.944 246.042 57.6278 245.812C57.3114 245.583 56.7588 245.661 56.5224 245.968C55.1242 247.942 53.5678 249.803 51.8533 251.549C51.4787 251.875 51.4004 252.296 51.7367 252.659C51.9148 252.909 52.5074 253.099 52.8819 252.773Z"
         fill="white" />
      <path
         d="M93.3197 198.521C95.7399 205.298 97.2329 212.478 97.8575 219.507C98.8249 219.371 99.7913 219.235 100.739 218.965C99.4056 212.858 97.105 206.885 94.963 201.028C94.1936 201.547 93.5428 201.911 92.7734 202.43C95.4635 205.337 97.6811 208.857 100.982 211.131C102.247 212.049 104.242 213.137 105.86 212.637C107.479 212.136 108.325 210.238 108.381 208.725C108.65 204.855 105.86 201.279 103.98 198.121C101.524 193.95 98.8127 189.951 96.0816 185.818C94.9929 184.192 92.1525 185.959 93.2412 187.585C95.1021 190.608 96.9836 193.765 98.9827 196.769C100.824 199.659 103.059 202.356 104.506 205.437C104.922 206.336 105.754 208.135 105.203 209.171C104.395 210.378 102.142 208.505 101.352 207.932C98.9397 205.944 96.7035 203.247 94.6465 200.798C93.7959 199.823 91.9415 200.631 92.3972 201.799C94.0069 207.867 95.499 214.09 97.9173 219.908C98.5513 221.325 101.116 220.555 100.62 219.119C98.7128 211.997 96.4308 205.201 93.7146 198.329C93.7921 197.908 93.2599 198.119 93.3197 198.521Z"
         fill="white" />
      <path
         d="M70.7994 224.397C69.791 223.306 68.3092 222.829 66.8096 223.177C65.1516 223.409 63.7917 224.695 63.0242 226.171C62.1387 227.801 61.7075 229.64 61.5527 231.441C61.2998 233.529 61.323 235.578 61.6426 237.723C62.3002 241.189 64.5573 244.977 68.566 245.373C73.0086 245.844 75.6669 241.914 77.4176 238.521C77.9685 237.486 78.5399 236.584 78.3803 235.512C78.3784 234.554 77.8238 233.675 77.0338 233.101C75.2336 231.437 72.7471 231.786 70.4381 232.384C70.9731 233.13 71.3484 233.762 71.8835 234.507C73.2616 232.398 74.9759 230.653 76.5128 228.658C77.2215 227.738 76.0749 226.667 75.1477 227.071C72.5044 228.262 70.6127 230.717 69.4324 233.209C68.9021 234.379 70.3055 235.276 71.3905 234.987C72.594 234.544 75.4353 233.735 75.9918 235.573C76.2495 236.358 75.4222 237.432 75.087 238.027C74.6547 238.908 74.2019 239.656 73.6108 240.424C72.5473 241.804 71.0496 243.109 69.2532 243.36C67.5753 243.459 66.0338 242.58 65.1232 241.203C62.8478 238.239 62.7013 233.469 63.4653 230.077C63.7983 228.526 64.3876 226.801 65.7875 225.784C66.931 224.939 68.5893 224.706 69.7359 225.777C70.4866 226.083 71.4521 224.989 70.7994 224.397Z"
         fill="white" />
      <path d="M340.58 2.2006L338.868 14.9039L347.444 24.525L334.679 22.7437L325.07 31.2271L326.782 18.5238L318.206 8.90265L330.971 10.684L340.58 2.2006Z" fill="white" />
      <path
         d="M246.296 11.4687L245.341 18.5562L245.312 18.7706L245.456 18.933L250.241 24.3011L243.119 23.3071L242.904 23.277L242.742 23.4202L237.381 28.1535L238.336 21.066L238.365 20.8516L238.22 20.6892L233.435 15.3211L240.557 16.3151L240.772 16.3452L240.935 16.202L246.296 11.4687Z"
         fill="white" stroke="white" />
      <path d="M343.253 94.3223L342.422 100.492L346.587 105.166L340.387 104.301L335.72 108.421L336.551 102.251L332.386 97.5776L338.586 98.4427L343.253 94.3223Z" fill="white" />
   </symbol>
   <symbol id="heath" viewBox="0 0 79 59" fill="none">
      <path
         d="M69.9902 0L8.13712 0C3.65621 0 0 3.7029 0 8.24104L0 38.5603C0 43.0984 3.65621 46.8013 8.13712 46.8013H23.2568C24.1639 46.8013 25.0711 47.1354 25.7584 47.7479L36.5895 57.1305C38.019 58.3555 40.0808 58.3555 41.5103 57.1305L52.3415 47.7479C53.0287 47.1354 53.9359 46.8013 54.8431 46.8013H69.9627C74.4436 46.8013 78.0999 43.0984 78.0999 38.5603V8.24104C78.1273 3.7029 74.4986 0 69.9902 0Z"
         fill="white"></path>
      <path
         d="M39.1367 34.9964L28.6405 27.0895C27.4712 26.2264 26.5524 25.0571 26.0791 23.6928C24.1581 18.0689 29.8377 11.5819 36.1298 14.3938C36.2691 14.4495 36.4083 14.533 36.5753 14.6166L39.1367 15.953L41.6981 14.6166C41.8373 14.533 41.9765 14.4774 42.1436 14.3938C48.4357 11.554 54.1154 18.0411 52.1943 23.6928C51.721 25.0571 50.8022 26.2264 49.6329 27.0895L39.1367 34.9964Z"
         fill="#3D618D"></path>
   </symbol>
   <symbol id="arrow" viewBox="0 0 101 40" fill="none">
      <path d="M0.5 20.1509L99.7 20.1509" stroke="white" stroke-miterlimit="10" stroke-linecap="round" stroke-linejoin="round"></path>
      <path d="M91.2 11.5L99.9 20.1L91.5 28.4" stroke="white" stroke-miterlimit="10" stroke-linecap="round" stroke-linejoin="round"></path>
   </symbol>
   <symbol id="tg" viewBox="0 0 50 50" fill="none">
      <path
         d="M25 0C11.1667 0 0 11.1667 0 25C0 38.8333 11.1667 50 25 50C38.8333 50 50 38.8333 50 25C50 11.1667 38.8333 0 25 0ZM39.0833 11.5833L33.5 37.8333C33.4167 38.3333 32.8333 38.5833 32.3333 38.3333L23.75 32.5833L19.1667 36.9167C18.75 37.25 18.1667 37.0833 18 36.5833L15 27.25L7.08333 24C6.5 23.75 6.5 22.75 7.08333 22.5L38 10.75C38.5833 10.5833 39.1667 11 39.0833 11.5833V11.5833Z"
         fill="black"></path>
      <path d="M18.9163 33.8337L19.4163 29.0003L33.4163 15.417L16.583 26.5003" fill="black"></path>
   </symbol>
   <symbol id="wts" viewBox="0 0 50 50" fill="none">
      <path fill-rule="evenodd" clip-rule="evenodd"
         d="M25 50C38.8071 50 50 38.8071 50 25C50 11.1929 38.8071 0 25 0C11.1929 0 0 11.1929 0 25C0 38.8071 11.1929 50 25 50ZM13.4745 31.7087L11.6719 38.3327L18.2932 36.526C20.3287 37.7129 22.6436 38.3365 24.9999 38.3327C32.3639 38.3327 38.3332 32.3633 38.3332 24.9993C38.3332 17.6353 32.3639 11.666 24.9999 11.666C17.6359 11.666 11.6665 17.6353 11.6665 24.9993C11.6627 27.3567 12.2867 29.6725 13.4745 31.7087ZM19.6932 18.8767C19.8474 18.7994 20.0157 18.754 20.1879 18.7433V18.742C20.3667 18.7296 20.5461 18.7278 20.7252 18.7367C20.7972 18.742 20.8692 18.75 20.9412 18.758C21.1532 18.7833 21.3865 18.9113 21.4652 19.09C21.8625 19.9913 22.2492 20.8993 22.6225 21.8113C22.7052 22.0127 22.6559 22.2727 22.4985 22.526C22.3904 22.6978 22.2733 22.8638 22.1479 23.0233C21.9972 23.2153 21.6732 23.57 21.6732 23.57C21.6732 23.57 21.5412 23.7273 21.5919 23.9233C21.6257 24.0198 21.6714 24.1116 21.7279 24.1967L21.8065 24.3233C22.1848 24.9434 22.642 25.5117 23.1665 26.014C23.2096 26.0557 23.2524 26.0977 23.2953 26.1398C23.4114 26.2539 23.5278 26.3682 23.6505 26.4753C24.2748 27.0258 24.9811 27.4757 25.7439 27.8087L25.7505 27.8113C25.7833 27.8256 25.8115 27.838 25.8389 27.8501C25.9061 27.8797 25.9691 27.9074 26.0865 27.9567C26.1692 27.992 26.2543 28.0215 26.3412 28.0447C26.4309 28.0678 26.5255 28.0636 26.6129 28.0328C26.7003 28.0019 26.7765 27.9457 26.8319 27.8713C27.7959 26.7034 27.8852 26.6273 27.8919 26.6273V26.63C27.9589 26.5675 28.0386 26.52 28.1255 26.4908C28.2125 26.4616 28.3046 26.4513 28.3959 26.4607C28.4772 26.4643 28.5572 26.4828 28.6319 26.5154C29.3399 26.838 30.4999 27.3433 30.4999 27.3433L31.2759 27.6913C31.4052 27.754 31.5239 27.902 31.5292 28.0447C31.5294 28.0497 31.5297 28.0549 31.5299 28.0603C31.5341 28.1506 31.5407 28.2928 31.5105 28.542C31.4679 28.8873 31.3639 29.302 31.2599 29.5194C31.1865 29.6727 31.0905 29.8074 30.9799 29.922C30.8305 30.078 30.7199 30.1727 30.5399 30.306C30.4305 30.3887 30.3732 30.426 30.3732 30.426C30.2075 30.5315 30.0371 30.6294 29.8625 30.7194C29.5193 30.9022 29.1402 31.0073 28.7519 31.0273C28.7087 31.0294 28.6656 31.0317 28.6225 31.034C28.418 31.0449 28.2143 31.0557 28.0105 31.0447L27.2519 30.9287C25.3562 30.4301 23.603 29.496 22.1319 28.2007C21.8805 27.9784 21.6442 27.7421 21.4063 27.5042C21.3602 27.4582 21.3141 27.4121 21.2679 27.366C20.0825 26.186 19.1852 24.9127 18.6399 23.71C18.3732 23.1153 18.2025 22.4793 18.1999 21.826C18.1953 21.0172 18.4604 20.23 18.9532 19.5887C18.968 19.5695 18.9826 19.5502 18.9973 19.5307C19.0796 19.4219 19.1655 19.3085 19.3012 19.1807C19.4165 19.061 19.5486 18.9586 19.6932 18.8767Z"
         fill="black"></path>
   </symbol>
   <symbol id="mail" viewBox="0 0 50 50" fill="none">
      <path fill-rule="evenodd" clip-rule="evenodd"
         d="M25 50C38.8071 50 50 38.8071 50 25C50 11.1929 38.8071 0 25 0C11.1929 0 0 11.1929 0 25C0 38.8071 11.1929 50 25 50ZM12.818 15.0681C13.662 14.2241 14.8065 13.75 16 13.75H34C35.1935 13.75 36.338 14.2241 37.182 15.0681C38.0259 15.9119 38.5 17.0566 38.5 18.25V18.7046L25 25.9719L11.5 18.7021V18.25C11.5 17.0566 11.9741 15.9119 12.818 15.0681ZM25.5332 28.24L38.5 21.2583V31.75C38.5 32.9434 38.0259 34.0881 37.182 34.9319C36.338 35.7759 35.1935 36.25 34 36.25H16C14.8065 36.25 13.662 35.7759 12.818 34.9319C11.9741 34.0881 11.5 32.9434 11.5 31.75V21.2583L24.4668 28.24C24.5525 28.2861 24.6434 28.3208 24.7373 28.3435C24.823 28.364 24.9111 28.3745 25 28.3745C25.1862 28.3745 25.3694 28.3281 25.5332 28.24Z"
         fill="black"></path>
   </symbol>
   <symbol id="footer-brand" viewBox="0 0 167 39" fill="none">
            <path
               d="M23.1131 10.4434C21.4855 6.5271 16.6024 6.36392 13.0215 7.83254C9.6034 9.46434 6.18527 12.0752 4.72036 15.6652C3.09268 19.4183 4.39482 23.3346 7.16188 26.2719C8.62679 27.9037 10.4172 29.0459 12.3705 30.1882C13.3471 30.8409 14.1609 31.3304 15.1375 31.9832C15.9514 32.6359 18.0673 33.7781 17.9046 35.0836C17.0907 37.8576 11.5566 36.2258 9.76617 35.8995C8.46402 35.5731 7.16188 35.2468 5.85973 34.9204C5.20866 34.7572 1.9533 34.2677 2.11607 33.2886C2.27884 32.1463 0.325619 31.9832 0.162851 33.1254C-0.325453 34.9204 1.30223 35.8995 2.76714 36.389C5.20866 37.2049 7.65018 37.6945 10.0917 38.184C12.2077 38.5104 14.6492 39.1631 16.928 38.5104C18.5556 38.0208 20.0206 36.5522 20.0206 34.7572C20.0206 32.6359 17.9046 31.3304 16.4397 30.1882C14.4864 28.7196 12.2077 27.5773 10.4172 25.9455C8.78956 24.4769 7.16188 22.8451 6.67357 20.5606C6.0225 18.4392 6.67357 16.3179 8.13848 14.5229C10.58 11.2593 18.8812 5.7112 21.811 11.2593C22.1365 12.0752 23.6014 11.4225 23.1131 10.4434Z"
               fill="black"></path>
            <path
               d="M29.2983 26.2718C33.8558 25.9454 38.5761 25.1295 42.3197 22.5187C44.1102 21.2132 45.7379 19.5814 46.5517 17.6233C47.3655 15.5019 46.3889 13.3806 44.1102 12.5647C41.6687 11.7488 39.5527 13.0542 37.925 14.686C35.9718 16.6442 34.3441 18.7655 33.042 21.05C31.577 23.3346 30.4377 25.7823 29.6238 28.3931C28.81 30.8408 27.9961 33.4517 29.6238 35.8994C31.0887 38.0208 33.8558 39.163 36.2973 38.9998C39.3899 38.8367 42.3197 37.0417 44.7613 35.2467C46.5517 33.7781 44.924 30.6777 42.808 31.9831C40.2037 33.7781 36.4601 36.7153 33.2047 34.594C31.577 33.4517 31.9026 31.6567 32.3909 30.0249C33.042 28.0668 33.693 26.1086 34.6696 24.1505C35.6462 22.3555 36.6228 20.5605 37.925 18.9287C39.0644 17.4601 40.3665 15.5019 41.9942 14.8492C42.6453 14.5229 43.6219 14.5229 44.2729 15.0124C45.2496 15.6651 44.7613 16.8074 44.2729 17.6233C43.4591 19.0919 42.157 20.3973 40.8548 21.2132C37.5995 23.4977 33.5303 24.4768 29.6238 25.1295C28.4844 25.1295 28.4844 26.2718 29.2983 26.2718Z"
               fill="black"></path>
            <path
               d="M123.704 25.4561C128.098 25.2929 132.819 24.6402 136.725 22.3557C138.678 21.2134 140.469 19.4184 141.445 17.2971C142.259 15.1758 141.283 13.0544 139.167 12.2385C136.725 11.4226 134.446 12.7281 132.819 14.3599C130.866 16.1548 129.238 18.2762 127.773 20.3975C126.308 22.5189 125.006 24.9666 124.029 27.4142C123.053 29.8619 122.076 32.636 123.541 35.2469C124.843 37.3682 127.61 38.6737 130.052 38.6737C133.144 38.6737 136.074 37.0419 138.678 35.2469C140.632 33.7783 138.841 30.841 136.725 31.9833C133.958 33.6151 130.052 36.5523 126.959 34.1046C125.331 32.9624 125.82 31.0042 126.471 29.3724C127.122 27.4143 127.936 25.6193 129.075 23.8243C130.052 22.0293 131.191 20.3975 132.493 18.7657C133.633 17.2971 135.097 15.5021 136.888 14.8494C137.539 14.6862 138.516 14.6862 139.004 15.1758C139.818 15.9917 139.167 17.1339 138.678 17.7866C137.702 19.0921 136.562 20.2343 135.097 21.2134C131.679 23.3348 127.61 24.1507 123.704 24.477C122.89 24.477 122.89 25.4561 123.704 25.4561Z"
               fill="black"></path>
            <path
               d="M60.0615 11.912C59.0848 16.1547 57.9455 20.3973 56.8061 24.64C56.3178 26.7614 55.6667 28.8827 55.0156 30.8409C54.3646 32.9622 53.388 35.0835 53.5507 37.2049C53.7135 38.5103 55.3412 38.9999 55.9922 37.8576C56.9689 36.0626 56.9689 33.7781 57.2944 31.6568C57.6199 29.3722 57.9455 27.2509 58.4338 24.9664C59.2476 20.5605 59.8987 16.3178 60.8753 11.912C61.0381 11.5856 60.2242 11.4225 60.0615 11.912Z"
               fill="black"></path>
            <path
               d="M68.6881 12.4017C67.7115 16.4812 66.7349 20.7239 65.4328 24.6402C64.1306 28.7197 62.6657 32.636 61.5264 36.7155C60.8753 38.8369 64.4562 39.8159 64.9445 37.5314C65.7583 33.2887 66.0839 29.0461 66.7349 24.8034C67.386 20.5607 68.1998 16.4812 69.1765 12.2385C69.0137 12.2385 68.6881 12.2385 68.6881 12.4017Z"
               fill="black"></path>
            <path
               d="M77.9659 27.0878C80.8957 27.5773 83.9883 27.9037 87.0809 27.5773C88.383 27.4142 88.2203 25.6192 87.0809 25.6192C84.1511 25.6192 81.384 25.6192 78.4542 25.1296C77.9659 25.1296 77.3148 25.2928 77.3148 25.7824C77.152 26.2719 77.4776 26.9246 77.9659 27.0878Z"
               fill="black"></path>
            <path
               d="M155.118 12.2384C152.676 20.3974 149.258 28.5564 144.864 35.8995C145.84 36.389 146.817 37.0418 147.793 37.5313C150.723 30.6777 152.676 23.1715 154.955 15.9915C153.979 15.8284 153.002 15.8284 151.863 15.6652C152.514 20.3974 152.025 25.7823 153.816 30.3514C154.467 31.9832 155.606 34.2677 157.559 34.7572C159.513 35.2468 161.629 33.615 162.605 32.1464C165.21 28.7196 165.047 23.8242 165.535 19.7447C166.023 13.8702 166.349 7.83255 166.675 1.95807C166.837 -0.652809 162.931 -0.489629 162.605 2.12125C162.28 6.52711 161.791 11.0961 161.629 15.502C161.303 19.4183 161.629 23.4978 160.815 27.251C160.652 28.3932 160.164 30.1882 159.024 31.0041C157.559 32.1464 156.583 29.0459 156.257 27.9037C155.118 24.1505 154.955 19.7447 154.792 15.8284C154.63 14.0334 152.351 13.8702 151.7 15.502C149.096 22.3556 146.166 29.3723 144.375 36.5522C143.887 38.6736 146.98 39.3263 147.631 37.3681C150.723 29.2091 153.165 21.0501 155.444 12.7279C155.932 11.912 155.281 11.7489 155.118 12.2384Z"
               fill="black"></path>
            <path
               d="M116.379 17.46C116.379 15.5019 115.077 14.0333 113.45 13.0542C111.496 12.0751 109.218 12.5646 107.264 13.5437C105.148 14.5228 103.358 16.1546 101.73 17.7864C100.103 19.4182 98.6376 21.3764 97.4982 23.4977C95.545 27.2508 95.0567 32.6358 98.8004 35.573C102.87 38.8366 107.915 37.0416 111.985 35.0835C113.124 34.5939 114.263 33.9412 114.914 32.799C115.403 31.8199 115.565 30.6776 115.24 29.6985C114.752 27.0877 112.31 25.619 110.031 24.4768C109.869 25.4559 109.869 26.4349 109.706 27.5772C112.473 26.7613 115.403 26.2718 118.333 25.619C119.635 25.2927 119.472 23.4977 118.333 23.1713C115.077 22.1923 111.496 23.1713 108.404 24.64C107.427 25.1295 107.264 27.0877 108.404 27.414C109.706 27.9036 111.496 28.5563 112.31 29.8617C113.124 31.4935 111.822 32.1462 110.52 32.799C107.59 34.1044 103.846 35.573 100.754 33.778C97.8238 31.9831 98.1493 27.9036 99.2887 25.2927C100.591 22.1923 102.87 19.255 105.637 17.1337C107.102 15.9914 108.892 14.8492 110.845 14.8492C112.31 14.8492 114.263 15.8282 114.589 17.46C114.752 18.6023 116.379 18.6023 116.379 17.46Z"
               fill="black"></path>

   </symbol>
</svg>
